<svg width="65" height="73" viewBox="0 0 65 73" fill="none" xmlns="http://www.w3.org/2000/svg">
<path d="M16.7046 9.44023H25.8476C27.2913 9.44023 28.466 8.2655 28.466 6.82186C28.466 5.37822 27.2913 4.20349 25.8476 4.20349H16.7046C15.2609 4.20349 14.0862 5.37822 14.0862 6.82186C14.0862 8.2655 15.2609 9.44023 16.7046 9.44023ZM16.7046 6.26988H25.8476C26.159 6.26988 26.3996 6.52464 26.3996 6.82186C26.3996 7.13323 26.1449 7.37384 25.8476 7.37384H16.7046C16.3932 7.37384 16.1526 7.11908 16.1526 6.82186C16.1526 6.51049 16.4074 6.26988 16.7046 6.26988Z" fill="#FF9431"/>
<path d="M28.6783 64.6525H13.8739C13.3078 64.6525 12.8407 65.1195 12.8407 65.6857C12.8407 66.2518 13.3078 66.7189 13.8739 66.7189H28.6783C29.2445 66.7189 29.7115 66.2518 29.7115 65.6857C29.7115 65.1195 29.2445 64.6525 28.6783 64.6525Z" fill="#FF9431"/>
<path d="M63.7503 43.8754L58.2871 26.6224C57.7493 24.9382 56.8152 23.3813 55.5838 22.1358C53.0645 19.5741 49.3422 18.64 45.8605 19.6873C44.7424 20.027 43.6101 20.2959 42.4637 20.494V7.65696C42.4637 3.43926 39.0244 0 34.8067 0H7.74552C3.52783 0 0.088562 3.43926 0.088562 7.65696V64.8223C0.088562 69.0259 3.52783 72.4651 7.74552 72.4651H34.8067C39.0244 72.4651 42.4637 69.0259 42.4637 64.8082V46.6211C42.8883 46.7485 43.327 46.8193 43.7941 46.8193C44.8414 46.8193 45.818 46.4654 46.5965 45.8852C46.6814 45.9701 46.7805 46.055 46.8654 46.1541L51.8474 51.1219C53.2061 52.4665 55.0035 53.2166 56.9001 53.2166C59.2071 53.2166 61.3159 52.1409 62.6888 50.2868C64.0617 48.4044 64.4438 46.0691 63.7503 43.8754ZM34.8067 70.3987H7.74552C4.66009 70.3987 2.15495 67.8936 2.15495 64.8082V7.65696C2.15495 4.57153 4.66009 2.06639 7.74552 2.06639H34.8067C37.8921 2.06639 40.3973 4.57153 40.3973 7.65696V20.7913C39.2509 20.9186 38.1045 20.9894 36.9439 20.9894C33.9009 20.9894 30.9145 20.5507 28.0273 19.6873C24.4889 18.6258 20.5968 19.6732 18.1058 22.334C16.9452 23.5653 16.1102 25.009 15.6006 26.6224L10.1374 43.8754C9.44392 46.0833 9.82606 48.4044 11.1848 50.2727C12.5435 52.1409 14.6524 53.2024 16.9735 53.2024C18.8842 53.2024 20.6817 52.4665 22.0262 51.1077L26.9799 46.1682C27.0931 46.0691 27.1922 45.9842 27.3054 45.8993C28.0839 46.4796 29.0463 46.8193 30.0795 46.8193C32.5563 46.8193 34.5944 44.8803 34.7501 42.4459C36.1937 42.2053 37.6799 42.177 39.1093 42.3751C39.166 43.5215 39.6472 44.5689 40.3831 45.3615V64.8223C40.3973 67.8936 37.8921 70.3987 34.8067 70.3987ZM27.4611 42.1345C27.4611 40.6909 28.6359 39.5161 30.0795 39.5161C31.2684 39.5161 32.2733 40.3087 32.5846 41.3985C32.5563 41.5401 32.5422 41.6958 32.5846 41.8656C32.613 41.9647 32.6413 42.0496 32.6979 42.1345V42.1487C32.6979 43.5923 31.5231 44.767 30.0795 44.767C29.3435 44.767 28.6642 44.4557 28.1971 43.9603C28.1971 43.9461 28.183 43.9461 28.183 43.932C28.1405 43.8754 28.098 43.8188 28.0414 43.7763C27.6876 43.3234 27.4611 42.7573 27.4611 42.1345ZM41.1757 42.1345C41.1757 40.6909 42.3505 39.5161 43.7941 39.5161C45.2377 39.5161 46.4125 40.6909 46.4125 42.1345C46.4125 43.5782 45.2377 44.7529 43.7941 44.7529C42.3505 44.7529 41.1757 43.5782 41.1757 42.1345ZM61.0329 49.0555C60.0563 50.3859 58.556 51.1502 56.9142 51.1502C55.5555 51.1502 54.2676 50.6265 53.3051 49.6641L48.3373 44.7104C48.2099 44.583 48.0684 44.4557 47.941 44.3283C48.2807 43.6772 48.4789 42.9413 48.4789 42.1628C48.4789 39.5869 46.3842 37.4781 43.7941 37.4781C41.8551 37.4781 40.185 38.6669 39.4773 40.3653C37.8214 40.1389 36.1088 40.1672 34.4387 40.4361C33.7452 38.7094 32.061 37.4781 30.0937 37.4781C27.5177 37.4781 25.4089 39.5728 25.4089 42.1628C25.4089 42.9554 25.607 43.7055 25.9609 44.3707C25.8477 44.4698 25.7203 44.5689 25.607 44.668C25.5929 44.6821 25.5787 44.6963 25.5646 44.7104L20.5826 49.6782C19.6202 50.6407 18.3464 51.1643 16.9735 51.1643C15.3317 51.1643 13.8315 50.4001 12.8549 49.0697C11.8783 47.7392 11.6094 46.0833 12.1048 44.5123L17.5679 27.2593C17.9784 25.9431 18.6719 24.7684 19.6202 23.7493C21.5875 21.6546 24.6588 20.8337 27.447 21.6688C30.5183 22.5887 33.7169 23.0558 36.958 23.0558C38.5007 23.0558 40.0293 22.9426 41.5437 22.7444H41.572C43.228 22.518 44.8556 22.1641 46.4549 21.6829C49.2148 20.862 52.1446 21.598 54.126 23.6078C55.1309 24.6268 55.8952 25.9006 56.334 27.2735L61.7972 44.5264C62.2784 46.0691 62.0095 47.7251 61.0329 49.0555Z" fill="#FF9431"/>
<path d="M49.0875 26.4951C48.4506 26.4951 47.941 27.0046 47.941 27.6415C47.941 28.2784 48.4506 28.788 49.0875 28.788C49.7244 28.788 50.2339 28.2784 50.2339 27.6415C50.2339 27.0188 49.7102 26.4951 49.0875 26.4951Z" fill="#FF9431"/>
<path d="M49.0875 33.3735C48.4506 33.3735 47.941 33.8831 47.941 34.52C47.941 35.1569 48.4506 35.6664 49.0875 35.6664C49.7244 35.6664 50.2339 35.1569 50.2339 34.52C50.2339 33.8972 49.7102 33.3735 49.0875 33.3735Z" fill="#FF9431"/>
<path d="M52.5267 29.9343C51.8898 29.9343 51.3803 30.4438 51.3803 31.0807C51.3803 31.7176 51.8898 32.2272 52.5267 32.2272C53.1636 32.2272 53.6731 31.7176 53.6731 31.0807C53.6731 30.458 53.1494 29.9343 52.5267 29.9343Z" fill="#FF9431"/>
<path d="M45.6482 29.9343C45.0113 29.9343 44.5018 30.4438 44.5018 31.0807C44.5018 31.7176 45.0113 32.2272 45.6482 32.2272C46.2851 32.2272 46.7946 31.7176 46.7946 31.0807C46.7946 30.458 46.2709 29.9343 45.6482 29.9343Z" fill="#FF9431"/>
<path d="M27.7867 28.42H27.2205V27.8538C27.2205 26.4102 26.0458 25.2213 24.588 25.2213H24.5314C23.0878 25.2213 21.8989 26.396 21.8989 27.8538V28.42H21.3327C19.8891 28.42 18.7002 29.5947 18.7002 31.0525V31.1091C18.7002 32.5527 19.875 33.7416 21.3327 33.7416H21.8989V34.3078C21.8989 35.7514 23.0736 36.9403 24.5314 36.9403H24.588C26.0317 36.9403 27.2205 35.7656 27.2205 34.3078V33.7416H27.7867C29.2303 33.7416 30.4192 32.5669 30.4192 31.1091V31.0525C30.4192 29.6089 29.2445 28.42 27.7867 28.42ZM28.3528 31.1233C28.3528 31.4346 28.098 31.6894 27.7867 31.6894H26.5978C25.8052 31.6894 25.1542 32.3404 25.1542 33.133V34.3219C25.1542 34.6333 24.8994 34.888 24.588 34.888H24.5314C24.22 34.888 23.9653 34.6333 23.9653 34.3219V33.133C23.9653 32.3404 23.3142 31.6894 22.5216 31.6894H21.3327C21.0214 31.6894 20.7666 31.4346 20.7666 31.1233V31.0666C20.7666 30.7553 21.0214 30.5005 21.3327 30.5005H22.5216C23.3142 30.5005 23.9653 29.8495 23.9653 29.0569V27.868C23.9653 27.5566 24.22 27.3019 24.5314 27.3019H24.588C24.8994 27.3019 25.1542 27.5566 25.1542 27.868V29.0569C25.1542 29.8495 25.8052 30.5005 26.5978 30.5005H27.7867C28.098 30.5005 28.3528 30.7553 28.3528 31.0666V31.1233Z" fill="#FF9431"/>
<path d="M39.8312 33.5151H34.0566C33.4905 33.5151 33.0234 33.9822 33.0234 34.5483C33.0234 35.1145 33.4905 35.5815 34.0566 35.5815H39.8312C40.3973 35.5815 40.8644 35.1145 40.8644 34.5483C40.8644 33.9822 40.3973 33.5151 39.8312 33.5151Z" fill="#FF9431"/>
<path d="M34.0566 30.0617H35.755C36.3211 30.0617 36.7882 29.5947 36.7882 29.0286C36.7882 28.4624 36.3211 27.9954 35.755 27.9954H34.0566C33.4905 27.9954 33.0234 28.4624 33.0234 29.0286C33.0234 29.5947 33.4905 30.0617 34.0566 30.0617Z" fill="#FF9431"/>
<path d="M40.6804 27.9954H38.982C38.4158 27.9954 37.9488 28.4624 37.9488 29.0286C37.9488 29.5947 38.4158 30.0617 38.982 30.0617H40.6804C41.2465 30.0617 41.7136 29.5947 41.7136 29.0286C41.7136 28.4624 41.2465 27.9954 40.6804 27.9954Z" fill="#FF9431"/>
</svg>
