<svg width="14" height="14" viewBox="0 0 14 14" fill="none" xmlns="http://www.w3.org/2000/svg">
<path d="M13.7434 12.5097L11.0337 9.7989C13.0612 7.08945 12.5084 3.24936 9.7989 1.22186C7.08945 -0.805644 3.24937 -0.25281 1.22186 2.45664C-0.805644 5.16609 -0.25281 9.00618 2.45664 11.0337C4.6331 12.6623 7.62242 12.6623 9.7989 11.0337L12.5097 13.7445C12.8504 14.0852 13.4027 14.0852 13.7433 13.7445C14.084 13.4038 14.084 12.8515 13.7433 12.5109L13.7434 12.5097ZM6.15036 10.5105C3.74233 10.5105 1.79026 8.55839 1.79026 6.15036C1.79026 3.74233 3.74233 1.79025 6.15036 1.79025C8.5584 1.79025 10.5105 3.74233 10.5105 6.15036C10.5079 8.5573 8.55733 10.5079 6.15036 10.5105Z" fill="white"/>
</svg>
