<svg width="21" height="22" viewBox="0 0 21 22" fill="none" xmlns="http://www.w3.org/2000/svg">
<path d="M17.9233 9.55336C18.0239 10.1203 18.0789 10.7139 18.0789 11.3339C18.079 16.1777 15.0024 19.6223 10.3568 19.6223C5.91239 19.6223 2.3125 15.8278 2.3125 11.1432C2.3125 6.45856 5.91239 2.66406 10.3568 2.66406C12.5289 2.66406 14.3435 3.50661 15.7365 4.87389L13.4686 7.26407V7.25862C12.6241 6.41063 11.5533 5.97617 10.3568 5.97617C7.70227 5.97617 5.54538 8.33971 5.54538 11.138C5.54538 13.9357 7.70223 16.3049 10.3568 16.3049C12.7651 16.3049 14.4039 14.8528 14.7413 12.8603H10.3568V9.55336H17.9233Z" fill="#F6AB27"/>
</svg>
