<svg width="52" height="38" viewBox="0 0 52 38" fill="none" xmlns="http://www.w3.org/2000/svg">
<path d="M42.1112 13.5438C41.3995 6.12854 35.2257 0.310547 27.6251 0.310547C21.7438 0.310547 16.7077 3.8012 14.3869 8.80984C13.6881 8.58714 12.96 8.43607 12.1881 8.43607C8.1497 8.43607 4.8752 11.7122 4.8752 15.749C4.8752 16.5518 5.03609 17.3108 5.27497 18.0307C2.13373 19.8623 0 23.2246 0 27.1215C0 32.9557 4.72904 37.6847 10.5632 37.6847V37.688H39.8134V37.6847C46.5478 37.6847 52 32.2293 52 25.4965C52 19.555 47.7422 14.6197 42.1112 13.5438ZM32.1429 22.8995H29.2501V29.4194C29.2501 30.318 28.5253 31.0478 27.6251 31.0478H24.3749C23.478 31.0478 22.7499 30.318 22.7499 29.4194V22.8995H19.8555C18.0906 22.8995 17.3707 21.7213 18.2515 20.2848L24.396 14.2281C25.6002 13.0255 26.3623 12.985 27.604 14.2281L33.7485 20.2848C34.6325 21.7229 33.9077 22.8995 32.1429 22.8995Z" fill="white"/>
</svg>
