<svg width="35" height="35" viewBox="0 0 35 35" fill="none" xmlns="http://www.w3.org/2000/svg">
<path d="M17.5 18.5938C18.7979 18.5938 20.0667 18.2089 21.1459 17.4878C22.2251 16.7667 23.0663 15.7418 23.563 14.5426C24.0597 13.3435 24.1896 12.024 23.9364 10.751C23.6832 9.47797 23.0582 8.30865 22.1404 7.39086C21.2226 6.47308 20.0533 5.84807 18.7803 5.59485C17.5073 5.34163 16.1878 5.47159 14.9886 5.96829C13.7895 6.46499 12.7646 7.30613 12.0435 8.38532C11.3224 9.46452 10.9375 10.7333 10.9375 12.0313C10.9375 13.7717 11.6289 15.4409 12.8596 16.6716C14.0903 17.9023 15.7595 18.5938 17.5 18.5938ZM17.5 7.65625C18.3653 7.65625 19.2112 7.91284 19.9306 8.39357C20.6501 8.8743 21.2108 9.55759 21.542 10.357C21.8731 11.1564 21.9597 12.0361 21.7909 12.8848C21.6221 13.7334 21.2054 14.513 20.5936 15.1248C19.9817 15.7367 19.2022 16.1534 18.3535 16.3222C17.5048 16.491 16.6252 16.4044 15.8258 16.0732C15.0263 15.7421 14.343 15.1813 13.8623 14.4619C13.3816 13.7424 13.125 12.8965 13.125 12.0313C13.125 10.8709 13.5859 9.75813 14.4064 8.93766C15.2269 8.11719 16.3397 7.65625 17.5 7.65625Z" fill="#1D2D47"/>
<path d="M17.5008 33.9066C19.9262 33.905 22.3212 33.3656 24.5131 32.3273C26.7051 31.289 28.6396 29.7776 30.1773 27.9019L30.7461 27.2019L30.1773 26.5129C28.6383 24.6396 26.7032 23.1307 24.5113 22.0948C22.3194 21.0588 19.9252 20.5215 17.5008 20.5215C15.0764 20.5215 12.6821 21.0588 10.4902 22.0948C8.29831 23.1307 6.36325 24.6396 4.82421 26.5129L4.25546 27.2019L4.82421 27.9019C6.36195 29.7776 8.29644 31.289 10.4884 32.3273C12.6804 33.3656 15.0753 33.905 17.5008 33.9066ZM27.8805 27.2129C26.5502 28.6369 24.9414 29.7724 23.154 30.5487C21.3665 31.325 19.4386 31.7255 17.4898 31.7255C15.5411 31.7255 13.6132 31.325 11.8257 30.5487C10.0383 29.7724 8.42947 28.6369 7.09921 27.2129C8.42947 25.7888 10.0383 24.6533 11.8257 23.877C13.6132 23.1008 15.5411 22.7002 17.4898 22.7002C19.4386 22.7002 21.3665 23.1008 23.154 23.877C24.9414 24.6533 26.5502 25.7888 27.8805 27.2129Z" fill="#1D2D47"/>
<path d="M17.5008 33.9063C21.2275 33.9087 24.8439 32.6424 27.755 30.3156C30.6661 27.9888 32.6983 24.7403 33.5171 21.1047C34.3359 17.4691 33.8925 13.663 32.2599 10.3129C30.6274 6.96285 27.9029 4.26841 24.535 2.67307C21.167 1.07772 17.3563 0.676547 13.73 1.53557C10.1036 2.39459 6.87782 4.46262 4.58343 7.39928C2.28905 10.3359 1.06282 13.9662 1.10658 17.6927C1.15034 21.4191 2.46148 25.0196 4.8242 27.9016C6.36194 29.7773 8.29643 31.2887 10.4884 32.327C12.6804 33.3653 15.0753 33.9046 17.5008 33.9063ZM17.5008 3.28126C20.313 3.28126 23.062 4.11518 25.4003 5.67755C27.7385 7.23993 29.561 9.46059 30.6372 12.0587C31.7134 14.6569 31.9949 17.5158 31.4463 20.274C30.8977 23.0321 29.5435 25.5657 27.5549 27.5542C25.5664 29.5427 23.0329 30.8969 20.2747 31.4456C17.5165 31.9942 14.6576 31.7126 12.0595 30.6364C9.46135 29.5602 7.24068 27.7378 5.67831 25.3995C4.11593 23.0613 3.28202 20.3122 3.28202 17.5C3.28202 13.729 4.78006 10.1124 7.44659 7.44584C10.1131 4.7793 13.7297 3.28126 17.5008 3.28126Z" fill="#1D2D47"/>
<path d="M29.3359 27.2128C29.3359 27.2128 18.3219 39.5175 7.11094 28.4378L5.66718 27.2128C5.66718 27.2128 15.0297 17.5003 24.5344 23.33L29.3359 27.2128Z" fill="#1D2D47"/>
<path d="M17.5 17.5C14.4797 17.5 12.0312 15.0516 12.0312 12.0312C12.0312 9.01094 14.4797 6.5625 17.5 6.5625C20.5203 6.5625 22.9688 9.01094 22.9688 12.0312C22.9688 15.0516 20.5203 17.5 17.5 17.5Z" fill="#1D2D47"/>
</svg>
