<svg width="18" height="20" viewBox="0 0 18 20" fill="none" xmlns="http://www.w3.org/2000/svg">
<path d="M15.8521 0.1875H2.14643C1.1735 0.1875 0.384766 0.976177 0.384766 1.94916V15.6549C0.384766 16.6278 1.17344 17.4165 2.14643 17.4165H4.89458V19.8124L8.2306 17.4165H15.8521C16.825 17.4165 17.6138 16.6278 17.6138 15.6549V1.9491C17.6138 0.976177 16.8251 0.1875 15.8521 0.1875Z" fill="white"/>
<path d="M17.615 15.3092V12.5486C17.2569 12.183 16.7579 11.9558 16.2056 11.9558H12.1939L17.615 4.56999V2.20296C17.3359 1.95372 16.971 1.80859 16.5838 1.80859H8.38387C7.2942 1.80859 6.41078 2.69202 6.41078 3.78169C6.41078 4.87136 7.2942 5.75479 8.38387 5.75479H11.8318L6.25053 13.4434C5.90841 13.9146 5.8596 14.5379 6.12403 15.0566C6.38846 15.5753 6.92152 15.902 7.50382 15.902H16.2057C16.7579 15.9019 17.2569 15.6748 17.615 15.3092Z" fill="#1D2D47"/>
</svg>
