<svg width="172" height="195" viewBox="0 0 172 195" fill="none" xmlns="http://www.w3.org/2000/svg">
<path d="M140.986 99.2539V112.67C149.899 117.437 156.92 125.333 160.536 135.041C161.692 132.44 162.615 129.641 163.264 126.68C166.168 127.706 169.075 129.086 171.919 130.838C166.531 116.285 155.212 104.861 140.986 99.2539Z" fill="url(#paint0_linear_224_13033)"/>
<path d="M149.035 126.132L132.008 107.413L140.958 99.2227L157.97 117.808L149.035 126.132Z" fill="url(#paint1_linear_224_13033)"/>
<path d="M31.0428 99.2539V112.67C22.1273 117.437 15.107 125.333 11.4903 135.041C10.335 132.44 9.41279 129.641 8.76318 126.68C5.85777 127.706 2.95237 129.086 0.109375 130.838C5.49475 116.285 16.8139 104.861 31.0428 99.2539Z" fill="url(#paint2_linear_224_13033)"/>
<path d="M22.9932 126.132L40.0186 107.413L31.0693 99.2227L14.0547 117.808L22.9932 126.132Z" fill="url(#paint3_linear_224_13033)"/>
<path d="M117.763 170.906H45.3262L53.0272 131.812H110.062L117.763 170.906Z" fill="url(#paint4_linear_224_13033)"/>
<path d="M110.037 131.812H53.0508L58.0228 122.953H104.961L110.037 131.812Z" fill="url(#paint5_linear_224_13033)"/>
<path d="M119.224 168.605H43.8652V173.559H119.224V168.605Z" fill="url(#paint6_linear_224_13033)"/>
<path d="M100.234 138.812H62.875V160.748H100.234V138.812Z" fill="url(#paint7_linear_224_13033)"/>
<mask id="mask0_224_13033" style="mask-type:alpha" maskUnits="userSpaceOnUse" x="62" y="138" width="39" height="23">
<path d="M100.208 160.748H62.8496V138.812H66.946C69.0202 145.458 76.4035 160.685 100.208 158.826V160.748Z" fill="url(#paint8_linear_224_13033)"/>
</mask>
<g mask="url(#mask0_224_13033)">
<path d="M100.21 160.748H62.8516V138.812H66.9479C69.0222 145.458 76.4054 160.685 100.21 158.826V160.748Z" fill="url(#paint9_linear_224_13033)"/>
</g>
<path d="M103.848 62.9974V57.8343C116.31 57.8343 127.605 32.541 131.811 20.3436L122.898 16.3205C117.735 24.8043 109.594 25.0686 109.223 25.0743L109.123 19.9112L109.171 22.4943L109.099 19.9144C109.373 19.9023 115.839 19.5724 119.419 11.8834L120.494 9.57031L138.143 17.5325L137.455 19.7195C137.318 20.1545 134.05 30.4386 128.474 40.8935C120.657 55.5632 112.371 62.9974 103.848 62.9974Z" fill="url(#paint10_radial_224_13033)"/>
<path d="M119.022 8.92969L117.946 11.2428C116.472 14.4049 114.085 16.439 111.764 17.5517V19.3069L111.87 19.2769C111.87 19.2769 117.09 17.5217 119.437 11.8606L120.504 9.56846L119.022 8.92969Z" fill="url(#paint11_radial_224_13033)"/>
<path d="M107.707 57.045C118.588 52.6831 128.039 31.2658 131.804 20.3434L122.891 16.3203C122.57 16.8451 122.24 17.3342 121.9 17.8023L129.775 21.3548C126.245 31.5989 117.722 51.054 107.707 57.045Z" fill="url(#paint12_radial_224_13033)"/>
<mask id="mask1_224_13033" style="mask-type:alpha" maskUnits="userSpaceOnUse" x="103" y="12" width="36" height="51">
<path d="M138.143 17.5324L125.999 12.0547C126.076 13.7437 126.106 15.6638 126.037 17.7337L131.811 20.3436C127.604 32.5416 116.309 57.8342 103.848 57.8342V62.9973C112.371 62.9973 120.657 55.5631 128.475 40.8935C134.051 30.4386 137.319 20.1544 137.455 19.7194L138.143 17.5324Z" fill="url(#paint13_linear_224_13033)"/>
</mask>
<g mask="url(#mask1_224_13033)">
<path d="M138.143 17.5324L125.999 12.0547C126.076 13.7437 126.106 15.6638 126.037 17.7337L131.811 20.3436C127.604 32.5416 116.309 57.8342 103.848 57.8342V62.9973C112.371 62.9973 120.657 55.5631 128.475 40.8935C134.051 30.4386 137.319 20.1544 137.455 19.7194L138.143 17.5324Z" fill="url(#paint14_linear_224_13033)"/>
</g>
<path d="M59.2414 62.9974V57.8343C46.7798 57.8343 35.483 32.541 31.2784 20.3436L40.1914 16.3205C45.3545 24.8043 53.495 25.0686 53.8656 25.0743L53.9675 19.9112L53.9166 22.4943L53.9898 19.9144C53.7153 19.9023 47.2492 19.5724 43.67 11.8834L42.593 9.57031L24.9453 17.5325L25.635 19.7195C25.7701 20.1545 29.0372 30.4386 34.6143 40.8935C42.4319 55.5632 50.7182 62.9974 59.2414 62.9974Z" fill="url(#paint15_radial_224_13033)"/>
<path d="M44.0686 8.92969L45.1455 11.2428C46.6173 14.4049 49.005 16.439 51.327 17.5517V19.3069L51.2206 19.2769C51.2206 19.2769 46.0008 17.5217 43.6527 11.8606L42.5859 9.56846L44.0686 8.92969Z" fill="url(#paint16_radial_224_13033)"/>
<path d="M55.3831 57.045C44.5021 52.6831 35.0503 31.2658 31.2852 20.3434L40.1982 16.3203C40.5191 16.8451 40.849 17.3342 41.1898 17.8023L33.3149 21.3548C36.8425 31.5989 45.367 51.054 55.3831 57.045Z" fill="url(#paint17_radial_224_13033)"/>
<mask id="mask2_224_13033" style="mask-type:alpha" maskUnits="userSpaceOnUse" x="24" y="12" width="36" height="51">
<path d="M24.9453 17.5324L37.0898 12.0547C37.0134 13.7437 36.9834 15.6638 37.0522 17.7337L31.279 20.3436C35.4836 32.5416 46.7798 57.8342 59.2421 57.8342V62.9973C50.7195 62.9973 42.4331 55.5631 34.6149 40.8935C29.0378 30.4386 25.7707 20.1544 25.6357 19.7194L24.9453 17.5324Z" fill="url(#paint18_linear_224_13033)"/>
</mask>
<g mask="url(#mask2_224_13033)">
<path d="M24.9453 17.5324L37.0898 12.0547C37.0134 13.7437 36.9834 15.6638 37.0522 17.7337L31.279 20.3436C35.4836 32.5416 46.7798 57.8342 59.2421 57.8342V62.9973C50.7195 62.9973 42.4331 55.5631 34.6149 40.8935C29.0378 30.4386 25.7707 20.1544 25.6357 19.7194L24.9453 17.5324Z" fill="url(#paint19_linear_224_13033)"/>
</g>
<path d="M96.8167 120.928C96.8167 122.089 89.9677 124.967 81.5197 124.967C73.0716 124.967 66.2227 122.089 66.2227 120.928C66.2227 119.761 73.0716 118.816 81.5197 118.816C89.9677 118.816 96.8167 119.761 96.8167 120.928Z" fill="url(#paint20_linear_224_13033)"/>
<path d="M95.2751 122.118C86.6365 125.799 76.4498 125.799 67.8132 122.118C66.3885 121.5 66.2261 120.858 66.2261 120.867C65.6485 121.698 65.0695 122.523 64.4919 123.357C64.1741 123.81 62.9902 125.481 65.2402 126.474C75.4945 130.846 87.5918 130.846 97.8474 126.474C100.096 125.481 98.9135 123.81 98.5944 123.357C98.0174 122.523 97.4398 121.698 96.8609 120.867C96.8609 120.858 96.6991 121.5 95.2751 122.118Z" fill="url(#paint21_radial_224_13033)"/>
<path d="M83.6797 99.6254C83.6797 89.2571 86.7444 84.8207 87.5691 83.8125H81.545H75.5195C76.343 84.8207 79.4089 89.2571 79.4089 99.6254C79.4089 109.306 77.8715 112.7 76.2513 114.95L81.545 118.346L86.8367 114.761C85.2172 112.511 83.6797 109.306 83.6797 99.6254Z" fill="url(#paint22_radial_224_13033)"/>
<mask id="mask3_224_13033" style="mask-type:alpha" maskUnits="userSpaceOnUse" x="75" y="83" width="11" height="36">
<path d="M75.4883 83.8125C76.3118 84.8207 79.3764 89.2571 79.3764 99.6254C79.3764 109.306 77.839 112.7 76.22 114.95L81.5124 118.346L84.4567 116.351C80.7577 109.463 77.5161 97.7835 85.8788 83.8125H81.5124H75.4883Z" fill="url(#paint23_linear_224_13033)"/>
</mask>
<g mask="url(#mask3_224_13033)">
<path d="M75.4902 83.8125C76.3137 84.8207 79.3783 89.2571 79.3783 99.6254C79.3783 109.306 77.8409 112.7 76.222 114.95L81.5144 118.346L84.4586 116.351C80.7597 109.463 77.518 97.7835 85.8808 83.8125H81.5144H75.4902Z" fill="url(#paint24_linear_224_13033)"/>
</g>
<mask id="mask4_224_13033" style="mask-type:alpha" maskUnits="userSpaceOnUse" x="49" y="6" width="65" height="63">
<path d="M111.855 25.277L113.426 9.22404C113.426 9.22404 94.098 6.21484 81.5478 6.21484C68.9957 6.21484 49.668 9.22404 49.668 9.22404L53.9382 52.9013C53.9382 59.0452 56.8977 64.3942 60.9673 68.909C61.5552 52.1485 69.2072 25.5171 111.855 25.277Z" fill="url(#paint25_linear_224_13033)"/>
</mask>
<g mask="url(#mask4_224_13033)">
<path d="M111.853 25.277L113.424 9.22404C113.424 9.22404 94.096 6.21484 81.5458 6.21484C68.9938 6.21484 49.666 9.22404 49.666 9.22404L53.9362 52.9013C53.9362 59.0452 56.8958 64.3942 60.9654 68.909C61.5532 52.1485 69.2052 25.5171 111.853 25.277Z" fill="url(#paint26_linear_224_13033)"/>
</g>
<mask id="mask5_224_13033" style="mask-type:alpha" maskUnits="userSpaceOnUse" x="73" y="80" width="16" height="5">
<path d="M75.2642 80.2578C74.4681 80.2578 73.8242 80.9055 73.8242 81.701V82.7805C73.8242 83.5785 74.4675 84.2204 75.2642 84.2204H85.6439C86.3909 82.9422 87.231 81.643 88.1806 80.3266C88.0487 80.2877 87.9105 80.2578 87.7653 80.2578H75.2642Z" fill="url(#paint27_linear_224_13033)"/>
</mask>
<g mask="url(#mask5_224_13033)">
<path d="M75.2642 80.2578C74.4681 80.2578 73.8242 80.9055 73.8242 81.701V82.7805C73.8242 83.5785 74.4675 84.2204 75.2642 84.2204H85.6439C86.3909 82.9422 87.231 81.643 88.1806 80.3266C88.0487 80.2877 87.9105 80.2578 87.7653 80.2578H75.2642Z" fill="url(#paint28_linear_224_13033)"/>
</g>
<mask id="mask6_224_13033" style="mask-type:alpha" maskUnits="userSpaceOnUse" x="73" y="114" width="16" height="9">
<path d="M76.2229 114.949L73.0742 121.195C77.9195 122.899 83.1616 123.139 88.0834 121.774C87.1128 120.601 85.6575 118.642 84.2863 116.023C81.4554 117.079 79.0341 116.62 76.2229 114.949Z" fill="url(#paint29_linear_224_13033)"/>
</mask>
<g mask="url(#mask6_224_13033)">
<path d="M76.2229 114.949L73.0742 121.195C77.9195 122.899 83.1616 123.139 88.0834 121.774C87.1128 120.601 85.6575 118.642 84.2863 116.023C81.4554 117.079 79.0341 116.62 76.2229 114.949Z" fill="url(#paint30_linear_224_13033)"/>
</g>
<mask id="mask7_224_13033" style="mask-type:alpha" maskUnits="userSpaceOnUse" x="63" y="120" width="35" height="10">
<path d="M97.6869 122.055C97.4111 121.656 97.1366 121.263 96.8609 120.867C96.8609 120.858 96.6991 121.504 95.2751 122.118C86.6365 125.799 76.4498 125.799 67.8132 122.118C66.3885 121.503 66.2261 120.858 66.2261 120.867C65.6485 121.698 65.0695 122.526 64.4919 123.357C64.1741 123.81 62.9902 125.481 65.2402 126.474C70.346 128.649 75.9116 129.741 81.4766 129.75C84.4151 127.798 90.4393 124.191 97.6869 122.055Z" fill="url(#paint31_linear_224_13033)"/>
</mask>
<g mask="url(#mask7_224_13033)">
<path d="M97.6869 122.055C97.4111 121.656 97.1366 121.263 96.8609 120.867C96.8609 120.858 96.6991 121.504 95.2751 122.118C86.6365 125.799 76.4498 125.799 67.8132 122.118C66.3885 121.503 66.2261 120.858 66.2261 120.867C65.6485 121.698 65.0695 122.526 64.4919 123.357C64.1741 123.81 62.9902 125.481 65.2402 126.474C70.346 128.649 75.9116 129.741 81.4766 129.75C84.4151 127.798 90.4393 124.191 97.6869 122.055Z" fill="url(#paint32_linear_224_13033)"/>
</g>
<path d="M157.957 117.821C134.434 108.035 110.014 102.221 86.0202 101.84C86.0138 101.84 86.0068 101.84 86.0004 101.84C85.996 101.84 85.9883 101.84 85.9813 101.84C61.9879 102.221 37.5671 108.035 14.043 117.821C18.2431 121.79 20.3429 123.89 24.4259 127.391C44.1568 119.216 65.0531 114.965 86.0004 114.614C106.948 114.965 127.846 119.216 147.576 127.391C151.661 123.89 153.759 121.79 157.957 117.821Z" fill="url(#paint33_linear_224_13033)"/>
<path d="M56.5101 111.141C56.6406 110.733 56.8298 110.308 57.0756 109.866C57.4851 109.14 58.022 108.423 58.685 107.714C59.348 107.004 60.0574 106.418 60.8166 105.951C61.1465 105.737 61.484 105.558 61.8305 105.418C62.1757 105.275 62.5177 105.178 62.8533 105.125C62.9749 105.106 63.0915 105.094 63.2074 105.089C63.3214 105.087 63.4309 105.085 63.5373 105.087C63.8557 105.104 64.0971 105.197 64.2633 105.367C64.4296 105.536 64.5359 105.77 64.5843 106.07C64.6174 106.276 64.6232 106.511 64.6041 106.777C64.583 107.044 64.541 107.326 64.4735 107.624C64.4359 107.812 64.3958 108.006 64.3506 108.203C64.3054 108.403 64.2563 108.603 64.2009 108.802C64.171 108.913 64.1411 109.022 64.1111 109.133C64.0812 109.243 64.0493 109.348 64.0181 109.45C63.8799 109.912 63.7513 110.347 63.6296 110.753C63.508 111.16 63.429 111.487 63.3915 111.733L65.0862 111.462C65.0683 111.532 65.046 111.618 65.0187 111.716C64.9919 111.817 64.9601 111.937 64.9257 112.076C64.8957 112.253 64.8671 112.391 64.8403 112.492C64.8136 112.593 64.7849 112.665 64.7531 112.707C64.7365 112.729 64.72 112.746 64.7034 112.758C64.6856 112.771 64.6678 112.779 64.6499 112.782C64.641 112.783 64.6302 112.781 64.62 112.772C64.6111 112.773 64.6034 112.775 64.599 112.776C64.5945 112.776 64.5869 112.777 64.5779 112.779L62.9533 113.038C62.8934 113.201 62.8227 113.395 62.7431 113.617C62.6635 113.841 62.5814 114.073 62.496 114.317C62.4616 114.399 62.4285 114.482 62.3986 114.563C62.3686 114.643 62.3419 114.725 62.3164 114.805C62.2126 115.062 62.1107 115.29 62.0088 115.494C61.9069 115.696 61.8076 115.849 61.7089 115.951C61.6942 115.981 61.5949 116.018 61.4108 116.062C61.2261 116.107 61.028 116.15 60.8134 116.194C60.7039 116.22 60.5975 116.241 60.4937 116.258C60.3918 116.274 60.2975 116.289 60.2135 116.302C60.1402 116.315 60.0753 116.325 60.0243 116.332C59.9734 116.341 59.9345 116.348 59.9059 116.351C59.9581 116.266 60.0555 116.107 60.1956 115.874C60.3364 115.641 60.4835 115.382 60.6395 115.099C60.6606 115.048 60.6816 115.001 60.7039 114.959C60.7262 114.919 60.7516 114.875 60.7835 114.832C60.9707 114.448 61.1267 114.099 61.2497 113.789C61.3713 113.477 61.3802 113.316 61.272 113.303L60.5459 113.433C60.3963 113.458 60.3135 113.447 60.2969 113.402C60.2803 113.357 60.316 113.222 60.4045 112.997C60.4147 112.947 60.4313 112.893 60.451 112.838C60.4701 112.783 60.4899 112.724 60.5096 112.665C60.5217 112.625 60.5364 112.581 60.5529 112.535C60.5695 112.489 60.5841 112.451 60.5994 112.42C60.6262 112.349 60.6548 112.286 60.6848 112.234C60.7147 112.182 60.7478 112.153 60.7854 112.147L61.8356 111.979C61.884 111.856 61.933 111.729 61.9827 111.597C62.0337 111.465 62.0865 111.327 62.14 111.185C62.2222 110.922 62.3069 110.651 62.3903 110.369C62.4744 110.087 62.5552 109.802 62.6349 109.511C62.7368 109.131 62.8297 108.758 62.9151 108.389C62.9991 108.021 63.0756 107.684 63.1412 107.376C63.1488 107.365 63.1533 107.352 63.1565 107.338C63.1577 107.323 63.1596 107.312 63.1577 107.301C63.1679 107.251 63.18 107.202 63.1908 107.153C63.2029 107.103 63.2087 107.055 63.2106 107.006C63.2271 106.928 63.2361 106.85 63.2393 106.772C63.2405 106.695 63.2373 106.633 63.2297 106.587C63.2272 106.568 63.224 106.549 63.2208 106.53C63.2176 106.512 63.2119 106.498 63.1998 106.491C63.1864 106.465 63.1444 106.449 63.0705 106.446C62.9985 106.444 62.9068 106.451 62.7941 106.469C62.6068 106.499 62.3712 106.565 62.0865 106.669C61.8012 106.772 61.5165 106.922 61.2331 107.121C61.2153 107.133 61.2 107.142 61.1866 107.149C61.1732 107.156 61.158 107.166 61.142 107.178C61.1236 107.19 61.1045 107.203 61.0834 107.216C61.0611 107.229 61.0414 107.243 61.0248 107.254C60.6478 107.544 60.3268 107.824 60.06 108.098C59.7912 108.371 59.5397 108.659 59.3008 108.965C59.1493 109.161 58.9996 109.365 58.8525 109.575C58.7041 109.785 58.5481 110.015 58.3863 110.26C58.3653 110.302 58.3398 110.341 58.3131 110.379C58.2863 110.418 58.2602 110.457 58.2379 110.499C58.1946 110.583 58.1494 110.664 58.1048 110.744C58.0615 110.822 58.015 110.898 57.9698 110.973C57.8602 111.192 57.7736 111.397 57.7087 111.59C57.6443 111.782 57.6189 111.924 57.6335 112.018C57.6392 112.055 57.6482 112.082 57.6603 112.1C57.6724 112.117 57.6934 112.128 57.7233 112.133C57.7322 112.132 57.7443 112.132 57.7596 112.135C57.7749 112.138 57.7864 112.138 57.7953 112.136C57.8144 112.133 57.8309 112.133 57.8462 112.135C57.8596 112.138 57.8717 112.138 57.8825 112.136C58.0596 112.107 58.2424 112.01 58.4315 111.841C58.6194 111.672 58.8034 111.462 58.985 111.214C59.0958 111.071 59.2028 110.918 59.3059 110.753C59.4097 110.588 59.5085 110.422 59.6072 110.252C59.8619 109.82 60.0829 109.423 60.2644 109.064C60.4459 108.705 60.5644 108.515 60.6198 108.498C60.6287 108.496 60.672 108.559 60.7504 108.685C60.8268 108.811 60.9096 108.968 60.9962 109.156C61.035 109.216 61.0726 109.282 61.107 109.352C61.1427 109.424 61.1764 109.495 61.2057 109.567C61.2223 109.611 61.242 109.66 61.2643 109.708C61.2866 109.757 61.3063 109.805 61.3229 109.85C61.263 110.012 61.1548 110.238 61.0007 110.527C60.8446 110.815 60.6586 111.119 60.4427 111.44C60.2084 111.774 59.9447 112.102 59.6511 112.421C59.3569 112.741 59.0544 112.998 58.7391 113.192C58.6264 113.267 58.513 113.329 58.3958 113.375C58.2787 113.423 58.1602 113.462 58.0405 113.491C58.0316 113.492 58.0226 113.494 58.0137 113.495C58.0035 113.496 57.994 113.498 57.9851 113.5C57.9762 113.501 57.966 113.503 57.9564 113.503C57.9475 113.504 57.9386 113.506 57.9297 113.507C57.538 113.579 57.2316 113.54 57.0113 113.389C56.7909 113.237 56.6317 113.059 56.5317 112.855C56.491 112.775 56.4578 112.695 56.4356 112.612C56.4133 112.53 56.3967 112.45 56.3846 112.377C56.3814 112.358 56.377 112.336 56.3744 112.314C56.37 112.29 56.3668 112.269 56.3642 112.249C56.3298 111.92 56.3782 111.549 56.5101 111.141Z" fill="#8B3010"/>
<path d="M68.8479 109.341C68.6034 110.085 68.4085 110.684 68.2633 111.139C68.1404 111.535 68.0232 111.909 67.9124 112.261C67.8028 112.612 67.7353 112.846 67.7111 112.963C67.7035 112.973 67.699 112.984 67.7009 112.992C67.7022 113.012 67.7022 113.026 67.6996 113.036C67.6952 113.045 67.6952 113.06 67.6965 113.078C67.7009 113.106 67.7086 113.129 67.7194 113.147C67.7315 113.164 67.7551 113.171 67.7945 113.166C67.841 113.161 67.8952 113.14 67.9582 113.105C68.0194 113.068 68.1041 113.01 68.2085 112.931C68.4849 112.698 68.6868 112.52 68.8161 112.394C68.9435 112.269 69.053 112.158 69.1479 112.062C69.1549 112.052 69.1644 112.041 69.1715 112.031C69.1791 112.021 69.1836 112.01 69.1816 112.001C69.1906 111.999 69.1982 111.996 69.2027 111.991C69.2058 111.986 69.2128 111.979 69.2205 111.966C69.2383 111.956 69.246 111.945 69.246 111.935C69.2625 111.924 69.2778 111.91 69.2912 111.894C69.3033 111.879 69.3179 111.865 69.3358 111.854C69.3778 111.81 69.4217 111.792 69.4651 111.802C69.5084 111.81 69.5383 111.872 69.5517 111.984C69.5517 111.994 69.5549 112.01 69.5561 112.034C69.5593 112.058 69.5682 112.082 69.5803 112.109C69.5835 112.138 69.588 112.166 69.5905 112.194C69.5937 112.223 69.5982 112.256 69.6026 112.293C69.6058 112.32 69.6103 112.353 69.6147 112.391C69.6192 112.428 69.6173 112.463 69.6115 112.491C69.6128 112.586 69.6052 112.677 69.5873 112.766C69.5695 112.854 69.5256 112.935 69.46 113.01C69.3071 113.171 69.1511 113.321 68.9919 113.459C68.8333 113.597 68.6696 113.729 68.5027 113.853C68.3633 113.955 68.2257 114.051 68.0875 114.138C67.9506 114.227 67.8162 114.306 67.6812 114.38C67.6194 114.416 67.5264 114.453 67.4016 114.492C67.2774 114.531 67.1513 114.562 67.0207 114.588C67.0106 114.59 66.9997 114.59 66.9851 114.593C66.9717 114.594 66.9596 114.595 66.9507 114.595C66.838 114.609 66.7303 114.614 66.6297 114.606C66.5291 114.599 66.4418 114.572 66.3699 114.524C66.3087 114.483 66.2603 114.432 66.2304 114.369C66.1985 114.306 66.1794 114.241 66.1705 114.175C66.1571 114.062 66.1661 113.935 66.196 113.794C66.2272 113.652 66.2616 113.508 66.3023 113.359L66.2998 113.346C66.3278 113.266 66.352 113.187 66.3718 113.109C66.3915 113.029 66.4062 112.957 66.4163 112.889L66.4017 112.877C66.3412 112.932 66.2934 112.975 66.259 113.007L66.2603 113.022C66.2438 113.034 66.2253 113.047 66.2094 113.064C66.1909 113.08 66.1794 113.094 66.1705 113.105C66.154 113.126 66.1342 113.154 66.11 113.19C66.0858 113.226 66.0514 113.261 66.0081 113.295C65.9992 113.305 65.9916 113.319 65.9839 113.334C65.9763 113.349 65.9686 113.362 65.9597 113.371C65.9177 113.415 65.8756 113.451 65.8368 113.48C65.7979 113.508 65.7629 113.524 65.7362 113.527C65.7171 113.531 65.6973 113.48 65.675 113.378C65.654 113.276 65.6343 113.159 65.6184 113.028C65.6184 113.018 65.6171 113.012 65.6171 113.007C65.6158 113.001 65.6158 112.995 65.6139 112.984C65.5986 112.854 65.5884 112.734 65.5852 112.624C65.5808 112.515 65.5884 112.45 65.605 112.429C65.6381 112.387 65.6903 112.318 65.7655 112.224C65.8406 112.129 65.9228 112.029 66.0145 111.922C66.0986 111.826 66.175 111.735 66.2457 111.645C66.3157 111.556 66.3718 111.484 66.4138 111.432C66.4539 111.379 66.5144 111.303 66.594 111.204C66.6717 111.104 66.7577 111 66.8488 110.894C66.8577 110.885 66.8647 110.874 66.8743 110.862C66.8813 110.853 66.8902 110.841 66.8985 110.831C66.9883 110.706 67.0691 110.592 67.143 110.487C67.2163 110.384 67.2691 110.301 67.2991 110.241C67.308 110.23 67.3156 110.214 67.3233 110.195C67.329 110.176 67.3366 110.156 67.3443 110.135C67.3596 110.105 67.3742 110.067 67.3876 110.022C67.401 109.979 67.4143 109.936 67.4296 109.896C67.4551 109.799 67.4882 109.665 67.5245 109.499L68.8479 109.341ZM68.1098 108.373C67.9977 108.262 67.9225 108.133 67.885 107.986C67.8837 107.976 67.8837 107.969 67.8818 107.964C67.8818 107.959 67.8805 107.953 67.8805 107.943C67.8792 107.934 67.8773 107.925 67.8761 107.916C67.8761 107.906 67.8792 107.892 67.8856 107.871C67.8856 107.862 67.8843 107.853 67.8824 107.845C67.8812 107.834 67.8811 107.826 67.8792 107.816C67.8837 107.615 67.9544 107.427 68.0907 107.255C68.227 107.081 68.3817 106.97 68.5569 106.921C68.5658 106.919 68.5779 106.917 68.5932 106.916C68.6065 106.915 68.6231 106.912 68.6416 106.91C68.6518 106.908 68.6581 106.908 68.6639 106.907C68.6683 106.907 68.6741 106.905 68.6849 106.905C68.8919 106.889 69.0587 106.943 69.1829 107.066C69.3058 107.189 69.3797 107.345 69.402 107.532C69.4065 107.561 69.4096 107.589 69.4122 107.618C69.4154 107.645 69.4135 107.673 69.4096 107.703C69.402 107.733 69.3988 107.762 69.3975 107.791C69.3963 107.819 69.3886 107.849 69.3721 107.879C69.3313 108.017 69.2549 108.151 69.1422 108.278C69.0282 108.406 68.8696 108.482 68.6626 108.508C68.6537 108.509 68.6416 108.511 68.6269 108.512C68.6136 108.513 68.597 108.515 68.5785 108.518C68.3786 108.531 68.2238 108.482 68.1098 108.373Z" fill="#8B3010"/>
<path d="M70.6582 109.322C70.6162 109.23 70.5907 109.139 70.5831 109.044C70.5678 108.884 70.5933 108.728 70.6595 108.574C70.7257 108.421 70.8034 108.307 70.8907 108.232C70.9193 108.22 70.9429 108.206 70.9658 108.19C70.9881 108.173 71.0079 108.164 71.027 108.163C71.0735 108.15 71.1168 108.137 71.1594 108.129C71.2015 108.121 71.2416 108.113 71.2798 108.11C71.476 108.092 71.6454 108.127 71.7868 108.212C71.9275 108.299 72.0148 108.407 72.0466 108.537C72.06 108.584 72.0708 108.625 72.0797 108.662C72.0874 108.699 72.0931 108.737 72.0963 108.774C72.1128 108.838 72.1294 108.894 72.1472 108.941C72.1663 108.986 72.1905 109.021 72.2224 109.047C72.2313 109.047 72.2402 109.045 72.251 109.044C72.251 109.054 72.2568 109.059 72.2663 109.057C72.2944 109.054 72.3319 109.047 72.3771 109.032C72.4236 109.018 72.479 108.998 72.544 108.975C72.5994 108.96 72.6625 108.945 72.7312 108.928C72.8019 108.912 72.8688 108.901 72.935 108.895C73.0102 108.888 73.0853 108.888 73.163 108.895C73.2401 108.903 73.3133 108.927 73.3834 108.967C73.5324 109.039 73.6401 109.128 73.7076 109.236C73.7738 109.344 73.8184 109.462 73.8413 109.595C73.8439 109.632 73.8458 109.674 73.8458 109.722C73.8445 109.77 73.8369 109.814 73.8216 109.853C73.8171 109.9 73.8063 109.946 73.7916 109.991C73.777 110.034 73.7636 110.081 73.7483 110.13C73.6974 110.296 73.6356 110.474 73.5624 110.66C73.4904 110.847 73.4152 111.04 73.3388 111.238C73.3312 111.257 73.3235 111.273 73.3146 111.289C73.307 111.304 73.3038 111.322 73.3057 111.34C73.2204 111.538 73.1407 111.733 73.0688 111.924C72.9955 112.117 72.9293 112.292 72.8675 112.449C72.8688 112.458 72.8644 112.469 72.8567 112.478C72.8599 112.517 72.8777 112.55 72.9077 112.58C72.9395 112.611 72.9783 112.623 73.0261 112.618C73.0459 112.626 73.0618 112.627 73.0758 112.622C73.0892 112.615 73.1057 112.606 73.1242 112.596C73.1872 112.561 73.2783 112.5 73.3987 112.413C73.5191 112.327 73.6464 112.233 73.7783 112.136C73.805 112.104 73.8305 112.078 73.8579 112.058C73.8833 112.036 73.9152 112.015 73.9509 111.992C74.0649 111.896 74.168 111.799 74.2585 111.706C74.3502 111.612 74.4158 111.54 74.4591 111.487C74.4998 111.417 74.5342 111.369 74.5597 111.343C74.5852 111.316 74.6081 111.298 74.6259 111.286C74.6349 111.286 74.6457 111.287 74.6546 111.291C74.6648 111.295 74.6737 111.301 74.6845 111.31C74.6947 111.317 74.7055 111.326 74.7157 111.335C74.7259 111.343 74.7367 111.352 74.7476 111.361C74.7775 111.386 74.8074 111.449 74.8361 111.551C74.8648 111.653 74.8839 111.766 74.896 111.887C74.9049 111.992 74.9081 112.091 74.9023 112.186C74.8979 112.282 74.8724 112.351 74.8285 112.393C74.752 112.477 74.6616 112.566 74.5616 112.66C74.461 112.754 74.3546 112.85 74.2387 112.946C74.0037 113.16 73.735 113.359 73.4331 113.55C73.1331 113.739 72.8121 113.887 72.472 113.995C72.4166 114.019 72.3638 114.035 72.3128 114.046C72.26 114.055 72.2122 114.062 72.1644 114.067C71.9288 114.088 71.7352 114.04 71.5804 113.921C71.4276 113.802 71.3371 113.65 71.3104 113.462C71.3059 113.415 71.3091 113.364 71.318 113.312C71.3269 113.259 71.3346 113.208 71.339 113.16C71.4021 112.926 71.4696 112.701 71.5397 112.485C71.6091 112.271 71.6823 112.059 71.7575 111.852C71.8568 111.587 71.96 111.317 72.0664 111.041C72.1746 110.765 72.2842 110.465 72.3962 110.141C72.4039 110.131 72.4083 110.122 72.4071 110.111C72.4071 110.102 72.4058 110.093 72.4039 110.084C72.4007 110.047 72.3771 110.02 72.3332 110.005C72.2886 109.989 72.2345 109.986 72.1682 109.991C72.1491 109.995 72.1307 109.996 72.1116 109.998C72.0918 109.999 72.0695 110.007 72.0428 110.019C71.9874 110.034 71.932 110.055 71.8778 110.083C71.8237 110.112 71.7849 110.147 71.7594 110.187C71.7263 110.247 71.7027 110.29 71.6861 110.316C71.6696 110.342 71.6575 110.364 71.6505 110.384C71.6339 110.423 71.604 110.478 71.5588 110.549C71.5123 110.619 71.3925 110.782 71.1989 111.038C71.1314 111.129 71.0607 111.222 70.9888 111.314C70.9168 111.407 70.8416 111.498 70.7652 111.592C70.7232 111.643 70.6799 111.695 70.6378 111.747C70.5945 111.798 70.5525 111.85 70.5105 111.901C70.2615 112.19 70.0315 112.447 69.8188 112.671C69.6074 112.894 69.4615 113.029 69.3807 113.074C69.3431 113.087 69.3132 113.041 69.2877 112.933C69.2635 112.827 69.2456 112.697 69.231 112.548C69.231 112.538 69.2297 112.528 69.2278 112.519C69.2278 112.51 69.2265 112.501 69.2265 112.49C69.2132 112.359 69.2113 112.236 69.2208 112.122C69.2278 112.006 69.2488 111.928 69.2839 111.887C69.3877 111.782 69.4877 111.673 69.5806 111.561C69.6749 111.447 69.7634 111.334 69.8481 111.221C70.1704 110.803 70.5079 110.254 70.862 109.574C70.7678 109.497 70.7003 109.413 70.6582 109.322Z" fill="#8B3010"/>
<path d="M75.1121 110.741C75.1331 110.715 75.1586 110.693 75.1853 110.672C75.5827 110.229 75.9203 109.808 76.1979 109.406C76.4756 109.003 76.6692 108.701 76.7788 108.494C76.7788 108.485 76.7775 108.476 76.7775 108.466C76.7775 108.456 76.7762 108.447 76.7762 108.438C76.775 108.419 76.773 108.405 76.773 108.395C76.7686 108.32 76.7705 108.231 76.7775 108.133C76.7851 108.032 76.7998 107.935 76.8227 107.838C76.8648 107.607 76.9501 107.394 77.0794 107.197C77.208 106.998 77.3914 106.892 77.6264 106.877C77.8258 106.863 77.9716 106.925 78.0659 107.061C78.1589 107.198 78.2162 107.349 78.2372 107.518C78.2372 107.529 78.2391 107.538 78.2391 107.547C78.2404 107.556 78.2404 107.567 78.2404 107.575C78.2327 107.595 78.2283 107.61 78.2302 107.619C78.2302 107.628 78.2315 107.639 78.2315 107.647C78.2302 107.761 78.2149 107.858 78.1863 107.934C78.1576 108.012 78.1308 108.075 78.1054 108.124C78.0888 108.154 78.071 108.179 78.0544 108.198C78.0366 108.219 78.0232 108.243 78.0156 108.272C77.9997 108.293 77.9856 108.315 77.978 108.339C77.9704 108.363 77.9614 108.39 77.9538 108.419C77.9557 108.428 77.957 108.453 77.9602 108.497C77.9614 108.539 77.9659 108.593 77.9704 108.659C77.9735 108.716 77.978 108.782 77.9825 108.857C77.9869 108.933 77.9926 109.013 77.999 109.098C78.0016 109.154 78.0047 109.209 78.0092 109.26C78.0124 109.312 78.0149 109.366 78.0194 109.424C78.0315 109.631 78.0449 109.827 78.057 110.01C78.0691 110.195 78.0723 110.325 78.0672 110.4C78.0646 110.505 78.0595 110.624 78.0551 110.757C78.0493 110.891 78.036 111.025 78.0162 111.158C77.992 111.358 77.9551 111.552 77.9054 111.74C77.8557 111.929 77.7914 112.082 77.715 112.2C77.7717 112.216 77.8697 112.179 78.006 112.089C78.1423 111.999 78.2824 111.894 78.4264 111.771C78.4531 111.75 78.4805 111.729 78.5072 111.708C78.534 111.687 78.5569 111.667 78.5747 111.647C78.69 111.545 78.7964 111.45 78.8894 111.365C78.9843 111.278 79.0575 111.209 79.1116 111.158C79.1205 111.149 79.1295 111.139 79.1371 111.128C79.146 111.117 79.1549 111.108 79.1639 111.098C79.1817 111.088 79.2002 111.074 79.2173 111.059C79.2358 111.044 79.2492 111.031 79.2581 111.022C79.3135 110.999 79.3632 110.997 79.4084 111.018C79.4517 111.039 79.4817 111.111 79.4995 111.233C79.5116 111.271 79.5192 111.314 79.5224 111.367C79.525 111.418 79.5281 111.467 79.5313 111.515C79.539 111.619 79.5345 111.725 79.518 111.836C79.4995 111.946 79.4581 112.055 79.3887 112.163C79.1486 112.397 78.9416 112.586 78.7722 112.73C78.7091 112.781 78.6416 112.835 78.5684 112.893C78.4964 112.949 78.4244 112.999 78.3512 113.041C78.2882 113.083 78.227 113.121 78.1671 113.152C78.1066 113.185 78.05 113.212 77.9946 113.235C77.7455 113.346 77.5443 113.421 77.3914 113.458C77.2367 113.497 77.0947 113.519 76.9628 113.528C76.9431 113.53 76.9265 113.531 76.9132 113.531C76.8979 113.533 76.8813 113.535 76.8635 113.535C76.8246 113.537 76.7858 113.542 76.7437 113.549C76.7017 113.557 76.6565 113.563 76.6087 113.566C76.5336 113.57 76.4705 113.581 76.4196 113.599C76.3686 113.617 76.3247 113.637 76.2871 113.658L76.2737 113.659C76.2381 113.681 76.196 113.7 76.1495 113.716C76.103 113.734 76.0432 113.745 75.9661 113.749C75.9005 113.754 75.8177 113.749 75.7171 113.737C75.6165 113.724 75.4859 113.704 75.3229 113.677C75.2363 113.654 75.1579 113.608 75.086 113.536C75.0159 113.466 74.9586 113.388 74.9153 113.305C74.8924 113.26 74.8764 113.215 74.8643 113.173C74.8522 113.132 74.8446 113.092 74.8433 113.054C74.842 113.035 74.8401 113.023 74.8401 113.019C74.8401 113.014 74.8389 113.007 74.8389 112.998C74.8401 112.884 74.872 112.806 74.9299 112.765C74.9885 112.723 75.056 112.699 75.1312 112.695C75.1789 112.691 75.2242 112.691 75.2662 112.693C75.3095 112.695 75.3503 112.7 75.3891 112.707C75.5311 112.716 75.6426 112.728 75.7248 112.742C75.8063 112.756 75.8751 112.761 75.9317 112.756C75.9406 112.756 75.9496 112.756 75.9604 112.755C75.9693 112.755 75.9789 112.754 75.989 112.754C76.0247 112.742 76.0591 112.73 76.0922 112.719C76.1253 112.707 76.1578 112.686 76.1941 112.655C76.3126 112.581 76.4119 112.43 76.4922 112.202C76.5718 111.975 76.638 111.737 76.6871 111.486C76.7145 111.305 76.7336 111.132 76.7469 110.971C76.759 110.809 76.7622 110.672 76.7565 110.558C76.7501 110.483 76.7431 110.425 76.731 110.383C76.7176 110.341 76.7023 110.32 76.6826 110.322C76.6361 110.315 76.5011 110.439 76.2807 110.689C76.0604 110.939 75.8171 111.222 75.5534 111.532C75.535 111.543 75.5203 111.558 75.5069 111.578C75.4936 111.599 75.4789 111.613 75.4604 111.624C75.2923 111.823 75.1293 112.009 74.9701 112.181C74.8108 112.353 74.6726 112.49 74.5561 112.591C74.5198 112.612 74.493 112.577 74.4784 112.484C74.4631 112.389 74.4516 112.277 74.4427 112.144C74.4415 112.116 74.4395 112.091 74.4383 112.067C74.437 112.042 74.4338 112.017 74.4319 111.989C74.4243 111.875 74.423 111.764 74.4243 111.657C74.4274 111.547 74.4319 111.478 74.4395 111.448C74.4376 111.421 74.4682 111.376 74.5313 111.314C74.5943 111.254 74.6605 111.188 74.7319 111.116C74.7395 111.107 74.7497 111.101 74.7586 111.101C74.8108 111.041 74.865 110.987 74.9191 110.94C74.9732 110.895 75.0121 110.856 75.0395 110.826C75.0662 110.794 75.0898 110.766 75.1121 110.741Z" fill="#8B3010"/>
<path d="M82.169 105.449C82.2576 105.148 82.3493 104.887 82.4435 104.665C82.5053 104.521 82.5652 104.393 82.6282 104.281C82.6894 104.17 82.7467 104.075 82.8008 103.997C82.8186 103.968 82.8416 103.937 82.8683 103.902C82.8951 103.868 82.9224 103.836 82.9492 103.806C82.9938 103.748 83.0466 103.697 83.1071 103.651C83.167 103.607 83.2237 103.569 83.2791 103.537C83.3077 103.518 83.3332 103.506 83.3555 103.5C83.3791 103.494 83.4046 103.491 83.4332 103.49C83.4421 103.49 83.4498 103.488 83.4542 103.488C83.4606 103.488 83.4663 103.488 83.4772 103.488C83.5803 103.493 83.6676 103.539 83.7383 103.626C83.8077 103.714 83.8446 103.833 83.851 103.985C83.8523 104.023 83.8523 104.06 83.8485 104.098C83.8453 104.137 83.8408 104.179 83.8332 104.227C83.8179 104.35 83.788 104.494 83.7434 104.656C83.6969 104.819 83.6447 104.986 83.5861 105.16C83.5682 105.208 83.5549 105.253 83.5415 105.296C83.5294 105.338 83.5147 105.385 83.4982 105.433C83.4205 105.644 83.3498 105.834 83.2867 106.008C83.2224 106.181 83.1772 106.316 83.153 106.41L83.8058 106.385C83.8612 106.383 83.9064 106.416 83.9363 106.487C83.9676 106.555 83.9905 106.643 84.0038 106.747C84.0051 106.766 84.0051 106.789 84.0064 106.817C84.0077 106.845 84.0038 106.869 83.9943 106.889C83.9809 107.011 83.9446 107.127 83.8879 107.234C83.8306 107.34 83.7453 107.394 83.6313 107.399L82.8524 107.43C82.6983 107.834 82.5136 108.321 82.2989 108.893C82.0843 109.464 81.8627 110.072 81.6328 110.714C81.5818 110.857 81.5309 111.005 81.4799 111.153C81.429 111.302 81.378 111.449 81.3271 111.592C81.2921 111.678 81.2685 111.757 81.2583 111.829C81.2462 111.899 81.2417 111.96 81.243 112.006C81.2462 112.073 81.2596 112.122 81.285 112.155C81.3093 112.187 81.3405 112.201 81.378 112.2C81.4169 112.199 81.4589 112.188 81.5054 112.167C81.5519 112.146 81.6073 112.116 81.6716 112.075C81.7181 112.045 81.7659 112.014 81.8168 111.983C81.8678 111.954 81.9162 111.924 81.9627 111.894C82.2849 111.663 82.5416 111.449 82.732 111.253C82.9224 111.055 83.0606 110.928 83.1428 110.868C83.1517 110.857 83.1606 110.852 83.1695 110.852C83.1785 110.842 83.1874 110.837 83.1976 110.836C83.2441 110.835 83.2893 110.878 83.3294 110.966C83.3714 111.055 83.3937 111.164 83.4001 111.296C83.4001 111.307 83.4001 111.316 83.4014 111.325C83.4014 111.335 83.4014 111.344 83.4014 111.354C83.4026 111.363 83.4001 111.375 83.3969 111.389C83.3925 111.403 83.3905 111.421 83.3905 111.439C83.3937 111.496 83.3905 111.562 83.3848 111.638C83.3784 111.715 83.353 111.791 83.3084 111.868C83.3007 111.896 83.2886 111.924 83.2765 111.948C83.2632 111.972 83.2466 111.994 83.2288 112.014C83.1746 112.073 83.067 112.167 82.9059 112.296C82.7454 112.425 82.5594 112.56 82.348 112.701C82.2639 112.752 82.1856 112.804 82.1123 112.853C82.0372 112.904 81.9595 112.949 81.8754 112.989C81.6729 113.11 81.4736 113.214 81.278 113.297C81.0819 113.381 80.9182 113.435 80.7877 113.458C80.7501 113.469 80.7138 113.475 80.6813 113.477C80.6482 113.478 80.6182 113.48 80.5896 113.481C80.324 113.49 80.1259 113.439 79.9941 113.327C79.8623 113.213 79.7884 113.082 79.7718 112.931C79.7718 112.911 79.7718 112.897 79.7699 112.888C79.7699 112.878 79.7744 112.864 79.7833 112.845C79.782 112.836 79.7846 112.824 79.7878 112.809C79.7922 112.796 79.7935 112.783 79.7935 112.773C79.8922 112.382 79.9769 112.073 80.0482 111.848C80.1202 111.623 80.1635 111.467 80.1788 111.382L80.1368 111.383C79.9807 111.54 79.8266 111.694 79.6719 111.842C79.5171 111.991 79.3662 112.133 79.2203 112.271C79.1649 112.311 79.1216 112.277 79.0885 112.17C79.0554 112.062 79.0375 111.933 79.0318 111.782C79.0305 111.762 79.0305 111.744 79.0286 111.725C79.0286 111.706 79.0273 111.687 79.0273 111.668C79.0305 111.536 79.0458 111.413 79.0694 111.297C79.0936 111.183 79.128 111.111 79.1745 111.081C79.2299 111.04 79.3496 110.925 79.5356 110.733C79.7234 110.541 79.9196 110.326 80.1279 110.092C80.1546 110.053 80.1852 110.019 80.2164 109.989C80.2482 109.959 80.2775 109.925 80.3049 109.885C80.4953 109.67 80.6647 109.465 80.8131 109.27C80.9622 109.075 81.0564 108.923 81.0997 108.818C81.1176 108.779 81.1475 108.698 81.1895 108.574C81.2316 108.449 81.2736 108.314 81.3156 108.17C81.3245 108.161 81.329 108.151 81.329 108.142C81.3799 107.998 81.4264 107.862 81.4685 107.732C81.5105 107.602 81.536 107.519 81.5436 107.48L80.7367 107.512C80.6991 107.513 80.6692 107.49 80.6482 107.439C80.6272 107.386 80.6151 107.324 80.6125 107.248C80.6106 107.21 80.6125 107.171 80.6157 107.134C80.6189 107.096 80.6246 107.053 80.6323 107.004C80.6546 106.882 80.6985 106.766 80.7596 106.659C80.8227 106.553 80.9048 106.498 81.0087 106.493L81.9296 106.457C82.0028 106.087 82.0824 105.751 82.169 105.449Z" fill="#8B3010"/>
<path d="M88.3917 107.666C88.528 107.379 88.663 107.107 88.7981 106.847C89.1502 106.181 89.4878 105.624 89.812 105.177C90.1349 104.726 90.4253 104.371 90.6832 104.109C90.9023 103.873 91.1691 103.679 91.4844 103.528C91.799 103.376 92.1174 103.294 92.4397 103.281C92.4683 103.273 92.5002 103.268 92.5327 103.27C92.5658 103.272 92.6014 103.273 92.639 103.276C92.9116 103.288 93.1791 103.365 93.437 103.504C93.6969 103.644 93.9128 103.864 94.0885 104.166C94.2038 104.35 94.2815 104.614 94.3223 104.958C94.363 105.3 94.3745 105.66 94.3586 106.038C94.3567 106.066 94.3554 106.098 94.3541 106.131C94.3528 106.164 94.3509 106.198 94.3497 106.236C94.3318 106.396 94.3153 106.553 94.2987 106.709C94.2821 106.866 94.2567 107.008 94.2223 107.138C94.1745 107.354 94.1147 107.579 94.0421 107.812C93.9701 108.046 93.8815 108.278 93.7765 108.509C93.437 109.289 92.9441 109.997 92.2945 110.635C91.6449 111.272 90.8723 111.566 89.9756 111.515C89.8151 111.498 89.689 111.422 89.596 111.285C89.5031 111.149 89.4591 110.999 89.4668 110.838C89.4744 110.678 89.5356 110.529 89.6496 110.393C89.7648 110.257 89.9406 110.189 90.1775 110.191C90.3291 110.187 90.5017 110.149 90.6934 110.072C90.887 109.996 91.0863 109.877 91.292 109.717C91.5773 109.482 91.8595 109.145 92.1333 108.704C92.4097 108.262 92.6403 107.686 92.8231 106.974C92.8804 106.76 92.9237 106.559 92.9504 106.37C92.9772 106.183 92.9957 106.013 93.0027 105.862C93.0211 105.446 92.9715 105.142 92.853 104.947C92.7326 104.752 92.5753 104.65 92.3773 104.641C92.2722 104.636 92.1626 104.654 92.0474 104.696C91.9321 104.738 91.8162 104.8 91.6977 104.88C91.5614 104.968 91.4264 105.085 91.2914 105.231C91.1577 105.375 91.029 105.54 90.9074 105.724C90.6838 106.054 90.466 106.418 90.2533 106.815C90.0419 107.212 89.8451 107.611 89.6667 108.008C89.4776 108.407 89.3082 108.799 89.1585 109.186C89.0082 109.571 88.8821 109.933 88.7821 110.269C88.7159 110.475 88.6758 110.635 88.6611 110.754C88.6458 110.871 88.6312 110.982 88.6172 111.085L88.6159 111.099C88.6127 111.175 88.6057 111.25 88.5917 111.325C88.5783 111.4 88.5599 111.493 88.5363 111.605C88.5019 111.727 88.458 111.863 88.4045 112.012C88.3503 112.16 88.2905 112.315 88.2274 112.473C88.1841 112.583 88.1389 112.693 88.0911 112.799C88.0446 112.906 87.9937 113.011 87.9427 113.111C87.9109 113.167 87.8822 113.221 87.8568 113.272C87.8313 113.323 87.8033 113.371 87.7714 113.418C87.6995 113.556 87.6186 113.674 87.5281 113.774C87.4383 113.875 87.3498 113.956 87.2613 114.018C87.1836 114.072 87.1116 114.107 87.0441 114.128C86.9766 114.149 86.9148 114.158 86.8582 114.155C86.7352 114.149 86.6333 114.091 86.5537 113.978C86.4741 113.865 86.4397 113.696 86.4486 113.47C86.4518 113.413 86.4576 113.35 86.4652 113.278C86.4728 113.207 86.4894 113.136 86.5104 113.061C86.5671 112.855 86.6709 112.506 86.8225 112.011C86.9728 111.515 87.1403 110.994 87.3269 110.443C87.3492 110.379 87.3734 110.313 87.4001 110.249C87.4256 110.184 87.4511 110.114 87.4734 110.039C87.5606 109.778 87.6504 109.521 87.7421 109.271C87.8351 109.019 87.9192 108.791 87.9943 108.587C88.123 108.26 88.2548 107.954 88.3917 107.666Z" fill="#8B3010"/>
<path d="M95.4912 109.402C95.5422 109.293 95.5899 109.183 95.6371 109.072C95.7415 108.834 95.8498 108.59 95.9657 108.338C96.0797 108.086 96.2058 107.799 96.3453 107.478C96.3905 107.387 96.4325 107.297 96.4726 107.21C96.5115 107.122 96.5491 107.038 96.5854 106.956C96.5866 106.937 96.5898 106.923 96.5956 106.914C96.6 106.905 96.6076 106.896 96.6178 106.887C96.7675 106.539 96.9356 106.16 97.1191 105.752C97.3018 105.345 97.5585 104.793 97.8884 104.097C97.9559 103.96 98.0381 103.858 98.1387 103.79C98.2393 103.722 98.3412 103.683 98.4476 103.672C98.4565 103.664 98.4686 103.659 98.4839 103.66C98.4973 103.662 98.5093 103.662 98.5189 103.664C98.6329 103.672 98.7335 103.717 98.822 103.8C98.9106 103.884 98.9539 103.995 98.9526 104.137C98.9513 104.157 98.9494 104.178 98.9462 104.202C98.9443 104.224 98.9431 104.245 98.9418 104.265C98.9252 104.472 98.8787 104.719 98.7991 105.007C98.7195 105.295 98.6253 105.592 98.5157 105.896C98.445 106.09 98.3686 106.276 98.2877 106.454C98.2081 106.633 98.1272 106.803 98.0489 106.968C98.0247 107.024 97.9992 107.077 97.9725 107.126C97.9438 107.177 97.9202 107.224 97.8973 107.27C97.7101 107.596 97.563 107.854 97.4534 108.045C97.342 108.237 97.2388 108.418 97.1401 108.591C97.1299 108.609 97.121 108.627 97.1146 108.645C97.1089 108.664 97.0993 108.682 97.0891 108.7C97.0668 108.736 97.0484 108.771 97.0305 108.802C97.014 108.834 96.9949 108.868 96.9732 108.904C96.9401 108.968 96.907 109.03 96.8745 109.088C96.8401 109.147 96.807 109.208 96.7739 109.272C96.507 109.783 96.2637 110.281 96.0466 110.767C95.8275 111.253 95.6625 111.684 95.5473 112.066C95.5352 112.101 95.5243 112.137 95.5173 112.169C95.5097 112.202 95.5052 112.232 95.5039 112.261C95.4982 112.336 95.5141 112.393 95.5549 112.429C95.5938 112.464 95.6689 112.459 95.7772 112.41C95.9453 112.319 96.116 112.22 96.2905 112.115C96.4644 112.01 96.6369 111.899 96.8076 111.779C96.907 111.72 97.0044 111.659 97.0987 111.595C97.1948 111.531 97.2859 111.47 97.3757 111.41C97.4356 111.377 97.4776 111.411 97.5031 111.512C97.5286 111.614 97.5356 111.74 97.5241 111.891C97.5209 111.919 97.5196 111.95 97.5165 111.982C97.5133 112.015 97.5101 112.052 97.5088 112.089C97.491 112.182 97.4623 112.275 97.4216 112.366C97.3808 112.458 97.3318 112.535 97.2687 112.596C97.0751 112.771 96.8726 112.919 96.6586 113.04C96.4459 113.161 96.2313 113.269 96.0154 113.367C95.8383 113.439 95.6632 113.501 95.4887 113.553C95.3135 113.607 95.1479 113.655 94.9938 113.7C94.9155 113.713 94.8422 113.724 94.7703 113.733C94.6983 113.74 94.6295 113.742 94.5633 113.738C94.3468 113.722 94.1837 113.649 94.0755 113.522C93.9659 113.396 93.9181 113.256 93.9296 113.105C93.9309 113.078 93.9341 113.05 93.936 113.028C93.9372 113.004 93.9436 112.983 93.9551 112.965C94.006 112.779 94.0691 112.596 94.1398 112.417C94.2105 112.237 94.2869 112.047 94.3691 111.844V111.831C94.3601 111.83 94.3557 111.825 94.3569 111.816C94.2671 111.875 94.1799 111.93 94.0946 111.98C94.0105 112.031 93.9283 112.08 93.8487 112.131C93.8385 112.14 93.8277 112.149 93.8188 112.158C93.8086 112.167 93.7933 112.175 93.7736 112.182C93.7437 112.21 93.7048 112.236 93.6596 112.266C93.615 112.296 93.5679 112.328 93.5169 112.363C93.4883 112.379 93.466 112.35 93.4526 112.279C93.4392 112.207 93.4316 112.129 93.4284 112.043C93.4297 112.023 93.4297 112.004 93.4252 111.986C93.4227 111.966 93.4207 111.947 93.4227 111.927C93.4239 111.909 93.4252 111.895 93.4271 111.885C93.4271 111.876 93.4284 111.867 93.4284 111.856C93.4386 111.849 93.4449 111.84 93.4449 111.83C93.4462 111.821 93.4462 111.812 93.4481 111.802C93.4494 111.773 93.4539 111.747 93.4602 111.725C93.4679 111.701 93.4723 111.675 93.4736 111.647C93.4736 111.638 93.4755 111.626 93.4762 111.612C93.4774 111.598 93.4774 111.587 93.4793 111.577C93.4946 111.503 93.5137 111.428 93.5392 111.355C93.5634 111.28 93.6054 111.223 93.6672 111.179C93.7462 111.119 93.8379 111.05 93.9385 110.972C94.0391 110.896 94.1398 110.818 94.2417 110.74C94.2716 110.714 94.3015 110.687 94.3334 110.662C94.3633 110.637 94.3932 110.609 94.4244 110.584C94.5448 110.49 94.6601 110.394 94.7665 110.298C94.8728 110.202 94.9626 110.114 95.0365 110.034C95.0556 110.018 95.0785 109.999 95.104 109.976C95.1295 109.955 95.1537 109.929 95.1747 109.904C95.1836 109.904 95.1925 109.899 95.2034 109.892C95.2135 109.883 95.2199 109.873 95.2199 109.864C95.2498 109.837 95.2753 109.813 95.2963 109.791C95.3174 109.77 95.3339 109.749 95.3447 109.731C95.3906 109.623 95.439 109.512 95.4912 109.402Z" fill="#8B3010"/>
<path d="M101.456 113.081C101.465 113.082 101.474 113.083 101.484 113.084C101.558 113.102 101.72 113.048 101.972 112.922C102.222 112.796 102.491 112.644 102.776 112.466C102.857 112.416 102.936 112.369 103.013 112.319C103.089 112.271 103.164 112.217 103.236 112.158C103.247 112.149 103.262 112.139 103.283 112.127C103.303 112.114 103.318 112.104 103.329 112.097C103.42 112.03 103.483 112.048 103.515 112.152C103.547 112.254 103.554 112.386 103.538 112.547C103.535 112.575 103.532 112.602 103.529 112.631C103.525 112.66 103.522 112.684 103.521 112.701C103.503 112.776 103.483 112.845 103.462 112.91C103.441 112.974 103.419 113.028 103.395 113.074C103.348 113.163 103.263 113.252 103.138 113.339C103.015 113.426 102.875 113.509 102.714 113.585C102.631 113.635 102.552 113.678 102.471 113.717C102.391 113.756 102.306 113.795 102.216 113.832C102.128 113.87 102.039 113.91 101.954 113.954C101.868 113.997 101.786 114.038 101.706 114.077C101.576 114.14 101.442 114.189 101.304 114.226C101.167 114.264 101.033 114.287 100.899 114.291C100.851 114.295 100.805 114.297 100.763 114.297C100.719 114.298 100.674 114.296 100.628 114.291C100.581 114.285 100.536 114.279 100.494 114.268C100.452 114.259 100.413 114.249 100.377 114.235C100.358 114.232 100.336 114.228 100.314 114.222C100.291 114.214 100.27 114.205 100.253 114.193C100.188 114.177 100.142 114.115 100.116 114.007C100.089 113.901 100.083 113.781 100.097 113.649C100.098 113.64 100.098 113.631 100.1 113.621C100.101 113.611 100.101 113.603 100.103 113.594C100.105 113.584 100.105 113.574 100.105 113.565C100.107 113.556 100.107 113.546 100.109 113.537C100.067 113.57 100.023 113.606 99.9768 113.643C99.9284 113.682 99.8807 113.716 99.8297 113.749C99.6858 113.848 99.51 113.931 99.303 114C99.096 114.069 98.8184 114.088 98.4687 114.061C98.4598 114.059 98.4509 114.058 98.442 114.058C98.4318 114.056 98.4229 114.055 98.414 114.055C98.1032 114.022 97.8287 113.89 97.5917 113.66C97.3548 113.431 97.2268 113.101 97.2064 112.67C97.2001 112.537 97.2001 112.411 97.2033 112.292C97.2064 112.174 97.2122 112.067 97.223 111.972C97.2485 111.739 97.2905 111.545 97.3491 111.395C97.4077 111.243 97.472 111.101 97.544 110.966C97.5784 110.912 97.6128 110.86 97.6459 110.806C97.6803 110.753 97.7147 110.695 97.751 110.632C97.8083 110.533 97.8981 110.431 98.0185 110.326C98.1395 110.22 98.2821 110.113 98.4458 110.006C98.7821 109.795 99.1826 109.606 99.6476 109.436C100.112 109.267 100.588 109.174 101.074 109.161C101.151 109.159 101.229 109.161 101.31 109.164C101.389 109.168 101.467 109.173 101.542 109.182C101.562 109.183 101.578 109.185 101.592 109.186C101.607 109.188 101.624 109.189 101.642 109.192C101.651 109.192 101.666 109.194 101.684 109.197C101.703 109.199 101.717 109.2 101.727 109.201C101.756 109.205 101.782 109.207 101.811 109.21C101.84 109.214 101.868 109.217 101.897 109.219C101.935 109.222 101.969 109.23 102.002 109.237C102.034 109.246 102.068 109.25 102.107 109.256C102.266 109.272 102.412 109.296 102.542 109.323C102.671 109.352 102.749 109.382 102.775 109.413C102.782 109.433 102.79 109.476 102.796 109.543C102.803 109.611 102.808 109.682 102.809 109.758C102.803 109.815 102.799 109.872 102.799 109.929C102.797 109.987 102.794 110.028 102.791 110.057C102.788 110.083 102.785 110.111 102.784 110.133C102.781 110.157 102.784 110.18 102.791 110.199C102.788 110.228 102.785 110.254 102.782 110.276C102.781 110.3 102.778 110.32 102.776 110.34C102.77 110.396 102.759 110.441 102.747 110.472C102.734 110.503 102.705 110.512 102.659 110.499C102.64 110.496 102.606 110.481 102.557 110.453C102.507 110.423 102.442 110.39 102.36 110.352C102.279 110.306 102.182 110.266 102.066 110.229C101.952 110.193 101.822 110.168 101.682 110.153C101.673 110.152 101.664 110.15 101.655 110.15C101.644 110.148 101.637 110.148 101.632 110.147C101.628 110.147 101.62 110.145 101.611 110.145C101.461 110.129 101.295 110.13 101.112 110.148C100.928 110.168 100.744 110.205 100.558 110.261C100.148 110.369 99.7571 110.549 99.3884 110.8C99.019 111.052 98.784 111.348 98.6802 111.688C98.6591 111.8 98.6381 111.902 98.619 111.995C98.5993 112.088 98.5859 112.172 98.5783 112.248C98.5426 112.492 98.556 112.665 98.6158 112.765C98.6757 112.867 98.7585 112.923 98.8617 112.935C98.8993 112.938 98.94 112.938 98.9833 112.933C99.0266 112.929 99.0674 112.923 99.1062 112.917C99.1559 112.904 99.2037 112.887 99.2527 112.869C99.3024 112.851 99.3476 112.83 99.389 112.804C99.4189 112.789 99.4495 112.772 99.4788 112.758C99.5087 112.741 99.5393 112.726 99.5686 112.71C99.7514 112.606 99.9246 112.484 100.086 112.344C100.248 112.204 100.411 112.044 100.572 111.861C100.693 111.721 100.816 111.569 100.943 111.402C101.069 111.234 101.205 111.05 101.351 110.846C101.36 110.847 101.369 110.85 101.378 110.856C101.387 110.862 101.396 110.869 101.405 110.88C101.441 110.894 101.485 110.91 101.535 110.93C101.586 110.949 101.64 110.963 101.695 110.969C101.713 110.979 101.736 110.987 101.764 110.99C101.793 110.993 101.816 110.996 101.835 110.997C101.863 111 101.893 111.003 101.926 111.008C101.959 111.011 101.995 111.013 102.033 111.018C102.136 111.028 102.232 111.039 102.322 111.05C102.41 111.059 102.484 111.066 102.539 111.072C102.27 111.538 102.026 111.942 101.804 112.284C101.582 112.627 101.459 112.865 101.437 112.995C101.435 113.004 101.433 113.016 101.432 113.03C101.431 113.045 101.435 113.056 101.442 113.067L101.456 113.081Z" fill="#8B3010"/>
<path d="M108.492 112.878C108.51 112.996 108.509 113.124 108.489 113.264C108.487 113.273 108.486 113.283 108.484 113.292C108.483 113.301 108.481 113.311 108.48 113.32C108.47 113.404 108.456 113.481 108.441 113.552C108.428 113.62 108.408 113.673 108.384 113.708C108.371 113.734 108.356 113.76 108.338 113.787C108.32 113.813 108.299 113.84 108.277 113.865C108.199 113.949 108.068 114.036 107.889 114.126C107.709 114.214 107.456 114.343 107.128 114.506C106.871 114.633 106.547 114.734 106.154 114.807C105.762 114.882 105.356 114.89 104.934 114.831C104.785 114.81 104.629 114.776 104.468 114.73C104.308 114.684 104.15 114.63 103.997 114.572C103.952 114.546 103.898 114.511 103.832 114.47C103.766 114.427 103.696 114.368 103.621 114.29C103.538 114.192 103.465 114.072 103.398 113.93C103.332 113.787 103.3 113.61 103.301 113.4C103.302 113.382 103.304 113.359 103.302 113.336C103.301 113.311 103.302 113.282 103.308 113.244C103.308 113.176 103.311 113.1 103.317 113.016C103.324 112.931 103.335 112.838 103.35 112.734C103.369 112.593 103.398 112.445 103.434 112.287C103.47 112.129 103.518 111.975 103.578 111.82C103.632 111.638 103.712 111.462 103.815 111.296C103.919 111.13 104.047 110.979 104.2 110.847C104.242 110.816 104.285 110.781 104.329 110.744C104.371 110.707 104.42 110.668 104.473 110.628C104.686 110.477 104.929 110.334 105.206 110.201C105.482 110.067 105.796 109.973 106.148 109.916C106.332 109.895 106.52 109.879 106.713 109.874C106.904 109.866 107.093 109.876 107.281 109.902C107.517 109.926 107.734 109.988 107.935 110.086C108.136 110.185 108.301 110.326 108.429 110.506C108.451 110.547 108.466 110.595 108.474 110.649C108.48 110.702 108.479 110.766 108.468 110.841C108.459 110.907 108.442 110.977 108.417 111.056C108.391 111.134 108.365 111.213 108.333 111.294C108.301 111.386 108.262 111.476 108.217 111.566C108.171 111.654 108.124 111.734 108.077 111.803C108.027 111.882 107.982 111.95 107.94 112.006C107.9 112.062 107.863 112.098 107.832 112.113L106.863 111.978C106.733 111.96 106.661 111.94 106.65 111.919C106.638 111.898 106.672 111.836 106.755 111.733C106.765 111.715 106.781 111.7 106.797 111.689C106.813 111.677 106.825 111.663 106.838 111.645C106.897 111.567 106.941 111.487 106.973 111.405C107.003 111.324 107.025 111.231 107.039 111.129C107.041 111.119 107.042 111.112 107.042 111.108C107.044 111.103 107.044 111.096 107.045 111.087C107.062 110.974 107.046 110.89 107.002 110.836C106.956 110.782 106.888 110.749 106.793 110.735C106.729 110.726 106.653 110.728 106.564 110.74C106.477 110.752 106.383 110.774 106.284 110.807C106.005 110.884 105.764 111.01 105.558 111.187C105.351 111.362 105.181 111.551 105.049 111.752C104.952 111.901 104.876 112.048 104.823 112.193C104.769 112.339 104.734 112.473 104.717 112.594C104.664 112.969 104.679 113.24 104.76 113.409C104.842 113.578 104.946 113.69 105.072 113.746C105.099 113.759 105.131 113.771 105.166 113.78C105.204 113.791 105.241 113.798 105.279 113.804C105.306 113.808 105.333 113.812 105.355 113.815C105.38 113.818 105.401 113.816 105.422 113.809C105.448 113.813 105.47 113.816 105.485 113.818C105.498 113.819 105.51 113.822 105.52 113.822C105.669 113.843 105.83 113.84 106.001 113.812C106.172 113.783 106.348 113.739 106.529 113.677C106.699 113.625 106.872 113.556 107.051 113.471C107.229 113.386 107.402 113.302 107.565 113.221C107.711 113.136 107.851 113.055 107.985 112.978C108.12 112.902 108.245 112.832 108.358 112.773C108.429 112.727 108.475 112.761 108.492 112.878Z" fill="#8B3010"/>
<path d="M113.354 113.742C113.364 113.848 113.358 113.968 113.337 114.098C113.334 114.117 113.329 114.137 113.327 114.161C113.322 114.184 113.318 114.21 113.313 114.238C113.286 114.338 113.252 114.436 113.207 114.529C113.162 114.622 113.119 114.685 113.075 114.715C112.988 114.778 112.887 114.839 112.777 114.903C112.665 114.966 112.547 115.029 112.421 115.094C112.065 115.264 111.651 115.402 111.179 115.51C110.705 115.616 110.229 115.634 109.752 115.564C109.593 115.537 109.437 115.496 109.284 115.441C109.129 115.387 108.978 115.322 108.827 115.249C108.434 115.02 108.224 114.745 108.197 114.424C108.17 114.103 108.191 113.709 108.26 113.241C108.257 113.202 108.26 113.162 108.266 113.12C108.274 113.077 108.281 113.034 108.288 112.988C108.364 112.492 108.613 112.041 109.036 111.639C109.457 111.236 110.049 110.936 110.813 110.738C111.062 110.675 111.303 110.636 111.536 110.622C111.768 110.61 111.983 110.619 112.18 110.652C112.552 110.715 112.84 110.858 113.042 111.078C113.245 111.3 113.315 111.592 113.254 111.955C113.245 112.011 113.234 112.068 113.226 112.123C113.217 112.179 113.197 112.239 113.167 112.301C113.057 112.608 112.854 112.863 112.555 113.067C112.256 113.271 111.945 113.436 111.616 113.563C111.484 113.609 111.356 113.646 111.236 113.679C111.116 113.712 111 113.737 110.893 113.756C110.653 113.812 110.451 113.839 110.29 113.834C110.126 113.831 109.993 113.825 109.889 113.818C109.823 113.816 109.763 113.815 109.709 113.816C109.656 113.816 109.608 113.828 109.568 113.849C109.516 113.868 109.492 113.903 109.493 113.951C109.494 114.001 109.518 114.056 109.565 114.123C109.617 114.208 109.707 114.295 109.836 114.384C109.965 114.474 110.118 114.532 110.295 114.562C110.313 114.565 110.33 114.568 110.345 114.571C110.358 114.572 110.37 114.571 110.383 114.562C110.4 114.565 110.417 114.568 110.43 114.571C110.446 114.572 110.456 114.575 110.466 114.577C110.579 114.586 110.799 114.556 111.128 114.488C111.456 114.419 111.81 114.31 112.19 114.163C112.375 114.09 112.559 114.006 112.743 113.911C112.927 113.818 113.1 113.713 113.264 113.597C113.313 113.586 113.343 113.634 113.354 113.742ZM110.928 112.728C111.338 112.605 111.626 112.452 111.791 112.269C111.826 112.227 111.855 112.187 111.876 112.148C111.897 112.107 111.91 112.07 111.917 112.032C111.924 111.986 111.922 111.938 111.912 111.887C111.902 111.837 111.877 111.79 111.836 111.746C111.805 111.702 111.768 111.666 111.725 111.639C111.681 111.614 111.63 111.595 111.575 111.585C111.482 111.57 111.379 111.575 111.265 111.599C111.149 111.621 111.03 111.657 110.907 111.704C110.679 111.809 110.451 111.954 110.223 112.141C109.994 112.327 109.814 112.53 109.682 112.748C109.667 112.774 109.656 112.799 109.648 112.821C109.639 112.843 109.628 112.867 109.614 112.894C110.081 112.906 110.52 112.851 110.928 112.728Z" fill="#8B3010"/>
<path d="M125.444 111.215L125.47 113.204L127.404 113.675L125.52 114.311L125.673 116.297L124.482 114.704L122.643 115.46L123.79 113.837L122.502 112.322L124.4 112.913L125.444 111.215Z" fill="#8B3010"/>
<path d="M136.043 114.102L135.863 116.085L137.736 116.753L135.797 117.192L135.743 119.178L134.726 117.471L132.818 118.035L134.129 116.538L133.001 114.897L134.831 115.68L136.043 114.102Z" fill="#8B3010"/>
<path d="M145.03 117.773L144.906 119.759L146.798 120.372L144.874 120.87L144.875 122.856L143.808 121.178L141.92 121.793L143.185 120.26L142.012 118.652L143.862 119.385L145.03 117.773Z" fill="#8B3010"/>
<path d="M46.9675 111.215L46.9421 113.204L45.0117 113.675L46.8924 114.311L46.7408 116.297L47.9305 114.704L49.7698 115.46L48.6221 113.837L49.9105 112.322L48.0114 112.913L46.9675 111.215Z" fill="#8B3010"/>
<path d="M36.3699 114.102L36.5495 116.085L34.6758 116.753L36.6157 117.192L36.6692 119.178L37.6863 117.471L39.5962 118.035L38.2868 116.538L39.4116 114.897L37.5818 115.68L36.3699 114.102Z" fill="#8B3010"/>
<path d="M27.3819 117.773L27.5035 119.759L25.6133 120.372L27.5398 120.87L27.5366 122.856L28.6034 121.178L30.493 121.793L29.2288 120.26L30.4 118.652L28.5505 119.385L27.3819 117.773Z" fill="#8B3010"/>
<path d="M158.999 77.5234L150.296 88.4294L155.223 101.486L143.568 109.154L144.198 123.095L130.739 126.788L127.049 140.247L113.107 139.615L105.436 151.273L92.3825 146.346L81.4759 155.046L70.57 146.346L57.5164 151.273L49.8453 139.615L35.9034 140.241L32.2139 126.788L18.7547 123.095L19.3846 109.154L7.7287 101.486L12.6567 88.4294L3.95312 77.5234L12.6567 66.6168L7.7287 53.5599L19.3846 45.8921L18.7547 31.9502L32.2139 28.2575L35.9034 14.8015L49.8453 15.4315L57.5164 3.77224L70.57 8.70348L81.4759 0L92.3825 8.70348L105.436 3.77224L113.107 15.4315L127.049 14.8015L130.739 28.2575L144.198 31.9535L143.568 45.8921L155.223 53.5599L150.296 66.6168L158.999 77.5234Z" fill="url(#paint34_linear_224_13033)"/>
<path d="M158.031 89.7407L147.718 99.1354L150.526 112.807L137.807 118.545L136.231 132.413L122.36 133.934L116.591 146.64L102.925 143.824L93.5157 154.13L81.3993 147.203L69.2581 154.078L59.86 143.762L46.192 146.576L40.4527 133.854L26.5884 132.278L25.0642 118.404L12.3582 112.641L15.175 98.9724L4.87109 89.5593L11.796 77.4461L4.91998 65.305L15.2337 55.9068L12.4254 42.2357L25.1445 36.497L26.7175 22.6353L40.5916 21.1112L46.3609 8.40185L60.0256 11.2219L69.4361 0.917969L81.5525 7.84552L93.6937 0.967568L103.092 11.2807L116.76 8.47295L122.498 21.1913L136.363 22.767L137.887 36.6418L150.596 42.4045L147.777 56.0725L158.081 65.483L151.159 77.5994L158.031 89.7407Z" fill="url(#paint35_linear_224_13033)"/>
<path d="M152.262 175.474L119.682 163.809L104.662 194.986L62.9082 93.1249L110.502 73.6133L152.262 175.474Z" fill="url(#paint36_linear_224_13033)"/>
<mask id="mask8_224_13033" style="mask-type:alpha" maskUnits="userSpaceOnUse" x="65" y="90" width="44" height="103">
<path d="M105.985 192.187L108.689 186.573L69.3032 90.5L65.0176 92.2576L105.985 192.187Z" fill="url(#paint37_linear_224_13033)"/>
</mask>
<g mask="url(#mask8_224_13033)">
<path d="M105.987 192.19L108.691 186.577L69.3051 90.5039L65.0195 92.2615L105.987 192.19Z" fill="url(#paint38_linear_224_13033)"/>
</g>
<mask id="mask9_224_13033" style="mask-type:alpha" maskUnits="userSpaceOnUse" x="104" y="74" width="46" height="101">
<path d="M149.284 174.443L143.422 172.345L104.037 76.2687L108.319 74.5117L149.284 174.443Z" fill="url(#paint39_linear_224_13033)"/>
</mask>
<g mask="url(#mask9_224_13033)">
<path d="M149.282 174.443L143.42 172.345L104.035 76.2687L108.317 74.5117L149.282 174.443Z" fill="url(#paint40_linear_224_13033)"/>
</g>
<path d="M10.6934 175.474L43.2703 163.809L58.2903 194.986L100.044 93.1249L52.4499 73.6133L10.6934 175.474Z" fill="url(#paint41_linear_224_13033)"/>
<mask id="mask10_224_13033" style="mask-type:alpha" maskUnits="userSpaceOnUse" x="54" y="90" width="44" height="103">
<path d="M56.9664 192.187L54.2598 186.573L93.6456 90.5L97.9312 92.2576L56.9664 192.187Z" fill="url(#paint42_linear_224_13033)"/>
</mask>
<g mask="url(#mask10_224_13033)">
<path d="M56.9683 192.19L54.2617 186.577L93.6476 90.5039L97.9332 92.2615L56.9683 192.19Z" fill="url(#paint43_linear_224_13033)"/>
</g>
<mask id="mask11_224_13033" style="mask-type:alpha" maskUnits="userSpaceOnUse" x="13" y="74" width="46" height="101">
<path d="M13.666 174.443L19.5338 172.345L58.919 76.2687L54.6334 74.5117L13.666 174.443Z" fill="url(#paint44_linear_224_13033)"/>
</mask>
<g mask="url(#mask11_224_13033)">
<path d="M13.666 174.443L19.5338 172.345L58.919 76.2687L54.6334 74.5117L13.666 174.443Z" fill="url(#paint45_linear_224_13033)"/>
</g>
<path d="M81.4758 142.445C117.331 142.445 146.397 113.38 146.397 77.5253C146.397 41.6711 117.331 12.6055 81.4758 12.6055C45.6208 12.6055 16.5547 41.6711 16.5547 77.5253C16.5547 113.38 45.6208 142.445 81.4758 142.445Z" fill="white"/>
<path d="M81.4765 140.647C46.669 140.647 18.3555 112.328 18.3555 77.5234C18.3555 42.7185 46.6684 14.4023 81.4765 14.4023C116.284 14.4023 144.598 42.7185 144.598 77.5234C144.598 112.328 116.285 140.647 81.4765 140.647ZM81.4765 16.0394C47.5749 16.0394 19.9931 43.6212 19.9931 77.5228C19.9931 111.424 47.5749 139.006 81.4765 139.006C115.378 139.006 142.96 111.424 142.96 77.5228C142.96 43.6218 115.378 16.0394 81.4765 16.0394Z" fill="url(#paint46_linear_224_13033)"/>
<path d="M81.4762 17.9531C48.5763 17.9531 21.9062 44.6226 21.9062 77.523C21.9062 110.423 48.5757 137.096 81.4762 137.096C114.376 137.096 141.045 110.423 141.045 77.523C141.046 44.6226 114.377 17.9531 81.4762 17.9531ZM81.4762 118.77C58.6957 118.77 40.229 100.303 40.229 77.523C40.229 54.7426 58.6957 36.2758 81.4762 36.2758C104.257 36.2758 122.723 54.7433 122.723 77.523C122.723 100.303 104.257 118.77 81.4762 118.77Z" fill="url(#paint47_linear_224_13033)"/>
<path d="M38.1309 43.3986L41.0253 39.9961L42.5722 41.3123L41.3866 42.7053L42.8521 43.951L43.9073 42.7099L45.3761 43.9601L44.3208 45.2013L47.5668 47.962L45.8567 49.9714L38.1309 43.3986Z" fill="#3C2415"/>
<path d="M46.0517 35.2773L52.749 42.8943L50.7677 44.6363L44.0703 37.0187L46.0517 35.2773Z" fill="#3C2415"/>
<path d="M49.9492 32.2189L51.536 31.2361C52.5945 30.58 53.3348 30.1762 53.76 30.0255C54.1859 29.8749 54.6202 29.8952 55.0644 30.0843C55.5085 30.2734 55.9579 30.7351 56.4131 31.4695C56.8292 32.1406 57.0261 32.6434 57.0014 32.978C56.9785 33.3113 56.7353 33.6543 56.2749 34.0039C56.7862 33.8382 57.1749 33.8011 57.4423 33.8905C57.7097 33.9811 57.9092 34.0913 58.0429 34.2237C58.1766 34.3542 58.4577 34.7676 58.8895 35.4635L60.2995 37.737L58.2164 39.0291L56.4411 36.164C56.1548 35.7016 55.9416 35.4394 55.8001 35.3742C55.6586 35.3083 55.4342 35.3728 55.1257 35.5633L57.5356 39.451L55.2926 40.8396L49.9492 32.2189ZM53.1059 32.305L54.2928 34.2218C54.5446 34.0653 54.6998 33.9205 54.7585 33.7887C54.8165 33.6563 54.7292 33.402 54.4924 33.0211L54.1989 32.5476C54.03 32.2743 53.8702 32.125 53.7195 32.1008C53.5695 32.076 53.3635 32.1432 53.1059 32.305Z" fill="#3C2415"/>
<path d="M65.8111 27.8096L63.518 28.6699L63.2539 27.9648C63.1306 27.6374 63.023 27.4392 62.9298 27.37C62.8378 27.3022 62.7236 27.2951 62.5854 27.3453C62.438 27.4007 62.3473 27.5037 62.3167 27.6537C62.286 27.8031 62.3167 28.0007 62.4106 28.2486C62.5287 28.5649 62.6611 28.7879 62.8072 28.9164C62.9487 29.0455 63.2545 29.1531 63.7228 29.2359C65.067 29.476 65.9605 29.7525 66.4033 30.0623C66.8455 30.3747 67.2407 30.9949 67.589 31.9256C67.8427 32.6032 67.9516 33.1315 67.9132 33.5111C67.8747 33.892 67.6693 34.2748 67.2975 34.6616C66.9258 35.0483 66.4372 35.3561 65.8353 35.5818C65.1746 35.8296 64.5635 35.9151 64.0026 35.8414C63.4404 35.7657 63.0145 35.5615 62.7263 35.2283C62.4361 34.895 62.1582 34.3726 61.8908 33.6617L61.6573 33.0395L63.9524 32.1793L64.3854 33.3363C64.5185 33.6911 64.6359 33.9076 64.7389 33.9859C64.8419 34.0629 64.9756 34.0719 65.14 34.0087C65.3043 33.9474 65.4029 33.8385 65.4335 33.6787C65.4655 33.5189 65.4335 33.3128 65.3383 33.0578C65.1296 32.4989 64.9157 32.1624 64.6992 32.0469C64.4781 31.9334 63.985 31.7906 63.22 31.6185C62.453 31.4417 61.9358 31.2988 61.6665 31.1893C61.3978 31.0803 61.1382 30.8879 60.8851 30.6121C60.6334 30.3368 60.4117 29.9468 60.2225 29.4433C59.9493 28.7148 59.8429 28.1481 59.903 27.7425C59.963 27.3368 60.1638 26.9605 60.5068 26.6148C60.8505 26.2711 61.3162 25.9881 61.9032 25.7689C62.5436 25.5276 63.1286 25.4265 63.6589 25.465C64.1891 25.5035 64.585 25.6522 64.8492 25.9118C65.1153 26.1713 65.3885 26.678 65.6709 27.4326L65.8111 27.8096Z" fill="#3C2415"/>
<path d="M74.8212 22.7461L75.1688 24.7444L73.6251 25.0131L75.0149 33.007L72.416 33.4583L71.0274 25.4644L69.4895 25.7318L69.1426 23.7315L74.8212 22.7461Z" fill="#3C2415"/>
<path d="M84.9499 22.4609L87.59 22.7544C88.3028 22.834 88.8468 22.9514 89.2185 23.106C89.589 23.2592 89.8602 23.4549 90.0298 23.6864C90.1987 23.9199 90.3018 24.1899 90.337 24.499C90.3709 24.8075 90.354 25.2777 90.2835 25.9091L90.1864 26.7862C90.1147 27.43 89.996 27.8924 89.8297 28.1722C89.6653 28.4513 89.3952 28.6515 89.0235 28.7696C88.6498 28.8876 88.1783 28.9157 87.6057 28.8511L86.9026 28.7728L86.4506 32.8327L83.8301 32.5425L84.9499 22.4609ZM87.3793 24.4768L87.0937 27.0439C87.1674 27.0563 87.232 27.0654 87.2855 27.0713C87.5268 27.0973 87.7002 27.0576 87.8065 26.948C87.9141 26.8404 87.9878 26.5997 88.0289 26.226L88.1208 25.3977C88.1593 25.054 88.13 24.8232 88.0329 24.7064C87.9376 24.5916 87.7191 24.5153 87.3793 24.4768Z" fill="#3C2415"/>
<path d="M97.7588 24.8607L95.4703 32.6439L97.0094 33.0972L96.4361 35.0447L92.3672 33.8486L95.229 24.1172L97.7588 24.8607Z" fill="#3C2415"/>
<path d="M107.933 29.1313L104.712 38.866L102.305 37.6522L103 35.961L102.158 35.5358L101.194 37.0919L98.7598 35.8645L104.53 27.4141L107.933 29.1313ZM103.748 34.3247C104.147 33.2388 104.667 31.9097 105.308 30.3405C104.194 31.9534 103.404 33.1455 102.938 33.9151L103.748 34.3247Z" fill="#3C2415"/>
<path d="M115.161 39.4983L113.082 37.8757L114.167 36.4851C114.483 36.0814 114.658 35.8127 114.692 35.6771C114.726 35.5421 114.666 35.4162 114.515 35.2975C114.343 35.1638 114.187 35.1391 114.047 35.2258C113.905 35.3119 113.676 35.5558 113.36 35.9614L110.46 39.6744C110.157 40.0631 109.982 40.335 109.936 40.4902C109.888 40.6435 109.947 40.7838 110.108 40.9096C110.262 41.0309 110.411 41.0512 110.551 40.9697C110.69 40.8881 110.933 40.6272 111.275 40.1896L112.06 39.1833L114.139 40.8073L113.896 41.119C113.25 41.9473 112.733 42.4879 112.346 42.7423C111.959 42.9973 111.463 43.099 110.859 43.0462C110.257 42.994 109.661 42.7403 109.076 42.2825C108.468 41.8064 108.052 41.3042 107.829 40.7753C107.606 40.2457 107.583 39.7357 107.759 39.2452C107.936 38.7554 108.33 38.1176 108.941 37.3343L110.765 34.9995C111.215 34.4236 111.573 34.0075 111.837 33.7492C112.101 33.4929 112.436 33.307 112.84 33.1935C113.244 33.0794 113.679 33.0814 114.146 33.1994C114.613 33.3175 115.072 33.5529 115.522 33.9057C116.135 34.3838 116.548 34.8964 116.762 35.4436C116.975 35.9921 117.006 36.491 116.856 36.943C116.705 37.3943 116.338 37.9924 115.754 38.7385L115.161 39.4983Z" fill="#3C2415"/>
<path d="M121.448 39.5039L124.357 42.802L122.835 44.1442L121.671 42.8248L120.228 44.0966L121.317 45.3318L119.871 46.6082L118.78 45.3736L117.109 46.8482L118.388 48.3013L116.866 49.6442L113.842 46.2136L121.448 39.5039Z" fill="#3C2415"/>
<path d="M46.1614 109.035L49.2242 112.287L47.7463 113.678L46.4928 112.346L45.0918 113.666L46.2104 114.852L44.8049 116.175L43.6883 114.989L40.5872 117.911L38.7793 115.991L46.1614 109.035Z" fill="#3C2415"/>
<path d="M53.2987 115.705L46.9366 123.605L44.8828 121.951L51.2457 114.051L53.2987 115.705Z" fill="#3C2415"/>
<path d="M55.7485 117.535L57.3659 118.466C58.446 119.087 59.1523 119.549 59.4856 119.852C59.8208 120.154 60.0093 120.546 60.0523 121.027C60.0967 121.508 59.9029 122.122 59.4731 122.871C59.0786 123.557 58.7296 123.967 58.4238 124.105C58.1179 124.242 57.7018 124.191 57.1749 123.951C57.5636 124.323 57.7813 124.649 57.8296 124.926C57.8753 125.203 57.874 125.432 57.8218 125.611C57.7677 125.791 57.5375 126.235 57.1305 126.944L55.7974 129.263L53.6732 128.043L55.3532 125.121C55.6239 124.649 55.7544 124.337 55.7453 124.182C55.7342 124.027 55.573 123.859 55.258 123.679L52.9786 127.643L50.6914 126.329L55.7485 117.535ZM57.1696 120.355L56.0452 122.31C56.3015 122.458 56.5031 122.526 56.6472 122.515C56.79 122.504 56.9727 122.304 57.1957 121.917L57.4736 121.433C57.6347 121.153 57.6901 120.943 57.6412 120.799C57.5903 120.655 57.4338 120.508 57.1696 120.355Z" fill="#3C2415"/>
<path d="M67.7546 126.399L65.4413 125.593L65.6885 124.884C65.8052 124.552 65.8483 124.33 65.8209 124.218C65.7935 124.108 65.7119 124.028 65.5737 123.98C65.423 123.928 65.288 123.95 65.1699 124.045C65.0499 124.14 64.9469 124.312 64.8595 124.561C64.7493 124.88 64.7075 125.137 64.7382 125.329C64.7643 125.519 64.9299 125.796 65.2378 126.16C66.1163 127.205 66.6263 127.988 66.7678 128.51C66.9074 129.033 66.8154 129.763 66.488 130.701C66.25 131.385 65.9936 131.859 65.7217 132.127C65.4497 132.394 65.0453 132.559 64.5125 132.617C63.9777 132.677 63.4077 132.6 62.7999 132.389C62.1327 132.155 61.609 131.831 61.2255 131.415C60.8427 130.997 60.6463 130.569 60.6353 130.128C60.6261 129.686 60.7455 129.107 60.9959 128.389L61.2157 127.762L63.529 128.569L63.1221 129.733C62.9962 130.093 62.9486 130.335 62.978 130.46C63.0073 130.586 63.1051 130.676 63.2714 130.735C63.4371 130.792 63.5832 130.77 63.709 130.669C63.8349 130.566 63.9425 130.388 64.0319 130.132C64.2288 129.568 64.2804 129.172 64.1871 128.945C64.0899 128.717 63.803 128.292 63.3249 127.67C62.8488 127.043 62.543 126.602 62.4066 126.347C62.2697 126.091 62.1933 125.777 62.1744 125.404C62.1562 125.03 62.2364 124.588 62.4144 124.08C62.6695 123.348 62.9506 122.843 63.2564 122.568C63.5617 122.295 63.9569 122.135 64.4421 122.091C64.926 122.045 65.4654 122.125 66.0563 122.332C66.7033 122.556 67.2178 122.855 67.6 123.222C67.9828 123.59 68.1929 123.959 68.23 124.328C68.2666 124.696 68.1531 125.262 67.8876 126.022L67.7546 126.399Z" fill="#3C2415"/>
<path d="M76.9253 125.032L76.6058 127.036L75.0607 126.789L73.7844 134.801L71.1789 134.387L72.4552 126.374L70.9141 126.13L71.2336 124.125L76.9253 125.032Z" fill="#3C2415"/>
<path d="M83.9453 125.179L86.5861 124.889C87.3002 124.812 87.8546 124.808 88.2511 124.877C88.6476 124.948 88.9541 125.078 89.17 125.268C89.3865 125.458 89.5464 125.701 89.6475 125.995C89.7492 126.288 89.8333 126.75 89.9025 127.382L89.9989 128.259C90.0694 128.903 90.0538 129.379 89.9527 129.689C89.8529 129.998 89.6331 130.251 89.2952 130.448C88.9587 130.645 88.5028 130.773 87.9296 130.836L87.2259 130.913L87.67 134.974L85.0495 135.261L83.9453 125.179ZM86.7569 126.617L87.038 129.182C87.1137 129.179 87.1783 129.173 87.2317 129.169C87.4711 129.141 87.6328 129.064 87.7124 128.935C87.7939 128.807 87.8135 128.556 87.7724 128.183L87.6817 127.354C87.6432 127.009 87.565 126.791 87.4469 126.698C87.3263 126.606 87.0961 126.58 86.7569 126.617Z" fill="#3C2415"/>
<path d="M94.8027 123.242L96.9947 131.053L98.5385 130.62L99.0869 132.574L95.0042 133.72L92.2637 123.955L94.8027 123.242Z" fill="#3C2415"/>
<path d="M103.199 119.848L108.936 128.347L106.503 129.51L105.59 127.926L104.739 128.333L105.38 130.047L102.921 131.223L99.7598 121.492L103.199 119.848ZM104.751 126.334C104.135 125.354 103.402 124.131 102.551 122.663C103.147 124.531 103.606 125.886 103.932 126.726L104.751 126.334Z" fill="#3C2415"/>
<path d="M114.16 117.869L112.032 119.43L110.989 118.009C110.687 117.596 110.475 117.355 110.353 117.284C110.233 117.216 110.095 117.238 109.94 117.351C109.765 117.48 109.701 117.623 109.743 117.783C109.787 117.943 109.963 118.229 110.265 118.643L113.053 122.44C113.345 122.838 113.559 123.081 113.695 123.167C113.832 123.253 113.982 123.236 114.147 123.115C114.305 122.999 114.363 122.863 114.323 122.705C114.283 122.548 114.098 122.243 113.769 121.795L113.015 120.768L115.141 119.207L115.374 119.526C115.996 120.373 116.377 121.017 116.517 121.458C116.657 121.9 116.621 122.404 116.406 122.971C116.193 123.537 115.787 124.041 115.188 124.48C114.564 124.938 113.969 125.202 113.398 125.273C112.829 125.344 112.333 125.229 111.909 124.926C111.485 124.623 110.978 124.07 110.39 123.27L108.637 120.88C108.204 120.291 107.9 119.834 107.725 119.51C107.548 119.185 107.461 118.814 107.461 118.394C107.461 117.975 107.581 117.555 107.822 117.137C108.062 116.721 108.414 116.343 108.875 116.004C109.502 115.545 110.107 115.287 110.692 115.23C111.277 115.173 111.765 115.277 112.159 115.545C112.552 115.813 113.03 116.328 113.589 117.092L114.16 117.869Z" fill="#3C2415"/>
<path d="M113.639 112.358L116.683 109.184L118.147 110.589L116.928 111.86L118.317 113.191L119.457 112.002L120.85 113.339L119.709 114.528L121.318 116.071L122.659 114.674L124.123 116.079L120.957 119.38L113.639 112.358Z" fill="#3C2415"/>
<path opacity="0.5" d="M90.5254 95.535V45.7564L89.3977 44.7305L78.4363 45.7564L78.3072 46.0271C76.8906 49.0376 74.9002 51.6027 72.3964 53.6519C69.8835 55.7069 66.286 57.4978 61.7082 58.973L61.3796 59.0742L60.252 70.2507L61.3796 71.274L61.994 71.0868C65.1584 70.1249 67.8336 69.0964 69.9415 68.0392C71.8094 67.0994 73.7602 65.8856 75.7448 64.4293V95.535H62.74L61.6156 109.289L62.74 110.315H102.693V95.535L101.569 94.5091L90.5254 95.535Z" fill="#BCBEC0"/>
<path d="M88.9214 94.9824V45.207H77.6125C76.1561 48.2945 74.1408 50.8935 71.5692 52.9981C68.9976 55.0962 65.3819 56.8996 60.7305 58.3989V69.6062C63.8825 68.6507 66.5063 67.6398 68.5985 66.5892C70.6907 65.5352 72.8567 64.1591 75.093 62.4602V94.9824H62.0915V108.81H101.093V94.9824H88.9214Z" fill="url(#paint48_linear_224_13033)"/>
<path d="M101.57 109.289H61.6156V94.509H74.6171V63.4093C72.6358 64.863 70.685 66.0728 68.8139 67.0133C66.706 68.0731 64.0334 69.099 60.8696 70.0636L60.252 70.2507V58.0515L60.5832 57.9471C65.161 56.4758 68.752 54.6816 71.2714 52.6233C73.7751 50.5774 75.763 48.0182 77.1789 45.0044L77.3081 44.7305H89.3971V94.509H101.569V109.289H101.57ZM62.5653 108.34H100.617V95.458H88.4488V45.6794H77.9113C76.4426 48.7023 74.4116 51.283 71.8713 53.3629C69.3245 55.4394 65.7395 57.2519 61.2048 58.7422V68.96C64.0496 68.0724 66.4647 67.1293 68.3874 66.1608C70.4457 65.1284 72.6058 63.7523 74.8082 62.0781L75.5699 61.497V95.4566H62.5653V108.34Z" fill="url(#paint49_linear_224_13033)"/>
<defs>
<linearGradient id="paint0_linear_224_13033" x1="171.749" y1="135.072" x2="141.432" y2="104.472" gradientUnits="userSpaceOnUse">
<stop stop-color="#FFF799"/>
<stop offset="0.1037" stop-color="#FFD773"/>
<stop offset="0.218" stop-color="#FDBB4E"/>
<stop offset="0.2788" stop-color="#FBB040"/>
<stop offset="1" stop-color="#C55C18"/>
</linearGradient>
<linearGradient id="paint1_linear_224_13033" x1="149.022" y1="125.201" x2="140.946" y2="99.9873" gradientUnits="userSpaceOnUse">
<stop stop-color="#C55C18"/>
<stop offset="0.7212" stop-color="#FBB040"/>
<stop offset="0.782" stop-color="#FDBB4E"/>
<stop offset="0.8963" stop-color="#FFD773"/>
<stop offset="1" stop-color="#FFF799"/>
</linearGradient>
<linearGradient id="paint2_linear_224_13033" x1="29.2304" y1="102.922" x2="5.43062" y2="131.539" gradientUnits="userSpaceOnUse">
<stop stop-color="#C55C18"/>
<stop offset="0.7212" stop-color="#FBB040"/>
<stop offset="0.782" stop-color="#FDBB4E"/>
<stop offset="0.8963" stop-color="#FFD773"/>
<stop offset="1" stop-color="#FFF799"/>
</linearGradient>
<linearGradient id="paint3_linear_224_13033" x1="22.6838" y1="126.478" x2="31.1542" y2="99.4915" gradientUnits="userSpaceOnUse">
<stop stop-color="#C55C18"/>
<stop offset="0.7212" stop-color="#FBB040"/>
<stop offset="0.782" stop-color="#FDBB4E"/>
<stop offset="0.8963" stop-color="#FFD773"/>
<stop offset="1" stop-color="#FFF799"/>
</linearGradient>
<linearGradient id="paint4_linear_224_13033" x1="81.5444" y1="166.99" x2="81.5444" y2="142.221" gradientUnits="userSpaceOnUse">
<stop stop-color="#3E0500"/>
<stop offset="1" stop-color="#72281A"/>
</linearGradient>
<linearGradient id="paint5_linear_224_13033" x1="81.5439" y1="130.925" x2="81.5439" y2="125.312" gradientUnits="userSpaceOnUse">
<stop stop-color="#3E0500"/>
<stop offset="1" stop-color="#72281A"/>
</linearGradient>
<linearGradient id="paint6_linear_224_13033" x1="81.5444" y1="173.062" x2="81.5444" y2="169.924" gradientUnits="userSpaceOnUse">
<stop stop-color="#3E0500"/>
<stop offset="1" stop-color="#72281A"/>
</linearGradient>
<linearGradient id="paint7_linear_224_13033" x1="63.6441" y1="139.39" x2="100.721" y2="160.9" gradientUnits="userSpaceOnUse">
<stop stop-color="#C55C18"/>
<stop offset="0.5394" stop-color="#FBB040"/>
<stop offset="1" stop-color="#FFF799"/>
</linearGradient>
<linearGradient id="paint8_linear_224_13033" x1="86.0003" y1="146.044" x2="64.914" y2="163.663" gradientUnits="userSpaceOnUse">
<stop stop-color="white"/>
<stop offset="0.1466" stop-color="#C4C4C4"/>
<stop offset="0.6364"/>
</linearGradient>
<linearGradient id="paint9_linear_224_13033" x1="86.0023" y1="146.044" x2="64.9159" y2="163.663" gradientUnits="userSpaceOnUse">
<stop stop-color="white"/>
<stop offset="0.6364" stop-color="white"/>
</linearGradient>
<radialGradient id="paint10_radial_224_13033" cx="0" cy="0" r="1" gradientUnits="userSpaceOnUse" gradientTransform="translate(120.996 36.2838) scale(22.4463 22.4463)">
<stop stop-color="#FFF799"/>
<stop offset="0.5091" stop-color="#FBB040"/>
<stop offset="1" stop-color="#C55C18"/>
</radialGradient>
<radialGradient id="paint11_radial_224_13033" cx="0" cy="0" r="1" gradientUnits="userSpaceOnUse" gradientTransform="translate(114.068 13.4771) scale(7.51546 7.51546)">
<stop stop-color="#FFF799"/>
<stop offset="0.5091" stop-color="#FBB040"/>
<stop offset="1" stop-color="#C55C18"/>
</radialGradient>
<radialGradient id="paint12_radial_224_13033" cx="0" cy="0" r="1" gradientUnits="userSpaceOnUse" gradientTransform="translate(119.756 36.6827) scale(16.7303 16.7303)">
<stop stop-color="#FFF799"/>
<stop offset="0.5091" stop-color="#FBB040"/>
<stop offset="1" stop-color="#C55C18"/>
</radialGradient>
<linearGradient id="paint13_linear_224_13033" x1="111.687" y1="34.2677" x2="134.942" y2="49.2509" gradientUnits="userSpaceOnUse">
<stop stop-color="white"/>
<stop offset="0.0557" stop-color="#DDDDDD"/>
<stop offset="0.1933" stop-color="#909090"/>
<stop offset="0.316" stop-color="#525252"/>
<stop offset="0.4192" stop-color="#262626"/>
<stop offset="0.4989" stop-color="#0A0A0A"/>
<stop offset="0.5455"/>
</linearGradient>
<linearGradient id="paint14_linear_224_13033" x1="103.848" y1="12.0547" x2="138.189" y2="12.0854" gradientUnits="userSpaceOnUse">
<stop stop-color="#FF7A00"/>
<stop offset="0.0625" stop-color="#FBB508"/>
<stop offset="1" stop-color="#F1592A"/>
</linearGradient>
<radialGradient id="paint15_radial_224_13033" cx="0" cy="0" r="1" gradientUnits="userSpaceOnUse" gradientTransform="translate(42.0933 36.2838) rotate(180) scale(22.4463 22.4463)">
<stop stop-color="#FFF799"/>
<stop offset="0.5091" stop-color="#FBB040"/>
<stop offset="1" stop-color="#C55C18"/>
</radialGradient>
<radialGradient id="paint16_radial_224_13033" cx="0" cy="0" r="1" gradientUnits="userSpaceOnUse" gradientTransform="translate(49.0227 13.4771) rotate(180) scale(7.51545 7.51546)">
<stop stop-color="#FFF799"/>
<stop offset="0.5091" stop-color="#FBB040"/>
<stop offset="1" stop-color="#C55C18"/>
</radialGradient>
<radialGradient id="paint17_radial_224_13033" cx="0" cy="0" r="1" gradientUnits="userSpaceOnUse" gradientTransform="translate(43.3339 36.6827) rotate(180) scale(16.7303 16.7303)">
<stop stop-color="#FFF799"/>
<stop offset="0.5091" stop-color="#FBB040"/>
<stop offset="1" stop-color="#C55C18"/>
</radialGradient>
<linearGradient id="paint18_linear_224_13033" x1="51.4014" y1="34.2675" x2="28.1459" y2="49.2509" gradientUnits="userSpaceOnUse">
<stop stop-color="white"/>
<stop offset="0.0557" stop-color="#DDDDDD"/>
<stop offset="0.1933" stop-color="#909090"/>
<stop offset="0.316" stop-color="#525252"/>
<stop offset="0.4192" stop-color="#262626"/>
<stop offset="0.4989" stop-color="#0A0A0A"/>
<stop offset="0.5455"/>
</linearGradient>
<linearGradient id="paint19_linear_224_13033" x1="24.9453" y1="12.0547" x2="59.2876" y2="12.0854" gradientUnits="userSpaceOnUse">
<stop stop-color="#FF7A00"/>
<stop offset="0.0625" stop-color="#FBB508"/>
<stop offset="1" stop-color="#F1592A"/>
</linearGradient>
<linearGradient id="paint20_linear_224_13033" x1="70.4952" y1="124.087" x2="92.4138" y2="118.65" gradientUnits="userSpaceOnUse">
<stop stop-color="#C55C18"/>
<stop offset="0.3636" stop-color="#FBB040"/>
<stop offset="0.7394" stop-color="#FFF799"/>
<stop offset="0.9939" stop-color="#FBB040"/>
</linearGradient>
<radialGradient id="paint21_radial_224_13033" cx="0" cy="0" r="1" gradientUnits="userSpaceOnUse" gradientTransform="translate(81.5439 125.31) scale(13.0151 11.0521)">
<stop stop-color="#FFF799"/>
<stop offset="0.5091" stop-color="#FBB040"/>
<stop offset="1" stop-color="#C55C18"/>
</radialGradient>
<radialGradient id="paint22_radial_224_13033" cx="0" cy="0" r="1" gradientUnits="userSpaceOnUse" gradientTransform="translate(88.1227 100.443) scale(19.8502 19.8503)">
<stop stop-color="#FFF799"/>
<stop offset="0.5091" stop-color="#FBB040"/>
<stop offset="1" stop-color="#C55C18"/>
</radialGradient>
<linearGradient id="paint23_linear_224_13033" x1="98.7601" y1="104.859" x2="66.5541" y2="96.7784" gradientUnits="userSpaceOnUse">
<stop stop-color="white"/>
<stop offset="0.1466" stop-color="#C4C4C4"/>
<stop offset="0.6364"/>
</linearGradient>
<linearGradient id="paint24_linear_224_13033" x1="75.4902" y1="83.8125" x2="85.8946" y2="83.8167" gradientUnits="userSpaceOnUse">
<stop stop-color="#FF7A00"/>
<stop offset="0.0625" stop-color="#FBB508"/>
<stop offset="1" stop-color="#F1592A"/>
</linearGradient>
<linearGradient id="paint25_linear_224_13033" x1="100.948" y1="49.2365" x2="51.3108" y2="12.528" gradientUnits="userSpaceOnUse">
<stop stop-color="white"/>
<stop offset="0.0557" stop-color="#DDDDDD"/>
<stop offset="0.1933" stop-color="#909090"/>
<stop offset="0.316" stop-color="#525252"/>
<stop offset="0.4192" stop-color="#262626"/>
<stop offset="0.4989" stop-color="#0A0A0A"/>
<stop offset="0.5455"/>
</linearGradient>
<linearGradient id="paint26_linear_224_13033" x1="100.946" y1="49.2365" x2="51.3088" y2="12.528" gradientUnits="userSpaceOnUse">
<stop stop-color="#F5A73C"/>
<stop offset="0.5455" stop-color="#DE842B"/>
</linearGradient>
<linearGradient id="paint27_linear_224_13033" x1="103.076" y1="87.653" x2="70.8742" y2="79.5737" gradientUnits="userSpaceOnUse">
<stop stop-color="white"/>
<stop offset="0.1466" stop-color="#C4C4C4"/>
<stop offset="0.6364"/>
</linearGradient>
<linearGradient id="paint28_linear_224_13033" x1="73.8242" y1="80.2578" x2="88.1993" y2="80.327" gradientUnits="userSpaceOnUse">
<stop stop-color="#FF7A00"/>
<stop offset="0.0625" stop-color="#FBB508"/>
<stop offset="1" stop-color="#F1592A"/>
</linearGradient>
<linearGradient id="paint29_linear_224_13033" x1="94.3169" y1="122.589" x2="62.1069" y2="114.508" gradientUnits="userSpaceOnUse">
<stop stop-color="white"/>
<stop offset="0.1466" stop-color="#C4C4C4"/>
<stop offset="0.6364"/>
</linearGradient>
<linearGradient id="paint30_linear_224_13033" x1="73.0742" y1="114.949" x2="88.1032" y2="114.988" gradientUnits="userSpaceOnUse">
<stop stop-color="#FF7A00"/>
<stop offset="0.0625" stop-color="#FBB508"/>
<stop offset="1" stop-color="#F1592A"/>
</linearGradient>
<linearGradient id="paint31_linear_224_13033" x1="92.0954" y1="127.978" x2="74.0294" y2="120.95" gradientUnits="userSpaceOnUse">
<stop stop-color="white"/>
<stop offset="0.1466" stop-color="#C4C4C4"/>
<stop offset="0.6364"/>
</linearGradient>
<linearGradient id="paint32_linear_224_13033" x1="63.8965" y1="120.867" x2="97.7309" y2="121.038" gradientUnits="userSpaceOnUse">
<stop stop-color="#FF7A00"/>
<stop offset="0.0625" stop-color="#FBB508"/>
<stop offset="1" stop-color="#F1592A"/>
</linearGradient>
<linearGradient id="paint33_linear_224_13033" x1="85.9999" y1="127.391" x2="85.9999" y2="101.839" gradientUnits="userSpaceOnUse">
<stop stop-color="#C55C18"/>
<stop offset="0.4909" stop-color="#FBB040"/>
<stop offset="1" stop-color="#FFF799"/>
</linearGradient>
<linearGradient id="paint34_linear_224_13033" x1="145.597" y1="126.757" x2="19.1346" y2="29.6522" gradientUnits="userSpaceOnUse">
<stop stop-color="#C55C18"/>
<stop offset="0.1818" stop-color="#FBB040"/>
<stop offset="0.3818" stop-color="#892E01"/>
<stop offset="0.6061" stop-color="#FFF8A3"/>
<stop offset="0.7879" stop-color="#FBB040"/>
<stop offset="1" stop-color="#C35019"/>
</linearGradient>
<linearGradient id="paint35_linear_224_13033" x1="4.87122" y1="77.5242" x2="158.081" y2="77.5242" gradientUnits="userSpaceOnUse">
<stop stop-color="#C55C18"/>
<stop offset="0.1818" stop-color="#FBB040"/>
<stop offset="0.3818" stop-color="#892E01"/>
<stop offset="0.6061" stop-color="#FFF8A3"/>
<stop offset="0.7879" stop-color="#FBB040"/>
<stop offset="1" stop-color="#C35019"/>
</linearGradient>
<linearGradient id="paint36_linear_224_13033" x1="131.068" y1="182.777" x2="101.71" y2="122.179" gradientUnits="userSpaceOnUse">
<stop stop-color="#FFF8A3"/>
<stop offset="0.3091" stop-color="#FBB040"/>
<stop offset="0.6667" stop-color="#C55C18"/>
<stop offset="1" stop-color="#892E01"/>
</linearGradient>
<linearGradient id="paint37_linear_224_13033" x1="80.5372" y1="126.202" x2="106.507" y2="181.529" gradientUnits="userSpaceOnUse">
<stop offset="0.2364" stop-color="white"/>
<stop offset="0.2683" stop-color="#E8E8E8"/>
<stop offset="0.3497" stop-color="#B2B2B2"/>
<stop offset="0.4342" stop-color="#828282"/>
<stop offset="0.5201" stop-color="#5A5A5A"/>
<stop offset="0.6077" stop-color="#3A3A3A"/>
<stop offset="0.6974" stop-color="#202020"/>
<stop offset="0.7903" stop-color="#0E0E0E"/>
<stop offset="0.8883" stop-color="#030303"/>
<stop offset="1"/>
</linearGradient>
<linearGradient id="paint38_linear_224_13033" x1="80.5392" y1="126.206" x2="106.509" y2="181.533" gradientUnits="userSpaceOnUse">
<stop offset="0.2364" stop-color="#AE6049"/>
<stop offset="0.2856" stop-color="#B8715A"/>
<stop offset="0.3927" stop-color="#CD9581"/>
<stop offset="0.5034" stop-color="#DEB7A7"/>
<stop offset="0.617" stop-color="#EBD3C7"/>
<stop offset="0.7345" stop-color="#F5E8E1"/>
<stop offset="0.8586" stop-color="#FCF7F5"/>
<stop offset="1" stop-color="white"/>
</linearGradient>
<linearGradient id="paint39_linear_224_13033" x1="118.756" y1="108.27" x2="144.725" y2="163.596" gradientUnits="userSpaceOnUse">
<stop offset="0.2364" stop-color="white"/>
<stop offset="0.2683" stop-color="#E8E8E8"/>
<stop offset="0.3497" stop-color="#B2B2B2"/>
<stop offset="0.4342" stop-color="#828282"/>
<stop offset="0.5201" stop-color="#5A5A5A"/>
<stop offset="0.6077" stop-color="#3A3A3A"/>
<stop offset="0.6974" stop-color="#202020"/>
<stop offset="0.7903" stop-color="#0E0E0E"/>
<stop offset="0.8883" stop-color="#030303"/>
<stop offset="1"/>
</linearGradient>
<linearGradient id="paint40_linear_224_13033" x1="118.754" y1="108.27" x2="144.723" y2="163.596" gradientUnits="userSpaceOnUse">
<stop offset="0.2364" stop-color="#AE6049"/>
<stop offset="0.2856" stop-color="#B8715A"/>
<stop offset="0.3927" stop-color="#CD9581"/>
<stop offset="0.5034" stop-color="#DEB7A7"/>
<stop offset="0.617" stop-color="#EBD3C7"/>
<stop offset="0.7345" stop-color="#F5E8E1"/>
<stop offset="0.8586" stop-color="#FCF7F5"/>
<stop offset="1" stop-color="white"/>
</linearGradient>
<linearGradient id="paint41_linear_224_13033" x1="34.2326" y1="185.439" x2="57.5681" y2="128.982" gradientUnits="userSpaceOnUse">
<stop stop-color="#FFF8A3"/>
<stop offset="0.3091" stop-color="#FBB040"/>
<stop offset="0.6667" stop-color="#C55C18"/>
<stop offset="1" stop-color="#892E01"/>
</linearGradient>
<linearGradient id="paint42_linear_224_13033" x1="54.2601" y1="141.343" x2="97.931" y2="141.343" gradientUnits="userSpaceOnUse">
<stop/>
<stop offset="0.1117" stop-color="#030303"/>
<stop offset="0.2097" stop-color="#0E0E0E"/>
<stop offset="0.3026" stop-color="#202020"/>
<stop offset="0.3923" stop-color="#3A3A3A"/>
<stop offset="0.4799" stop-color="#5A5A5A"/>
<stop offset="0.5658" stop-color="#828282"/>
<stop offset="0.6503" stop-color="#B2B2B2"/>
<stop offset="0.7317" stop-color="#E8E8E8"/>
<stop offset="0.7636" stop-color="white"/>
</linearGradient>
<linearGradient id="paint43_linear_224_13033" x1="54.262" y1="141.347" x2="97.933" y2="141.347" gradientUnits="userSpaceOnUse">
<stop stop-color="white"/>
<stop offset="0.1414" stop-color="#FCF7F5"/>
<stop offset="0.2655" stop-color="#F5E8E1"/>
<stop offset="0.383" stop-color="#EBD3C7"/>
<stop offset="0.4966" stop-color="#DEB7A7"/>
<stop offset="0.6073" stop-color="#CD9581"/>
<stop offset="0.7144" stop-color="#B8715A"/>
<stop offset="0.7636" stop-color="#AE6049"/>
</linearGradient>
<linearGradient id="paint44_linear_224_13033" x1="13.6663" y1="124.477" x2="58.9192" y2="124.477" gradientUnits="userSpaceOnUse">
<stop/>
<stop offset="0.1117" stop-color="#030303"/>
<stop offset="0.2097" stop-color="#0E0E0E"/>
<stop offset="0.3026" stop-color="#202020"/>
<stop offset="0.3923" stop-color="#3A3A3A"/>
<stop offset="0.4799" stop-color="#5A5A5A"/>
<stop offset="0.5658" stop-color="#828282"/>
<stop offset="0.6503" stop-color="#B2B2B2"/>
<stop offset="0.7317" stop-color="#E8E8E8"/>
<stop offset="0.7636" stop-color="white"/>
</linearGradient>
<linearGradient id="paint45_linear_224_13033" x1="13.6663" y1="124.477" x2="58.9192" y2="124.477" gradientUnits="userSpaceOnUse">
<stop stop-color="white"/>
<stop offset="0.1414" stop-color="#FCF7F5"/>
<stop offset="0.2655" stop-color="#F5E8E1"/>
<stop offset="0.383" stop-color="#EBD3C7"/>
<stop offset="0.4966" stop-color="#DEB7A7"/>
<stop offset="0.6073" stop-color="#CD9581"/>
<stop offset="0.7144" stop-color="#B8715A"/>
<stop offset="0.7636" stop-color="#AE6049"/>
</linearGradient>
<linearGradient id="paint46_linear_224_13033" x1="35.7422" y1="120.074" x2="124.942" y2="37.085" gradientUnits="userSpaceOnUse">
<stop stop-color="#C55C18"/>
<stop offset="0.1818" stop-color="#FBB040"/>
<stop offset="0.3818" stop-color="#892E01"/>
<stop offset="0.6061" stop-color="#FFF8A3"/>
<stop offset="0.7879" stop-color="#FBB040"/>
<stop offset="1" stop-color="#C35019"/>
</linearGradient>
<linearGradient id="paint47_linear_224_13033" x1="35.742" y1="120.074" x2="124.941" y2="37.0847" gradientUnits="userSpaceOnUse">
<stop stop-color="#C55C18"/>
<stop offset="0.1818" stop-color="#FBB040"/>
<stop offset="0.3818" stop-color="#892E01"/>
<stop offset="0.6061" stop-color="#FFF8A3"/>
<stop offset="0.7879" stop-color="#FBB040"/>
<stop offset="1" stop-color="#C35019"/>
</linearGradient>
<linearGradient id="paint48_linear_224_13033" x1="68.1006" y1="110.034" x2="98.2876" y2="47.7588" gradientUnits="userSpaceOnUse">
<stop stop-color="#813900"/>
<stop offset="0.2788" stop-color="#FFC841"/>
<stop offset="0.5394" stop-color="#FFF8A3"/>
<stop offset="0.7758" stop-color="#FBB040"/>
<stop offset="1" stop-color="#C55C18"/>
</linearGradient>
<linearGradient id="paint49_linear_224_13033" x1="60.2521" y1="77.0097" x2="101.57" y2="77.0097" gradientUnits="userSpaceOnUse">
<stop stop-color="#813900"/>
<stop offset="0.2788" stop-color="#FFC841"/>
<stop offset="0.5394" stop-color="#FFF8A3"/>
<stop offset="0.7758" stop-color="#FBB040"/>
<stop offset="1" stop-color="#C55C18"/>
</linearGradient>
</defs>
</svg>
