<svg width="16" height="16" viewBox="0 0 16 16" fill="none" xmlns="http://www.w3.org/2000/svg">
<path d="M8 6.5C6.6215 6.5 5.5 7.6215 5.5 9C5.5 10.3785 6.6215 11.5 8 11.5C9.3785 11.5 10.5 10.3785 10.5 9C10.5 7.6215 9.3785 6.5 8 6.5ZM9.5 9.5C9.2235 9.5 9 9.276 9 9C9 8.4485 8.5515 8 8 8C7.7235 8 7.5 7.776 7.5 7.5C7.5 7.224 7.7235 7 8 7C9.103 7 10 7.897 10 9C10 9.276 9.7765 9.5 9.5 9.5Z" fill="white"/>
<path d="M10.7644 3.5L10.4844 2.3785C10.4284 2.1565 10.2289 2 9.99937 2H5.99937C5.76987 2 5.57037 2.1565 5.51437 2.3785L5.23438 3.5H10.7644Z" fill="white"/>
<path d="M14 4H10.89H5.11H2C1.173 4 0.5 4.673 0.5 5.5V12.5C0.5 13.327 1.173 14 2 14H14C14.827 14 15.5 13.327 15.5 12.5V5.5C15.5 4.673 14.827 4 14 4ZM3 7C2.7235 7 2.5 6.776 2.5 6.5C2.5 6.224 2.7235 6 3 6C3.2765 6 3.5 6.224 3.5 6.5C3.5 6.776 3.2765 7 3 7ZM8 12.5C6.0705 12.5 4.5 10.93 4.5 9C4.5 7.07 6.0705 5.5 8 5.5C9.9295 5.5 11.5 7.07 11.5 9C11.5 10.93 9.9295 12.5 8 12.5Z" fill="white"/>
</svg>
