<svg width="21" height="22" viewBox="0 0 21 22" fill="none" xmlns="http://www.w3.org/2000/svg">
<path d="M19.7212 5.23168C19.0546 5.54258 18.3421 5.75254 17.5913 5.84944C18.3575 5.36492 18.9474 4.59776 19.2232 3.68524C18.5069 4.13343 17.7139 4.46048 16.8674 4.6341C16.1893 3.87098 15.224 3.39453 14.1591 3.39453C12.1097 3.39453 10.4511 5.14689 10.4511 7.30705C10.4511 7.61391 10.4817 7.9127 10.5469 8.19937C7.46322 8.03787 4.72817 6.47932 2.90097 4.1092C2.58303 4.68659 2.39916 5.36088 2.39916 6.07555C2.39916 7.43221 3.05419 8.63141 4.05015 9.33396C3.44109 9.31781 2.86649 9.14015 2.36852 8.8454C2.36852 8.86155 2.36852 8.87771 2.36852 8.89386C2.36852 10.7916 3.64794 12.3703 5.3449 12.7297C5.03462 12.8185 4.70518 12.8669 4.36809 12.8669C4.13059 12.8669 3.89693 12.8427 3.67092 12.7943C4.14209 14.3488 5.51344 15.4793 7.13762 15.5116C5.86969 16.5614 4.2685 17.1873 2.5294 17.1873C2.23061 17.1873 1.93566 17.1671 1.64453 17.1307C3.28403 18.2532 5.23381 18.8992 7.32532 18.8992C14.1515 18.8992 17.8825 12.9356 17.8825 7.7633C17.8825 7.59372 17.8786 7.42414 17.871 7.25859C18.595 6.70543 19.2232 6.01499 19.7212 5.23168Z" fill="#F6AB27"/>
</svg>
