<svg width="18" height="18" viewBox="0 0 18 18" fill="none" xmlns="http://www.w3.org/2000/svg">
<path d="M15.6705 1.05859H14.0822V2.64683C14.0822 2.96448 13.8175 3.17624 13.5528 3.17624C13.2881 3.17624 13.0234 2.96448 13.0234 2.64683V1.05859H4.55283V2.64683C4.55283 2.96448 4.28812 3.17624 4.02341 3.17624C3.75871 3.17624 3.494 2.96448 3.494 2.64683V1.05859H1.90577C1.11165 1.05859 0.529297 1.74683 0.529297 2.64683V4.55271H17.4705V2.64683C17.4705 1.74683 16.5175 1.05859 15.6705 1.05859ZM0.529297 5.66448V15.3527C0.529297 16.3057 1.11165 16.9409 1.95871 16.9409H15.7234C16.5705 16.9409 17.5234 16.2527 17.5234 15.3527V5.66448H0.529297ZM5.24106 14.5586H3.97047C3.75871 14.5586 3.54694 14.3998 3.54694 14.1351V12.8115C3.54694 12.5998 3.70577 12.388 3.97047 12.388H5.294C5.50577 12.388 5.71753 12.5468 5.71753 12.8115V14.1351C5.66459 14.3998 5.50577 14.5586 5.24106 14.5586ZM5.24106 9.79389H3.97047C3.75871 9.79389 3.54694 9.63506 3.54694 9.37036V8.04683C3.54694 7.83506 3.70577 7.6233 3.97047 7.6233H5.294C5.50577 7.6233 5.71753 7.78212 5.71753 8.04683V9.37036C5.66459 9.63506 5.50577 9.79389 5.24106 9.79389ZM9.47636 14.5586H8.15283C7.94106 14.5586 7.7293 14.3998 7.7293 14.1351V12.8115C7.7293 12.5998 7.88812 12.388 8.15283 12.388H9.47636C9.68812 12.388 9.89989 12.5468 9.89989 12.8115V14.1351C9.89989 14.3998 9.74106 14.5586 9.47636 14.5586ZM9.47636 9.79389H8.15283C7.94106 9.79389 7.7293 9.63506 7.7293 9.37036V8.04683C7.7293 7.83506 7.88812 7.6233 8.15283 7.6233H9.47636C9.68812 7.6233 9.89989 7.78212 9.89989 8.04683V9.37036C9.89989 9.63506 9.74106 9.79389 9.47636 9.79389ZM13.7116 14.5586H12.3881C12.1764 14.5586 11.9646 14.3998 11.9646 14.1351V12.8115C11.9646 12.5998 12.1234 12.388 12.3881 12.388H13.7116C13.9234 12.388 14.1352 12.5468 14.1352 12.8115V14.1351C14.1352 14.3998 13.9764 14.5586 13.7116 14.5586ZM13.7116 9.79389H12.3881C12.1764 9.79389 11.9646 9.63506 11.9646 9.37036V8.04683C11.9646 7.83506 12.1234 7.6233 12.3881 7.6233H13.7116C13.9234 7.6233 14.1352 7.78212 14.1352 8.04683V9.37036C14.1352 9.63506 13.9764 9.79389 13.7116 9.79389Z" fill="#1D2D47"/>
</svg>
