<svg width="88" height="88" viewBox="0 0 88 88" fill="none" xmlns="http://www.w3.org/2000/svg">
<path d="M22 0C18.975 0 16.5 2.475 16.5 5.5V82.5C16.5 85.525 18.975 88 22 88H77C80.025 88 82.5 85.525 82.5 82.5V22L60.5 0H22Z" fill="#E2E5E7"/>
<path d="M66 22H82.5L60.5 0V16.5C60.5 19.525 62.975 22 66 22Z" fill="#B0B7BD"/>
<path d="M82.5 38.5L66 22H82.5V38.5Z" fill="#CAD1D8"/>
<path d="M71.5 71.5C71.5 73.0125 70.2625 74.25 68.75 74.25H8.25C6.7375 74.25 5.5 73.0125 5.5 71.5V44C5.5 42.4875 6.7375 41.25 8.25 41.25H68.75C70.2625 41.25 71.5 42.4875 71.5 44V71.5Z" fill="#F1592A"/>
<path d="M17.4863 52.1039C17.4863 51.3779 18.0583 50.5859 18.9796 50.5859H24.0588C26.9188 50.5859 29.4928 52.4999 29.4928 56.1684C29.4928 59.6444 26.9188 61.5804 24.0588 61.5804H20.3876V64.4844C20.3876 65.4524 19.7716 65.9997 18.9796 65.9997C18.2536 65.9997 17.4863 65.4524 17.4863 64.4844V52.1039ZM20.3876 53.3552V58.8332H24.0588C25.5328 58.8332 26.6988 57.5324 26.6988 56.1684C26.6988 54.6312 25.5328 53.3552 24.0588 53.3552H20.3876Z" fill="white"/>
<path d="M33.7993 65.999C33.0733 65.999 32.2812 65.603 32.2812 64.6377V52.1472C32.2812 51.358 33.0733 50.7832 33.7993 50.7832H38.8345C48.883 50.7832 48.663 65.999 39.0325 65.999H33.7993ZM35.1852 53.4672V63.3177H38.8345C44.7717 63.3177 45.0357 53.4672 38.8345 53.4672H35.1852Z" fill="white"/>
<path d="M52.2261 53.644V57.1393H57.8334C58.6254 57.1393 59.4174 57.9312 59.4174 58.6985C59.4174 59.4245 58.6254 60.0185 57.8334 60.0185H52.2261V64.6357C52.2261 65.4058 51.6789 65.997 50.9089 65.997C49.9409 65.997 49.3496 65.4058 49.3496 64.6357V52.1453C49.3496 51.356 49.9436 50.7812 50.9089 50.7812H58.6281C59.5961 50.7812 60.1681 51.356 60.1681 52.1453C60.1681 52.8493 59.5961 53.6413 58.6281 53.6413H52.2261V53.644Z" fill="white"/>
<path d="M68.75 74.25H16.5V77H68.75C70.2625 77 71.5 75.7625 71.5 74.25V71.5C71.5 73.0125 70.2625 74.25 68.75 74.25Z" fill="#CAD1D8"/>
</svg>
