<svg width="18" height="15" viewBox="0 0 18 15" fill="none" xmlns="http://www.w3.org/2000/svg">
<path d="M9.00051 10.5C8.84676 10.5 8.69976 10.437 8.59401 10.326L4.65651 6.201C4.31526 5.844 4.56876 5.25 5.06301 5.25H7.12551V0.9375C7.12551 0.42075 7.54626 0 8.06301 0H9.93801C10.4548 0 10.8755 0.42075 10.8755 0.9375V5.25H12.938C13.4323 5.25 13.6858 5.844 13.3445 6.201L9.40701 10.326C9.30126 10.437 9.15426 10.5 9.00051 10.5Z" fill="white"/>
<path d="M16.6875 15H1.3125C0.58875 15 0 14.4112 0 13.6875V13.3125C0 12.5888 0.58875 12 1.3125 12H16.6875C17.4113 12 18 12.5888 18 13.3125V13.6875C18 14.4112 17.4113 15 16.6875 15Z" fill="white"/>
</svg>
