<svg width="30" height="30" viewBox="0 0 30 30" fill="none" xmlns="http://www.w3.org/2000/svg">
<circle cx="15" cy="15" r="14.5" fill="white" stroke="#F1592A"/>
<path fill-rule="evenodd" clip-rule="evenodd" d="M21.123 9.85355C21.3183 9.65829 21.3183 9.34171 21.123 9.14645C20.9277 8.95118 20.6112 8.95118 20.4159 9.14645L15.2071 14.3553L10.0606 9.20882C9.86535 9.01356 9.54877 9.01356 9.3535 9.20882C9.15824 9.40408 9.15824 9.72067 9.3535 9.91593L14.5 15.0624L9.12301 20.4393C8.92775 20.6346 8.92775 20.9512 9.12301 21.1464C9.31827 21.3417 9.63485 21.3417 9.83012 21.1464L15.2071 15.7695L20.6464 21.2088C20.8417 21.4041 21.1582 21.4041 21.3535 21.2088C21.5488 21.0136 21.5488 20.697 21.3535 20.5017L15.9142 15.0624L21.123 9.85355Z" fill="#F1592A"/>
<path d="M21.123 9.14645L21.4766 8.79289L21.4766 8.79289L21.123 9.14645ZM21.123 9.85355L21.4766 10.2071V10.2071L21.123 9.85355ZM20.4159 9.14645L20.0623 8.79289L20.0623 8.79289L20.4159 9.14645ZM15.2071 14.3553L14.8535 14.7088L15.2071 15.0624L15.5606 14.7088L15.2071 14.3553ZM10.0606 9.20882L9.70706 9.56238L10.0606 9.20882ZM9.3535 9.20882L8.99995 8.85527L9.3535 9.20882ZM9.3535 9.91593L8.99995 10.2695L8.99995 10.2695L9.3535 9.91593ZM14.5 15.0624L14.8535 15.4159L15.2071 15.0624L14.8535 14.7088L14.5 15.0624ZM9.12301 20.4393L9.47656 20.7929L9.12301 20.4393ZM9.12301 21.1464L9.47656 20.7929H9.47656L9.12301 21.1464ZM9.83012 21.1464L10.1837 21.5L9.83012 21.1464ZM15.2071 15.7695L15.5606 15.4159L15.2071 15.0624L14.8535 15.4159L15.2071 15.7695ZM21.3535 21.2088L21 20.8553L21 20.8553L21.3535 21.2088ZM21.3535 20.5017L21 20.8553L21.3535 20.5017ZM15.9142 15.0624L15.5606 14.7088L15.2071 15.0624L15.5606 15.4159L15.9142 15.0624ZM20.7695 9.5V9.5L21.4766 10.2071C21.8671 9.81658 21.8671 9.18342 21.4766 8.79289L20.7695 9.5ZM20.7695 9.5H20.7695L21.4766 8.79289C21.086 8.40237 20.4529 8.40237 20.0623 8.79289L20.7695 9.5ZM15.5606 14.7088L20.7695 9.5L20.0623 8.79289L14.8535 14.0017L15.5606 14.7088ZM9.70706 9.56238L14.8535 14.7088L15.5606 14.0017L10.4142 8.85527L9.70706 9.56238ZM9.70706 9.56238H9.70706L10.4142 8.85527C10.0236 8.46474 9.39047 8.46474 8.99995 8.85527L9.70706 9.56238ZM9.70706 9.56238L9.70706 9.56238L8.99995 8.85527C8.60943 9.24579 8.60943 9.87896 8.99995 10.2695L9.70706 9.56238ZM14.8535 14.7088L9.70706 9.56238L8.99995 10.2695L14.1464 15.4159L14.8535 14.7088ZM9.47656 20.7929L14.8535 15.4159L14.1464 14.7088L8.76946 20.0858L9.47656 20.7929ZM9.47656 20.7929L9.47656 20.7929L8.76946 20.0858C8.37893 20.4763 8.37893 21.1095 8.76946 21.5L9.47656 20.7929ZM9.47656 20.7929H9.47656L8.76946 21.5C9.15998 21.8905 9.79314 21.8905 10.1837 21.5L9.47656 20.7929ZM14.8535 15.4159L9.47656 20.7929L10.1837 21.5L15.5606 16.123L14.8535 15.4159ZM21 20.8553L15.5606 15.4159L14.8535 16.123L20.2928 21.5624L21 20.8553ZM21 20.8553H21L20.2928 21.5624C20.6834 21.9529 21.3165 21.9529 21.7071 21.5624L21 20.8553ZM21 20.8553L21 20.8553L21.7071 21.5624C22.0976 21.1719 22.0976 20.5387 21.7071 20.1482L21 20.8553ZM15.5606 15.4159L21 20.8553L21.7071 20.1482L16.2677 14.7088L15.5606 15.4159ZM20.7695 9.5L15.5606 14.7088L16.2677 15.4159L21.4766 10.2071L20.7695 9.5Z" fill="#F1592A"/>
</svg>
