<svg width="12" height="12" viewBox="0 0 12 12" fill="none" xmlns="http://www.w3.org/2000/svg">
<path d="M1.45703 3.51562L2.07974 11.0329C2.12437 11.575 2.58613 12 3.1303 12H8.86792C9.41209 12 9.87386 11.575 9.91848 11.0329L10.5412 3.51562H1.45703ZM4.24096 10.5938C4.05693 10.5938 3.9021 10.4506 3.89043 10.2641L3.53887 4.59227C3.52684 4.3983 3.67413 4.23145 3.86777 4.21943C4.0686 4.20534 4.22826 4.35436 4.24061 4.54833L4.59217 10.2202C4.60462 10.4211 4.44569 10.5938 4.24096 10.5938ZM6.35066 10.2422C6.35066 10.4365 6.19342 10.5938 5.9991 10.5938C5.80478 10.5938 5.64754 10.4365 5.64754 10.2422V4.57031C5.64754 4.37599 5.80478 4.21875 5.9991 4.21875C6.19342 4.21875 6.35066 4.37599 6.35066 4.57031V10.2422ZM8.45934 4.5923L8.10777 10.2642C8.09622 10.4487 7.9424 10.6025 7.73493 10.5931C7.54129 10.581 7.39401 10.4142 7.40603 10.2202L7.75759 4.54835C7.76962 4.35438 7.93956 4.21327 8.13044 4.21945C8.32408 4.23148 8.47136 4.39833 8.45934 4.5923Z" fill="white"/>
<path d="M10.5703 1.40625H8.46094V1.05469C8.46094 0.473109 7.98783 0 7.40625 0H4.59375C4.01217 0 3.53906 0.473109 3.53906 1.05469V1.40625H1.42969C1.04135 1.40625 0.726562 1.72104 0.726562 2.10938C0.726562 2.49766 1.04135 2.8125 1.42969 2.8125C4.66327 2.8125 7.33685 2.8125 10.5703 2.8125C10.9586 2.8125 11.2734 2.49766 11.2734 2.10938C11.2734 1.72104 10.9586 1.40625 10.5703 1.40625ZM7.75781 1.40625H4.24219V1.05469C4.24219 0.860719 4.39978 0.703125 4.59375 0.703125H7.40625C7.60022 0.703125 7.75781 0.860719 7.75781 1.05469V1.40625Z" fill="white"/>
</svg>
