<svg width="21" height="16" viewBox="0 0 21 16" fill="none" xmlns="http://www.w3.org/2000/svg">
<path d="M9.38851 15.9898L0 15.9898L0 7.92114C0 6.57937 0.240914 5.46627 0.72274 4.57863C1.20521 3.69163 1.83004 2.95472 2.59851 2.36661C3.36699 1.78108 4.22177 1.30891 5.16545 0.952698C6.10849 0.596482 7.04123 0.278918 7.96301 0L9.34665 2.51413C8.64774 2.77952 8.05061 3.04813 7.55526 3.32125C7.05862 3.59372 6.65345 3.89067 6.33975 4.21146C6.02476 4.53418 5.79479 4.90071 5.64792 5.31167C5.50106 5.72393 5.42827 6.21027 5.42827 6.7681H9.38916V15.9898H9.38851ZM20.9987 15.9898H11.6315V7.92114C11.6315 6.57937 11.8724 5.46627 12.3542 4.57863C12.836 3.69163 13.4576 2.95472 14.2197 2.36661C14.981 1.78108 15.8333 1.30891 16.7757 0.952698C17.7187 0.596482 18.6514 0.278918 19.5732 0L20.9781 2.51413C20.2792 2.77952 19.6821 3.04813 19.1867 3.32125C18.6901 3.59372 18.2849 3.89067 17.9712 4.21146C17.6562 4.53418 17.4262 4.90071 17.2794 5.31167C17.1325 5.72393 17.0597 6.21027 17.0597 6.7681L21 6.7681L21 15.9898H20.9987Z" fill="#F1592A"/>
</svg>
