<svg width="21" height="22" viewBox="0 0 21 22" fill="none" xmlns="http://www.w3.org/2000/svg">
<path d="M10.4959 6.60547C8.0746 6.60547 6.06836 8.6837 6.06836 11.2724C6.06836 13.8611 8.04001 15.9393 10.4959 15.9393C12.9518 15.9393 14.9235 13.8246 14.9235 11.2724C14.9235 8.72016 12.9172 6.60547 10.4959 6.60547ZM10.4959 14.2621C8.93936 14.2621 7.65951 12.9131 7.65951 11.2724C7.65951 9.63167 8.93936 8.28264 10.4959 8.28264C12.0525 8.28264 13.3323 9.63167 13.3323 11.2724C13.3323 12.9131 12.0525 14.2621 10.4959 14.2621Z" fill="#F6AB27"/>
<path d="M15.0969 7.55219C15.6509 7.55219 16.1 7.0788 16.1 6.49485C16.1 5.91089 15.6509 5.4375 15.0969 5.4375C14.5429 5.4375 14.0938 5.91089 14.0938 6.49485C14.0938 7.0788 14.5429 7.55219 15.0969 7.55219Z" fill="#F6AB27"/>
<path d="M17.6911 3.76049C16.7918 2.77607 15.512 2.26562 14.0592 2.26562H6.93356C3.92421 2.26562 1.91797 4.38032 1.91797 7.55235V15.0267C1.91797 16.5945 2.40223 17.9435 3.37076 18.9279C4.3047 19.8759 5.54995 20.3499 6.96815 20.3499H14.0246C15.512 20.3499 16.7572 19.8394 17.6566 18.9279C18.5905 17.98 19.0748 16.6309 19.0748 15.0632V7.55235C19.0748 6.02103 18.5905 4.70846 17.6911 3.76049ZM17.5528 15.0632C17.5528 16.1934 17.1723 17.1049 16.5497 17.7248C15.927 18.3446 15.0623 18.6727 14.0246 18.6727H6.96815C5.93044 18.6727 5.06569 18.3446 4.44306 17.7248C3.82043 17.0685 3.50912 16.157 3.50912 15.0267V7.55235C3.50912 6.45855 3.82043 5.54704 4.44306 4.89076C5.0311 4.27094 5.93044 3.94279 6.96815 3.94279H14.0938C15.1315 3.94279 15.9962 4.27094 16.6188 4.92722C17.2069 5.5835 17.5528 6.49501 17.5528 7.55235V15.0632Z" fill="#F6AB27"/>
</svg>
