<svg width="14" height="14" viewBox="0 0 14 14" fill="none" xmlns="http://www.w3.org/2000/svg">
<g clip-path="url(#clip0_491_5402)">
<path d="M10.6164 0H3.38386C2.70312 0.000628278 2.05045 0.271329 1.56909 0.752685C1.08774 1.23404 0.817035 1.88672 0.816406 2.56746V4.66746C0.84665 4.83103 0.933223 4.97885 1.06109 5.08525C1.18897 5.19164 1.35006 5.2499 1.51641 5.2499C1.68275 5.2499 1.84385 5.19164 1.97172 5.08525C2.09959 4.97885 2.18616 4.83103 2.21641 4.66746V2.56746C2.21703 2.25802 2.34023 1.96144 2.55904 1.74263C2.77784 1.52383 3.07443 1.40063 3.38386 1.4H10.6164C10.9258 1.40063 11.2224 1.52383 11.4412 1.74263C11.66 1.96144 11.7832 2.25802 11.7839 2.56746V11.4325C11.7832 11.742 11.66 12.0386 11.4412 12.2574C11.2224 12.4762 10.9258 12.5994 10.6164 12.6H3.38386C3.07443 12.5994 2.77784 12.4762 2.55904 12.2574C2.34023 12.0386 2.21703 11.742 2.21641 11.4325V9.33254C2.21641 9.14689 2.14266 8.96884 2.01138 8.83757C1.88011 8.70629 1.70206 8.63254 1.51641 8.63254C1.33075 8.63254 1.15271 8.70629 1.02143 8.83757C0.890156 8.96884 0.816406 9.14689 0.816406 9.33254V11.4325C0.817035 12.1133 1.08774 12.766 1.56909 13.2473C2.05045 13.7287 2.70312 13.9994 3.38386 14H10.6164C11.2971 13.9994 11.9498 13.7287 12.4312 13.2473C12.9125 12.766 13.1832 12.1133 13.1839 11.4325V2.56746C13.1832 1.88672 12.9125 1.23404 12.4312 0.752685C11.9498 0.271329 11.2971 0.000628278 10.6164 0V0Z" fill="white"/>
<path d="M0.816406 6.99904C0.816406 7.18784 0.891406 7.36891 1.02491 7.50241C1.15841 7.63591 1.33947 7.71091 1.52827 7.71091H7.41064L5.79946 9.30311C5.70418 9.44007 5.66004 9.60615 5.67474 9.77234C5.68943 9.93853 5.76203 10.0943 5.87987 10.2124C5.9977 10.3305 6.15327 10.4035 6.31943 10.4186C6.48558 10.4337 6.65176 10.3899 6.78895 10.295L9.59607 7.49498C9.72508 7.36213 9.79724 7.18423 9.79724 6.99904C9.79724 6.81386 9.72508 6.63596 9.59607 6.50311L6.79607 3.70311C6.65918 3.60328 6.49117 3.55555 6.32224 3.56849C6.15331 3.58143 5.99454 3.65419 5.87445 3.77371C5.75436 3.89322 5.68084 4.05165 5.66709 4.22052C5.65335 4.38938 5.70028 4.55761 5.79946 4.69498L7.4059 6.29904H1.52827C1.34151 6.29902 1.16222 6.37239 1.02906 6.50333C0.895891 6.63428 0.819519 6.81231 0.816406 6.99904V6.99904Z" fill="white"/>
</g>
<defs>
<clipPath id="clip0_491_5402">
<rect width="14" height="14" fill="white"/>
</clipPath>
</defs>
</svg>
