<svg width="140" height="140" viewBox="0 0 140 140" fill="none" xmlns="http://www.w3.org/2000/svg">
<g clip-path="url(#clip0_130_12300)">
<path d="M55.1467 90.754C43.7263 90.754 35.5751 83.502 29.6365 78.2058C25.882 74.8511 22.6415 71.9675 20.0291 71.9532H17.0312L17.2026 68.9553C18.6487 43.201 39.9433 23.0512 65.7391 23.0312C66.7483 23.0312 67.7476 23.0598 68.7369 23.1169H69.7505L70.4928 23.8021C78.5013 31.1825 78.6583 39.3624 70.9782 48.0704C67.7048 51.5993 64.1845 54.8912 60.4429 57.9204C55.4893 62.2031 50.8069 66.1145 49.2224 69.6834C48.3844 71.0938 48.3573 72.844 49.151 74.2801C50.1217 76.0217 52.4486 77.7347 56.0746 79.3336C58.8711 80.43 61.5007 81.916 63.8833 83.7447H64.2687L65.996 85.9717L65.0824 89.4977H63.3836C61.0153 90.3185 58.5228 90.724 56.0175 90.6968L55.1467 90.754Z" fill="#CCD33D"/>
<path d="M65.7826 120.319C39.5801 120.32 18.0827 99.5681 17.1605 73.3813L17.0605 70.3406L20.1012 70.4263C23.3988 70.5119 26.6251 73.3955 30.7079 77.0358C36.7749 82.4462 44.3124 89.1699 55.1189 89.1699H55.9754C58.4579 89.2156 60.9247 88.7788 63.2416 87.8851C63.7841 87.5996 64.0981 87.2998 64.1695 87C64.2409 86.7003 64.2837 86.5432 63.6984 85.8295C63.1131 85.1157 61.1289 83.3312 55.4472 80.8188C52.762 79.8009 50.3894 78.0979 48.5665 75.8795C47.1061 73.9266 46.852 71.3242 47.9098 69.1272C49.6514 65.2157 54.2195 61.3185 59.53 56.8075C63.1917 53.8353 66.6406 50.6105 69.8512 47.1573C76.1894 39.9339 76.9889 34.3094 72.7062 28.5992L68.2238 22.6035L75.5613 24.0311C82.6962 25.4643 89.4156 28.4907 95.2186 32.8818L96.8032 34.081L93.0916 46.3721L97.0316 50.3122L102.813 39.8197L105.44 43.517C109.216 48.8061 111.887 54.8018 113.291 61.1472L113.762 63.3028L111.807 64.2878C104.212 68.1422 103.955 70.3263 103.47 74.2806C102.942 78.5633 102.228 84.5875 89.4942 95.2084C85.9796 97.8979 82.9817 101.201 80.6434 104.959C78.7833 108.249 78.1409 112.091 78.8304 115.808L79.2729 118.534L76.6463 119.134C73.0803 119.933 69.4372 120.332 65.7826 120.319Z" fill="#73DDCD"/>
<path d="M116.474 50.1986L118.887 42.2187L108.666 32.597L97.388 52.9395L91.2924 46.8439L98.5301 23.0182L89.8506 14.8384C88.0119 13.1867 87.4109 10.5572 88.3517 8.27166C89.0926 6.53006 90.4787 5.14391 92.2203 4.40302H92.3631C93.0283 4.14891 93.735 4.01758 94.4473 4.01758C96.0818 4.04756 97.6307 4.74991 98.7299 5.95904L106.895 14.6242L130.75 7.41513L136.845 13.5107L116.503 24.7455L126.125 34.9525L134.119 32.5399L139.072 37.4935L129.379 42.8753L127.652 43.7319L126.867 45.3307L121.371 55.1522L116.474 50.1986Z" fill="white"/>
<path d="M77.1164 115.681C76.504 111.748 77.2392 107.723 79.2006 104.26C81.6632 100.312 84.8266 96.8484 88.5368 94.039C100.785 83.8178 101.385 78.4502 101.956 74.1247C102.427 70.2275 103.269 67.2012 109.921 63.5466L113.619 61.5195L114.076 65.7165C114.315 67.6965 114.434 69.6894 114.432 71.6836C114.461 84.5986 109.32 96.9869 100.157 106.087C94.7438 111.492 88.1385 115.551 80.8709 117.936L77.6303 118.992L77.1164 115.681Z" fill="#CCD33D"/>
<path d="M19.3588 115.452C18.5236 116.289 18.5236 117.642 19.3588 118.479C20.7677 119.906 22.2552 121.255 23.8127 122.519C24.6478 123.355 26.004 123.357 26.8405 122.52C27.6771 121.684 27.6785 120.329 26.842 119.492C26.7863 119.437 26.7277 119.384 26.6664 119.335L26.5236 119.221C25.0961 118.036 23.6685 116.766 22.3552 115.452C21.5243 114.636 20.191 114.636 19.3588 115.452Z" fill="url(#paint0_linear_130_12300)"/>
<path d="M2.24305 66.0023H2.51429C3.59779 66.0023 4.51142 65.1943 4.64133 64.1179C4.86973 62.2621 5.18379 60.392 5.58351 58.579C6.02462 57.4812 5.49357 56.235 4.39579 55.7939C3.29801 55.3528 2.05176 55.8838 1.61065 56.9816C1.52071 57.2043 1.46932 57.4413 1.4579 57.6811C1.02964 59.6368 0.701304 61.6211 0.458622 63.6054C0.304447 64.7546 1.09673 65.8195 2.24305 66.0023Z" fill="url(#paint1_linear_130_12300)"/>
<path d="M10.0235 102.56C9.00707 103.164 8.67302 104.479 9.2783 105.495C9.27973 105.497 9.28116 105.5 9.28116 105.501C10.309 107.214 11.4225 108.899 12.6073 110.512C13.3382 111.441 14.6844 111.604 15.6137 110.873C16.4988 110.178 16.6944 108.916 16.062 107.985C14.9628 106.472 13.9207 104.902 12.9642 103.303C12.3604 102.286 11.0456 101.952 10.0292 102.558C10.0278 102.558 10.0249 102.559 10.0235 102.56Z" fill="url(#paint2_linear_130_12300)"/>
<path d="M4.01237 87.7287C2.88889 88.0728 2.25078 89.2576 2.58482 90.384C3.15584 92.2969 3.81251 94.2098 4.55483 96.0941C5.00023 97.209 6.26646 97.7529 7.38137 97.3075C8.49629 96.8621 9.04018 95.5959 8.59479 94.481C7.90956 92.7537 7.28145 90.9693 6.75325 89.1706C6.40922 88.0471 5.22435 87.409 4.09802 87.743L4.01237 87.7287Z" fill="url(#paint3_linear_130_12300)"/>
<path d="M5.74073 50.3832C6.83852 50.8215 8.08476 50.2861 8.52302 49.1884C8.52302 49.1869 8.52445 49.1855 8.52445 49.1841C9.19682 47.4353 9.96341 45.7237 10.8228 44.0592C11.3553 43.0028 10.9299 41.7152 9.87348 41.1827C8.81709 40.6502 7.52945 41.0756 6.99697 42.132C6.09762 43.9164 5.26964 45.758 4.5416 47.628C4.1219 48.7201 4.6558 49.9464 5.74073 50.3832Z" fill="url(#paint4_linear_130_12300)"/>
<path d="M2.52819 81.9764H2.88507C4.05851 81.828 4.88934 80.7573 4.74231 79.5839C4.74231 79.5824 4.74231 79.5796 4.74088 79.5782C4.51247 77.7224 4.35544 75.838 4.28406 73.9822C4.24124 72.8002 3.24624 71.8766 2.06423 71.9194C0.882226 71.9622 -0.0413952 72.9572 0.00143112 74.1392C0.0342647 76.1463 0.197005 78.1492 0.486796 80.1349C0.630978 81.1627 1.49179 81.9379 2.52819 81.9764Z" fill="url(#paint5_linear_130_12300)"/>
<path d="M53.6066 11.3127H54.0206C55.8621 10.9558 57.7322 10.6846 59.588 10.499C60.7772 10.459 61.7108 9.46262 61.6708 8.27348C61.6309 7.08433 60.6344 6.15072 59.4453 6.19069C59.3539 6.19355 59.264 6.20211 59.1741 6.21639C57.1898 6.41624 55.1912 6.70175 53.2212 7.08719C52.0306 7.11717 51.0899 8.10645 51.1198 9.2956C51.1498 10.4862 52.1391 11.4269 53.3283 11.3969C53.4253 11.3941 53.5238 11.3855 53.6195 11.3698L53.6066 11.3127Z" fill="url(#paint6_linear_130_12300)"/>
<path d="M14.0916 36.5371C14.7811 36.54 15.4293 36.2102 15.8332 35.652C16.9325 34.1388 18.103 32.6542 19.3307 31.2552C20.153 30.3944 20.1202 29.0297 19.2594 28.2074C18.3985 27.3851 17.0338 27.418 16.2115 28.2788C16.1744 28.3173 16.1387 28.3587 16.1045 28.4001C14.7911 29.8277 13.5349 31.4836 12.3643 33.111C11.6705 34.0689 11.8847 35.4079 12.8425 36.1017C13.2066 36.3644 13.6434 36.5071 14.0916 36.5086V36.5371Z" fill="url(#paint7_linear_130_12300)"/>
<path d="M74.9897 10.8561H75.3181C76.5001 10.9432 77.5293 10.0538 77.6164 8.87183C77.7035 7.68983 76.8141 6.66057 75.6321 6.57349C73.6621 6.2737 71.6493 6.05957 69.6507 5.94537C68.4687 5.87399 67.4523 6.7762 67.3809 7.9582C67.3095 9.14021 68.2117 10.1566 69.3938 10.228C71.2781 10.3708 73.1482 10.5706 74.9897 10.8561Z" fill="url(#paint8_linear_130_12300)"/>
<path d="M26.3679 24.4034C27.7955 23.2042 29.3087 22.0622 30.8504 21.0058C31.8026 20.3049 32.0067 18.9644 31.3058 18.0123C30.6363 17.1029 29.3743 16.8702 28.4236 17.4798C26.7819 18.6075 25.1688 19.8352 23.6271 21.1058C22.7163 21.8623 22.5921 23.2142 23.3487 24.125C24.1053 25.0358 25.4572 25.16 26.3679 24.4034Z" fill="url(#paint9_linear_130_12300)"/>
<path d="M38.4453 16.2799C38.7622 16.2771 39.0734 16.2043 39.3589 16.0658C41.0434 15.2664 42.785 14.5383 44.5409 13.8959C45.6644 13.5262 46.2739 12.3157 45.9042 11.1922C45.5602 10.1501 44.4852 9.53623 43.4131 9.77035L43.1134 9.87028C41.2247 10.5412 39.376 11.3178 37.5745 12.1972C36.5024 12.6954 36.037 13.9702 36.5367 15.0423C36.8893 15.8003 37.6516 16.2842 38.4881 16.2799H38.4453Z" fill="url(#paint10_linear_130_12300)"/>
<path d="M64.0273 133.254C62.8453 133.222 61.8603 134.156 61.8289 135.338C61.7975 136.52 62.7311 137.505 63.9131 137.536H65.6975C67.1251 137.536 68.5526 137.536 69.8945 137.408C71.0765 137.334 71.9744 136.313 71.9002 135.131C71.826 133.949 70.8053 133.051 69.6233 133.125C67.7618 133.267 65.8931 133.31 64.0273 133.254Z" fill="url(#paint11_linear_130_12300)"/>
<path d="M125.025 95.1376C126.139 95.5373 127.365 94.9577 127.763 93.8457C127.765 93.8428 127.765 93.8414 127.766 93.8385C128.437 91.9542 129.022 90.027 129.522 88.1284C129.876 87.0006 129.249 85.7986 128.12 85.4432C126.991 85.0877 125.79 85.7158 125.435 86.845C125.406 86.9378 125.384 87.0334 125.366 87.1291C124.91 88.9421 124.353 90.7408 123.725 92.4966C123.389 93.5816 123.96 94.7421 125.025 95.1376Z" fill="url(#paint12_linear_130_12300)"/>
<path d="M128.51 63.4611H128.867C130.033 63.2712 130.825 62.172 130.637 61.0057C130.308 59.0357 129.894 57.0514 129.395 55.1243C129.052 53.9922 127.857 53.3512 126.725 53.6939C125.652 54.0179 125.011 55.1157 125.255 56.2092C125.726 58.0079 126.111 59.8637 126.425 61.7052C126.61 62.7145 127.485 63.4511 128.51 63.4611Z" fill="url(#paint13_linear_130_12300)"/>
<path d="M130.18 6.10162L107.439 12.9824L99.7877 4.85966C97.8377 2.60414 94.6628 1.85182 91.9076 2.98958H91.7792C89.7021 3.84468 88.0519 5.49492 87.1968 7.57199C86.9812 8.11446 86.8285 8.67977 86.7399 9.2565L85.8691 8.95671C84.7414 8.59411 83.5337 9.21367 83.1711 10.3414C82.8085 11.4692 83.428 12.6769 84.5558 13.0395C85.655 13.3964 86.7542 13.7961 87.8534 14.2101C88.1846 14.7283 88.5715 15.2065 89.0097 15.6376L97.1039 23.2893L94.7913 30.9266C72.1719 14.7925 40.7573 20.0487 24.6218 42.6682C8.48624 65.2876 13.7439 96.7021 36.3633 112.838C58.9828 128.973 90.3973 123.716 106.533 101.096C119.399 83.0591 118.95 58.728 105.426 41.1764L109.081 34.5811L117.561 42.5754L115.519 49.3277C115.267 50.0643 115.448 50.8808 115.99 51.4404C115.99 51.4404 120.173 55.5803 120.273 55.7231C121.257 56.3069 122.526 55.9814 123.109 54.9993C123.115 54.9879 123.122 54.9779 123.128 54.9665L128.71 44.731L138.788 39.2349C139.833 38.7538 140.291 37.5162 139.809 36.4698C139.708 36.2514 139.57 36.0515 139.402 35.8802L135.648 31.8973C135.105 31.3563 134.31 31.1593 133.578 31.3834L126.754 33.4534L118.76 24.9738L136.704 14.9809C137.749 14.4999 138.207 13.2622 137.725 12.2158C137.623 11.9974 137.486 11.7975 137.318 11.6262L132.279 6.58699C131.723 6.0488 130.915 5.8618 130.18 6.10162ZM33.2213 39.2492C41.8351 30.6397 53.5196 25.8117 65.6979 25.8303C66.6501 25.8303 67.6009 25.8588 68.553 25.9159C76.6472 33.382 74.2632 40.1914 68.8385 46.3298C65.638 49.7245 62.2033 52.8922 58.5602 55.8087C53.2926 60.2912 48.3818 64.4739 46.526 68.6566C44.3276 73.6245 45.9407 78.1212 54.8201 82.047C59.2597 84.017 61.6723 85.5445 62.6144 86.7008C62.7429 86.8578 62.8714 86.7008 62.8428 86.7008C62.7444 86.7079 62.6473 86.7322 62.5573 86.7721C60.4075 87.5901 58.1191 87.9841 55.8193 87.9285C45.0556 88.3853 37.3897 81.5045 31.4369 76.1798C27.1542 72.3682 23.5997 69.1991 19.9023 69.1705C20.5062 57.8972 25.2485 47.242 33.2213 39.2492ZM111.736 71.7687C111.722 91.68 98.9055 109.324 79.9734 115.494C79.4423 112.148 80.0619 108.722 81.7293 105.773C83.9919 102.14 86.8927 98.9477 90.2945 96.351C103.471 85.3589 104.213 79.2204 104.784 74.4953C105.141 71.5117 105.412 69.2847 111.308 66.0442C111.544 67.9386 111.663 69.8458 111.665 71.7544L111.736 71.7687ZM109.067 56.3226C109.705 58.1199 110.229 59.9557 110.637 61.8187C101.658 66.3868 101.258 69.6416 100.716 74.0813C100.23 78.0784 99.6021 83.3032 87.6964 93.2389C83.8834 96.1568 80.64 99.7514 78.1318 103.846C75.9449 107.711 75.1868 112.225 75.9905 116.594C51.2269 122.254 26.5632 106.769 20.9016 82.0042C20.2535 79.1719 19.8766 76.2854 19.7738 73.3818C22.0436 73.3818 24.9844 76.0798 28.5961 79.2918C35.1342 85.1305 43.4996 92.5823 55.9621 92.1397C58.8985 92.1897 61.8136 91.6358 64.5274 90.5123C65.6708 90.007 66.5373 89.0262 66.8971 87.8285C67.2011 86.4923 66.8157 85.0934 65.8692 84.1026C64.5274 82.461 61.5866 80.5195 56.5331 78.264C50.4946 75.5945 49.1812 72.9963 50.3661 70.3411C51.7937 67.0007 56.3904 63.2034 61.2726 58.9208C65.077 55.8458 68.6601 52.5068 71.9934 48.9279C77.9605 42.1328 81.0298 34.6525 74.9627 26.6154C81.705 27.9944 88.049 30.8781 93.5208 35.0522L90.2374 45.8873C89.9947 46.6296 90.1875 47.4447 90.7371 48C90.7371 48 96.0618 53.282 96.2331 53.3819C97.2167 53.9658 98.4858 53.6403 99.0696 52.6581C99.0754 52.6467 99.0825 52.6367 99.0882 52.6253L103.242 45.1164C105.691 48.5654 107.651 52.3369 109.067 56.3226ZM114.377 22.6326C113.366 23.1679 112.982 24.4213 113.518 25.4306C113.528 25.4491 113.538 25.4691 113.549 25.4877C113.635 25.6447 124.556 37.2649 124.556 37.2649C125.097 37.8374 125.916 38.0529 126.668 37.8217L133.563 35.7374L134.634 36.8081L128.21 40.3627L126.369 41.2763C125.956 41.4804 125.625 41.8174 125.426 42.2328L124.513 44.0886L120.958 50.5125L119.916 49.3705L121.986 42.5326C122.227 41.7317 121.962 40.8638 121.315 40.3341L110.052 29.7418C109.244 28.9338 107.933 28.9338 107.125 29.7418C106.983 29.8988 96.847 48.1571 96.847 48.1571L94.6343 45.9444L101.544 23.1751C101.791 22.3699 101.526 21.4948 100.873 20.9624L91.8506 12.6112C90.8584 11.7704 90.5286 10.3828 91.0368 9.18512C91.4922 8.14729 92.3231 7.32217 93.3637 6.8725H93.4351C94.6171 6.41568 95.959 6.75972 96.7756 7.72902L105.341 16.7797C105.879 17.3578 106.698 17.5791 107.454 17.3507L130.294 10.4556L132.507 12.6683L114.377 22.6326Z" fill="url(#paint14_linear_130_12300)"/>
<path d="M122.599 100.52C121.575 99.9844 120.313 100.357 119.744 101.362C118.844 103.004 117.859 104.617 116.803 106.159C116.121 107.128 116.355 108.467 117.324 109.149C118.293 109.832 119.632 109.597 120.315 108.628C121.428 106.972 122.485 105.245 123.455 103.503C124.052 102.485 123.714 101.178 122.699 100.577L122.599 100.52Z" fill="url(#paint15_linear_130_12300)"/>
<path d="M131.364 77.7221C131.549 75.7378 131.635 73.725 131.635 71.7264V71.4266C131.628 70.2489 130.671 69.2996 129.494 69.2996C128.312 69.2682 127.328 70.2004 127.297 71.3824C127.297 71.3967 127.297 71.4109 127.295 71.4266C127.295 71.4266 127.295 71.4266 127.295 71.5123V71.755C127.295 73.6251 127.21 75.5094 127.038 77.3795C126.931 78.5572 127.799 79.5993 128.977 79.7064C128.978 79.7064 128.978 79.7064 128.98 79.7064H129.18C130.32 79.7321 131.281 78.8598 131.364 77.7221Z" fill="url(#paint16_linear_130_12300)"/>
<path d="M48.7941 130.926C47.6792 130.532 46.4543 131.117 46.0603 132.232C45.6663 133.347 46.2516 134.572 47.3665 134.966H47.6235C49.5364 135.508 51.5064 135.979 53.4764 136.393H53.8762C55.051 136.584 56.1588 135.786 56.3501 134.611C56.5414 133.437 55.7434 132.329 54.5685 132.138C54.4715 132.122 54.3744 132.113 54.2773 132.11C52.4258 131.832 50.5942 131.437 48.7941 130.926Z" fill="url(#paint17_linear_130_12300)"/>
<path d="M84.8119 130.268C83.0418 130.862 81.2345 131.339 79.4015 131.696C78.2466 131.956 77.5215 133.104 77.7813 134.258C78.0411 135.413 79.1888 136.139 80.3437 135.879C82.2852 135.436 84.2409 134.894 86.1395 134.28C87.2487 133.872 87.8169 132.64 87.4086 131.53C87.0217 130.478 85.8897 129.904 84.8119 130.211V130.268Z" fill="url(#paint18_linear_130_12300)"/>
<path d="M34.6058 124.845C33.6251 124.184 32.2946 124.442 31.6337 125.423C30.9727 126.404 31.2311 127.734 32.2118 128.395C32.2832 128.443 32.3589 128.488 32.436 128.526C34.1633 129.54 35.9477 130.482 37.7607 131.381C38.8328 131.885 40.1119 131.426 40.6158 130.354C41.1197 129.281 40.66 128.002 39.588 127.498C37.8892 126.672 36.219 125.758 34.6058 124.845Z" fill="url(#paint19_linear_130_12300)"/>
<path d="M110.622 113.838C109.352 115.219 108.009 116.529 106.597 117.764C105.713 118.552 105.637 119.907 106.425 120.79C107.214 121.674 108.568 121.75 109.452 120.962C110.879 119.634 112.393 118.221 113.735 116.765C114.532 115.891 114.471 114.536 113.597 113.74C112.74 112.956 111.413 113 110.608 113.838H110.622Z" fill="url(#paint20_linear_130_12300)"/>
<path d="M98.7451 123.688C97.1748 124.688 95.5332 125.63 93.8772 126.543C92.8251 127.083 92.4097 128.375 92.9493 129.427C93.4889 130.479 94.7808 130.895 95.8329 130.355C97.6031 129.441 99.359 128.428 101.043 127.357C102.026 126.698 102.287 125.369 101.629 124.386C101.016 123.474 99.8144 123.173 98.8451 123.688H98.7451Z" fill="url(#paint21_linear_130_12300)"/>
</g>
<defs>
<linearGradient id="paint0_linear_130_12300" x1="18.7324" y1="116.015" x2="28.0343" y2="116.851" gradientUnits="userSpaceOnUse">
<stop stop-color="#F1612A"/>
<stop offset="1" stop-color="#FBAC3E"/>
</linearGradient>
<linearGradient id="paint1_linear_130_12300" x1="0.439453" y1="57.1052" x2="6.11659" y2="57.3532" gradientUnits="userSpaceOnUse">
<stop stop-color="#F1612A"/>
<stop offset="1" stop-color="#FBAC3E"/>
</linearGradient>
<linearGradient id="paint2_linear_130_12300" x1="8.97656" y1="103.54" x2="16.94" y2="104.099" gradientUnits="userSpaceOnUse">
<stop stop-color="#F1612A"/>
<stop offset="1" stop-color="#FBAC3E"/>
</linearGradient>
<linearGradient id="paint3_linear_130_12300" x1="2.49609" y1="89.0423" x2="9.18921" y2="89.407" gradientUnits="userSpaceOnUse">
<stop stop-color="#F1612A"/>
<stop offset="1" stop-color="#FBAC3E"/>
</linearGradient>
<linearGradient id="paint4_linear_130_12300" x1="4.39844" y1="42.3092" x2="11.5154" y2="42.7314" gradientUnits="userSpaceOnUse">
<stop stop-color="#F1612A"/>
<stop offset="1" stop-color="#FBAC3E"/>
</linearGradient>
<linearGradient id="paint5_linear_130_12300" x1="-1.51857e-08" y1="73.3413" x2="5.09992" y2="73.5475" gradientUnits="userSpaceOnUse">
<stop stop-color="#F1612A"/>
<stop offset="1" stop-color="#FBAC3E"/>
</linearGradient>
<linearGradient id="paint6_linear_130_12300" x1="51.1191" y1="6.92646" x2="62.1165" y2="8.83036" gradientUnits="userSpaceOnUse">
<stop stop-color="#F1612A"/>
<stop offset="1" stop-color="#FBAC3E"/>
</linearGradient>
<linearGradient id="paint7_linear_130_12300" x1="11.957" y1="28.8744" x2="20.4619" y2="29.5232" gradientUnits="userSpaceOnUse">
<stop stop-color="#F1612A"/>
<stop offset="1" stop-color="#FBAC3E"/>
</linearGradient>
<linearGradient id="paint8_linear_130_12300" x1="67.377" y1="6.63772" x2="78.0365" y2="8.53405" gradientUnits="userSpaceOnUse">
<stop stop-color="#F1612A"/>
<stop offset="1" stop-color="#FBAC3E"/>
</linearGradient>
<linearGradient id="paint9_linear_130_12300" x1="22.8535" y1="18.2384" x2="32.2831" y2="19.1595" gradientUnits="userSpaceOnUse">
<stop stop-color="#F1612A"/>
<stop offset="1" stop-color="#FBAC3E"/>
</linearGradient>
<linearGradient id="paint10_linear_130_12300" x1="36.3359" y1="10.6489" x2="46.5596" y2="11.9375" gradientUnits="userSpaceOnUse">
<stop stop-color="#F1612A"/>
<stop offset="1" stop-color="#FBAC3E"/>
</linearGradient>
<linearGradient id="paint11_linear_130_12300" x1="61.8281" y1="133.746" x2="72.2475" y2="135.778" gradientUnits="userSpaceOnUse">
<stop stop-color="#F1612A"/>
<stop offset="1" stop-color="#FBAC3E"/>
</linearGradient>
<linearGradient id="paint12_linear_130_12300" x1="123.629" y1="86.7476" x2="130.043" y2="87.0786" gradientUnits="userSpaceOnUse">
<stop stop-color="#F1612A"/>
<stop offset="1" stop-color="#FBAC3E"/>
</linearGradient>
<linearGradient id="paint13_linear_130_12300" x1="125.203" y1="54.9968" x2="131.052" y2="55.2736" gradientUnits="userSpaceOnUse">
<stop stop-color="#F1612A"/>
<stop offset="1" stop-color="#FBAC3E"/>
</linearGradient>
<linearGradient id="paint14_linear_130_12300" x1="15.2656" y1="19.4076" x2="148.098" y2="31.2316" gradientUnits="userSpaceOnUse">
<stop stop-color="#F1612A"/>
<stop offset="1" stop-color="#FBAC3E"/>
</linearGradient>
<linearGradient id="paint15_linear_130_12300" x1="116.412" y1="101.586" x2="124.252" y2="102.117" gradientUnits="userSpaceOnUse">
<stop stop-color="#F1612A"/>
<stop offset="1" stop-color="#FBAC3E"/>
</linearGradient>
<linearGradient id="paint16_linear_130_12300" x1="127.029" y1="70.7717" x2="131.966" y2="70.9583" gradientUnits="userSpaceOnUse">
<stop stop-color="#F1612A"/>
<stop offset="1" stop-color="#FBAC3E"/>
</linearGradient>
<linearGradient id="paint17_linear_130_12300" x1="45.9375" y1="131.598" x2="56.8687" y2="133.333" gradientUnits="userSpaceOnUse">
<stop stop-color="#F1612A"/>
<stop offset="1" stop-color="#FBAC3E"/>
</linearGradient>
<linearGradient id="paint18_linear_130_12300" x1="77.7285" y1="130.95" x2="88.0453" y2="132.441" gradientUnits="userSpaceOnUse">
<stop stop-color="#F1612A"/>
<stop offset="1" stop-color="#FBAC3E"/>
</linearGradient>
<linearGradient id="paint19_linear_130_12300" x1="31.2676" y1="125.484" x2="41.3874" y2="126.646" gradientUnits="userSpaceOnUse">
<stop stop-color="#F1612A"/>
<stop offset="1" stop-color="#FBAC3E"/>
</linearGradient>
<linearGradient id="paint20_linear_130_12300" x1="105.881" y1="114.358" x2="114.845" y2="115.132" gradientUnits="userSpaceOnUse">
<stop stop-color="#F1612A"/>
<stop offset="1" stop-color="#FBAC3E"/>
</linearGradient>
<linearGradient id="paint21_linear_130_12300" x1="92.7129" y1="124.45" x2="102.552" y2="125.54" gradientUnits="userSpaceOnUse">
<stop stop-color="#F1612A"/>
<stop offset="1" stop-color="#FBAC3E"/>
</linearGradient>
<clipPath id="clip0_130_12300">
<rect width="140" height="140" fill="white"/>
</clipPath>
</defs>
</svg>
