<svg width="35" height="35" viewBox="0 0 35 35" fill="none" xmlns="http://www.w3.org/2000/svg">
<rect x="0.5" y="0.5" width="34" height="34" rx="17" fill="white" stroke="#F1592A"/>
<g clip-path="url(#clip0_701_6932)">
<path d="M18 28.5134C17.8887 28.5134 17.7775 28.4847 17.6778 28.4271C17.5695 28.3646 14.9969 26.8709 12.3874 24.6203C10.8408 23.2864 9.60625 21.9634 8.71808 20.6881C7.56876 19.0379 6.99079 17.4505 7.00011 15.9701C7.01103 14.2475 7.62801 12.6275 8.73755 11.4085C9.86582 10.1689 11.3715 9.48633 12.9774 9.48633C15.0355 9.48633 16.9171 10.6392 18 12.4654C19.083 10.6392 20.9646 9.48633 23.0227 9.48633C24.5398 9.48633 25.9873 10.1022 27.0987 11.2206C28.3183 12.4479 29.0112 14.1821 28.9999 15.9783C28.9905 17.4561 28.4017 19.0411 27.2499 20.689C26.359 21.9637 25.1261 23.2861 23.5855 24.6196C20.9856 26.87 18.4315 28.3636 18.324 28.4261C18.2239 28.4843 18.1119 28.5134 18 28.5134Z" fill="#F1592A"/>
</g>
<defs>
<clipPath id="clip0_701_6932">
<rect width="22" height="22" fill="white" transform="translate(7 8)"/>
</clipPath>
</defs>
</svg>
