<svg xmlns="http://www.w3.org/2000/svg" xmlns:xlink="http://www.w3.org/1999/xlink" viewBox="0 0 168.95 66.07"><defs><style>.cls-1{fill:#fda80d;}.cls-2{fill:#06fe00;}.cls-3{fill:#2a8feb;}.cls-4{fill:#fe0406;}.cls-5{fill:#f60;}.cls-6{fill:url(#linear-gradient);}.cls-7{opacity:0.67;}.cls-8{fill:url(#linear-gradient-2);}.cls-10,.cls-9{fill:none;stroke-miterlimit:10;}.cls-9{stroke:#ffaf32;}.cls-10{stroke:#43b0f8;}.cls-11{fill:url(#linear-gradient-3);}.cls-12{font-size:40px;fill:#fff;font-family:Ohio-Collegiate, Ohio Collegiate;}.cls-13{letter-spacing:0.03em;}.cls-14{letter-spacing:0em;}</style><linearGradient id="linear-gradient" x1="36.11" y1="66.07" x2="36.11" y2="3.47" gradientUnits="userSpaceOnUse"><stop offset="0" stop-color="#1e1d32" stop-opacity="0.97"/><stop offset="0.1" stop-color="#281e32" stop-opacity="0.97"/><stop offset="0.26" stop-color="#422231" stop-opacity="0.98"/><stop offset="0.47" stop-color="#6e2830" stop-opacity="0.98"/><stop offset="0.72" stop-color="#a9302f" stop-opacity="0.99"/><stop offset="1" stop-color="#f43a2d"/></linearGradient><linearGradient id="linear-gradient-2" x1="46.74" y1="66.07" x2="46.74" y2="4.06" gradientUnits="userSpaceOnUse"><stop offset="0" stop-color="#f7352c"/><stop offset="0.13" stop-color="#f83f2d"/><stop offset="0.35" stop-color="#f9592f"/><stop offset="0.63" stop-color="#fb8533"/><stop offset="0.96" stop-color="#ffc037"/><stop offset="1" stop-color="#ffc838"/></linearGradient><linearGradient id="linear-gradient-3" x1="36.11" y1="54.79" x2="36.11" y2="48.85" gradientUnits="userSpaceOnUse"><stop offset="0" stop-color="#f7352c"/><stop offset="0.22" stop-color="#f83f2e"/><stop offset="0.59" stop-color="#fb5932"/><stop offset="1" stop-color="#ff7e38"/></linearGradient></defs><g id="Layer_2" data-name="Layer 2"><g id="Layer_1-2" data-name="Layer 1"><polygon class="cls-1" points="14.99 34.32 14.99 32.52 11.59 32.52 11.59 34.32 13.29 36.13 14.99 34.32"/><polygon class="cls-1" points="11.59 39.92 11.59 41.73 14.99 41.73 14.99 39.92 13.29 38.12 11.59 39.92"/><polygon class="cls-1" points="10.49 35.42 8.68 35.42 8.68 38.82 10.49 38.82 12.29 37.12 10.49 35.42"/><polygon class="cls-1" points="16.09 35.42 14.29 37.12 16.09 38.82 17.89 38.82 17.89 35.42 16.09 35.42"/><path class="cls-2" d="M59.87,35.73A1.74,1.74,0,1,0,58.09,34,1.73,1.73,0,0,0,59.87,35.73Z"/><path class="cls-3" d="M59.78,38.34A1.74,1.74,0,1,0,61.56,40,1.74,1.74,0,0,0,59.78,38.34Z"/><path class="cls-4" d="M56.74,35.3A1.74,1.74,0,1,0,58.52,37,1.73,1.73,0,0,0,56.74,35.3Z"/><path class="cls-5" d="M62.82,35.3a1.74,1.74,0,0,0,.09,3.47,1.74,1.74,0,1,0-.09-3.47Z"/><path class="cls-6" d="M71.14,42.86c-2.22-18.21-9.76-20.19-11.31-20.74a.2.2,0,0,1-.15-.17C58.52,15.66,49.61,16,48,15.92c-8-.6-9.24-6.94-9.56-9.65A.24.24,0,0,0,38,6.2,11.86,11.86,0,0,0,37.79,15a.24.24,0,0,1-.26.32C29.14,14.15,26.89,6,26.31,3.65a.24.24,0,0,0-.39-.11C12.86,15.39,20.77,27.74,23,30.72a.24.24,0,0,1-.29.36c-5.34-2.28-5.92-7.79-6.08-9.93a.24.24,0,0,0-.28-.21C9.6,22,6,27.64,5.52,28.56.3,38.34.61,51.75.61,53.56,1,62.86,5.55,65,6.39,65.41h0c4.58,1.81,8.2-1.81,9-2.7h0C20,57.27,26,46,26.7,44.59c1.68-3.17,5.66-2.92,5.66-2.92h6.85c5.12,0,6.78,2.95,7.59,4.28h0c1.85,3.81,8.93,14.75,10.27,16.55v0c4.46,6,10.12,2.6,10.13,2.59C73.39,61.46,71.32,44.72,71.14,42.86ZM13.29,29.28a7.77,7.77,0,1,1-7.77,7.77A7.77,7.77,0,0,1,13.29,29.28ZM28.22,40.74c-1.18.34-3.59,1.59-5.72,6.07a64.93,64.93,0,0,1-9,14.22h0c-.71.67-4.42,4.68-8,1.23a12.55,12.55,0,0,1-3.14-8.76c.15-3.1.62-1.4.62-1.39A21,21,0,0,0,5.8,58.87c1,1.34,3.29,2.41,6.32-1h0c2.25-2.13,8.45-12.72,8.45-12.72.82-1.52,3.43-5.88,7.75-5.48C30.51,40.05,29.39,40.41,28.22,40.74ZM59.81,29.28A7.77,7.77,0,1,1,52,37.05,7.77,7.77,0,0,1,59.81,29.28Zm6.82,33c-3.62,3.45-7.33-.56-8-1.23h0a65.14,65.14,0,0,1-9-14.22c-2.12-4.48-4.54-5.73-5.72-6.07s-2.28-.69-.11-1.09c4.32-.4,6.93,4,7.75,5.48,0,0,6.2,10.59,8.45,12.72h0c3,3.42,5.27,2.35,6.31,1a21.31,21.31,0,0,0,2.92-6.75s.46-1.71.62,1.39A12.55,12.55,0,0,1,66.63,62.27Z"/><g class="cls-7"><path class="cls-8" d="M71.14,42.86c-2.22-18.21-9.76-20.19-11.31-20.74a.2.2,0,0,1-.15-.17C58.52,15.66,49.61,16,48,15.92c-8-.6-9.24-6.94-9.56-9.65A.24.24,0,0,0,38,6.2,11.86,11.86,0,0,0,37.79,15a.24.24,0,0,1-.26.32c-8-1.1-10.39-8.52-11.11-11.25C26,15.24,31.51,22,34,24.45c-6.77-.4-11.57-8.67-11.87-9.27,1.24,8.57,5,10.8,6.22,12.61-2.7.19-6.2-2.87-6.57-3.5,2.76,9.43,7.47,17.38,15.62,17.38h1.8c5.12,0,6.78,2.95,7.59,4.28h0c1.85,3.81,8.93,14.75,10.27,16.55v0c4.46,6,10.12,2.6,10.13,2.59C73.63,61.29,71.32,44.72,71.14,42.86ZM59.81,29.28A7.77,7.77,0,1,1,52,37.05,7.77,7.77,0,0,1,59.81,29.28ZM58.59,61h0a65.14,65.14,0,0,1-9-14.22c-2.12-4.48-4.54-5.73-5.72-6.07s-2.28-.69-.11-1.09c4.32-.4,6.93,4,7.75,5.48,0,0,6.2,10.59,8.45,12.72h0c3,3.42,5.27,2.35,6.31,1a21.31,21.31,0,0,0,2.92-6.75s.46-1.71.62,1.39a12.55,12.55,0,0,1-3.14,8.76C63,65.72,59.3,61.71,58.59,61Z"/></g><rect class="cls-9" x="11.62" y="1.4" width="5.32" height="5.32" transform="translate(2.28 -4.68) rotate(20.19)"/><circle class="cls-10" cx="2.61" cy="19.55" r="2.11"/><polygon class="cls-10" points="70.71 23.19 65.14 17.62 72.48 15.91 70.71 23.19"/><path class="cls-11" d="M37.51,51.82l1.37-1.37a.71.71,0,0,0,0-1l-.41-.41a.71.71,0,0,0-1,0l-1.37,1.37-1.37-1.37a.71.71,0,0,0-1,0l-.41.41a.71.71,0,0,0,0,1l1.38,1.37-1.38,1.37a.71.71,0,0,0,0,1l.41.41a.71.71,0,0,0,1,0l1.37-1.38,1.37,1.38a.71.71,0,0,0,1,0l.41-.41a.71.71,0,0,0,0-1Z"/><text class="cls-12" transform="translate(77.04 59.04) scale(0.83 1)">C<tspan class="cls-13" x="14.69" y="0">M G</tspan><tspan class="cls-14" x="59.56" y="0">ame</tspan></text></g></g></svg>