<svg width="43" height="42" viewBox="0 0 43 42" fill="none" xmlns="http://www.w3.org/2000/svg">
<path fill-rule="evenodd" clip-rule="evenodd" d="M42.7199 20.8948C42.7199 32.4346 33.365 41.7895 21.8252 41.7895C10.2853 41.7895 0.93042 32.4346 0.93042 20.8948C0.93042 9.3549 10.2853 0 21.8252 0C33.365 0 42.7199 9.3549 42.7199 20.8948ZM22.5739 15.4254C20.5417 16.2708 16.4799 18.0203 10.3886 20.6742C9.3995 21.0675 8.88136 21.4523 8.8342 21.8286C8.75446 22.4645 9.55078 22.7149 10.6351 23.0558C10.7826 23.1023 10.9355 23.1504 11.0922 23.2012C12.159 23.5481 13.5941 23.9538 14.3402 23.9698C15.0169 23.9844 15.7722 23.7055 16.6061 23.1328C22.2974 19.2911 25.2352 17.3493 25.4196 17.3074C25.5498 17.2779 25.7301 17.2408 25.8523 17.3494C25.9744 17.4579 25.9625 17.6636 25.9495 17.7188C25.8706 18.055 22.7447 20.9611 21.1271 22.465C20.6229 22.9337 20.2652 23.2663 20.1921 23.3422C20.0282 23.5125 19.8612 23.6734 19.7009 23.828C18.7098 24.7835 17.9665 25.5 19.742 26.6701C20.5954 27.2323 21.2781 27.6972 21.9593 28.1611C22.7031 28.6678 23.4451 29.1731 24.405 29.8024C24.6496 29.9627 24.8831 30.1292 25.1107 30.2913C25.9765 30.9086 26.7543 31.463 27.7151 31.3745C28.2735 31.3232 28.8502 30.7982 29.1431 29.2325C29.8352 25.532 31.1958 17.5142 31.5103 14.2101C31.5379 13.9207 31.5033 13.5502 31.4754 13.3876C31.4476 13.225 31.3894 12.9933 31.178 12.8217C30.9276 12.6186 30.5413 12.5758 30.3684 12.5788C29.5824 12.5926 28.3767 13.0119 22.5739 15.4254Z" fill="#37355A"/>
</svg>
