<svg width="30" height="30" viewBox="0 0 30 30" fill="none" xmlns="http://www.w3.org/2000/svg">
<path d="M5.2 12.2H8C10.8 12.2 12.2 10.8 12.2 8V5.2C12.2 2.4 10.8 1 8 1H5.2C2.4 1 1 2.4 1 5.2V8C1 10.8 2.4 12.2 5.2 12.2Z" stroke="#F18C34" stroke-width="2" stroke-miterlimit="10" stroke-linecap="round" stroke-linejoin="round"/>
<path d="M22 12.2H24.8C27.6 12.2 29 10.8 29 8V5.2C29 2.4 27.6 1 24.8 1H22C19.2 1 17.8 2.4 17.8 5.2V8C17.8 10.8 19.2 12.2 22 12.2Z" stroke="#F8F8F8" stroke-width="2" stroke-miterlimit="10" stroke-linecap="round" stroke-linejoin="round"/>
<path d="M22 28.9999H24.8C27.6 28.9999 29 27.5999 29 24.7999V21.9999C29 19.1999 27.6 17.7999 24.8 17.7999H22C19.2 17.7999 17.8 19.1999 17.8 21.9999V24.7999C17.8 27.5999 19.2 28.9999 22 28.9999Z" stroke="#F18C34" stroke-width="2" stroke-miterlimit="10" stroke-linecap="round" stroke-linejoin="round"/>
<path d="M5.2 28.9999H8C10.8 28.9999 12.2 27.5999 12.2 24.7999V21.9999C12.2 19.1999 10.8 17.7999 8 17.7999H5.2C2.4 17.7999 1 19.1999 1 21.9999V24.7999C1 27.5999 2.4 28.9999 5.2 28.9999Z" stroke="#F8F8F8" stroke-width="2" stroke-miterlimit="10" stroke-linecap="round" stroke-linejoin="round"/>
</svg>
