<svg width="50" height="41" viewBox="0 0 50 41" fill="none" xmlns="http://www.w3.org/2000/svg">
<path d="M49.4939 5.31563C47.6771 6.12067 45.7255 6.66462 43.6737 6.91048C45.7668 5.65723 47.3725 3.66855 48.1297 1.30129C46.1715 2.46316 44.0022 3.30737 41.6937 3.75994C39.8443 1.79302 37.2116 0.561523 34.296 0.561523C28.6999 0.561523 24.1612 5.10022 24.1612 10.7007C24.1612 11.4927 24.2526 12.2629 24.4223 13.007C15.9955 12.5828 8.53034 8.54667 3.53037 2.4153C2.66006 3.91659 2.15963 5.65723 2.15963 7.511C2.15963 11.0271 3.9503 14.1319 6.66787 15.9487C5.00556 15.8943 3.44334 15.4396 2.07695 14.6802V14.8108C2.07695 19.7215 5.56909 23.8185 10.2079 24.7498C9.35497 24.9804 8.46072 25.1022 7.53818 25.1022C6.88544 25.1022 6.24794 25.0413 5.63001 24.9238C6.92026 28.949 10.6626 31.882 15.0991 31.9603C11.6287 34.6801 7.2575 36.301 2.50993 36.301C1.69183 36.301 0.884613 36.2532 0.0904541 36.1596C4.57693 39.0382 9.90327 40.7135 15.6256 40.7135C34.2721 40.7135 44.4657 25.2698 44.4657 11.8756C44.4657 11.4405 44.4548 11.001 44.4352 10.5658C46.4152 9.13414 48.1341 7.35217 49.4896 5.32215L49.4939 5.31563Z" fill="#37355A"/>
</svg>
