<svg width="85" height="85" viewBox="0 0 85 85" fill="none" xmlns="http://www.w3.org/2000/svg">
<path d="M77.2594 64.3995C76.5795 63.72 75.4778 63.72 74.7978 64.3995C74.1181 65.0795 74.1181 66.1812 74.7978 66.8611L80.5164 72.5797C81.0112 73.0975 81.3051 74.1646 80.5164 75.0409L75.0579 80.4996C74.3788 81.1782 73.2746 81.1782 72.5965 80.4996L56.2665 64.1698C57.7807 63.0748 59.2132 61.859 60.5444 60.5278C61.8915 59.1806 63.1058 57.75 64.1905 56.2541L69.24 61.3036C69.5799 61.6432 70.0255 61.8133 70.4707 61.8133C70.9162 61.8133 71.3616 61.6432 71.7014 61.3036C72.3812 60.6236 72.3812 59.5219 71.7014 58.8419L66.1309 53.2714C74.0139 39.7007 72.1531 21.9804 60.5441 10.3712C46.7159 -3.45729 24.2159 -3.45682 10.3877 10.3712C3.82216 16.9369 0.134217 25.6646 0.0036064 34.947C-0.127004 44.2101 3.29392 53.0197 9.63582 59.7527C10.2954 60.4522 11.3964 60.4847 12.0963 59.8263C12.796 59.167 12.8289 58.0657 12.1698 57.3658C0.24209 44.7024 0.54043 25.1408 12.8493 12.8326C25.3204 0.361266 45.6121 0.361266 58.0825 12.8326C70.5533 25.3034 70.5533 45.5951 58.0825 58.0657C47.584 68.5644 30.8777 70.4222 18.3589 62.4833C17.5474 61.9687 16.4721 62.209 15.9568 63.021C15.4423 63.8327 15.6829 64.908 16.4946 65.423C22.1561 69.0131 28.7887 70.9128 35.4964 70.9128C36.722 70.9128 37.9504 70.8493 39.1755 70.7214C44.1654 70.1995 48.9783 68.6082 53.2824 66.1088L70.1343 82.9605C71.1523 83.9783 72.4893 84.4873 73.8262 84.487C75.1632 84.487 76.5006 83.978 77.5186 82.9605L82.9773 77.5018C85.013 75.4659 85.013 72.1535 82.9773 70.1176L77.2594 64.3995Z" fill="#FF9431"/>
<path d="M47.1491 25.49C47.536 24.61 47.1365 23.5832 46.2566 23.196C42.612 21.5932 38.9911 20.7803 35.4946 20.7803C25.3487 20.7803 16.676 27.5751 12.4095 31.6256C11.321 32.6589 10.697 34.113 10.697 35.6152C10.697 37.1173 11.321 38.5712 12.4095 39.6047C16.676 43.655 25.3487 50.45 35.4946 50.45C45.6407 50.45 54.3131 43.6552 58.5799 39.6047C59.6684 38.5714 60.2924 37.1173 60.2924 35.6152C60.2924 34.113 59.6684 32.6591 58.5797 31.6256C57.0525 30.1757 55.4385 28.8241 53.7828 27.6078C53.0086 27.039 51.919 27.2055 51.3497 27.9804C50.7806 28.755 50.9474 29.8444 51.7223 30.4135C53.2606 31.5435 54.7616 32.8007 56.1832 34.1501C56.5887 34.5348 56.8117 35.0551 56.8117 35.6149C56.8117 36.1747 56.5887 36.6953 56.1832 37.0797C52.293 40.773 44.432 46.9685 35.4946 46.9685C26.5576 46.9685 18.6964 40.773 14.8062 37.0797C14.4009 36.6951 14.1777 36.1747 14.1777 35.6149C14.1777 35.0551 14.4009 34.5345 14.8062 34.1501C18.6964 30.4569 26.5574 24.2613 35.4946 24.2613C38.5058 24.2613 41.6551 24.9749 44.8551 26.3824C45.7351 26.7698 46.7623 26.3701 47.1491 25.49Z" fill="#FF9431"/>
<path d="M26.9536 35.6149C26.9536 40.3243 30.7852 44.1558 35.4946 44.1558C40.2042 44.1558 44.0357 40.3243 44.0357 35.6149C44.0357 30.9053 40.2042 27.0737 35.4946 27.0737C30.7852 27.0737 26.9536 30.9053 26.9536 35.6149ZM40.555 35.6149C40.555 38.405 38.285 40.6748 35.4948 40.6748C32.7047 40.6748 30.4349 38.405 30.4349 35.6149C30.4349 32.8248 32.7047 30.5547 35.4948 30.5547C38.2847 30.5547 40.555 32.8248 40.555 35.6149Z" fill="#FF9431"/>
</svg>
